<svg xmlns="http://www.w3.org/2000/svg" xmlns:xlink="http://www.w3.org/1999/xlink" width="118" height="119" viewBox="0 0 118 119"><defs><style>.a,.c,.e{fill:#267bfb;}.a{stroke:#707070;}.b,.g{fill:none;}.b{stroke:#9ac3e4;}.c{font-size:12px;font-family:Roboto-Medium, Roboto;font-weight:500;}.d{clip-path:url(#a);}.f{stroke:none;}</style><clipPath id="a"><rect class="a" width="40" height="40" transform="translate(319 376)"/></clipPath></defs><g transform="translate(-280 -347)"><g class="b" transform="translate(280 347)"><rect class="f" width="118" height="119" rx="4"/><rect class="g" x="0.5" y="0.5" width="117" height="118" rx="3.5"/></g><text class="c" transform="translate(339 434)"><tspan x="-36.1" y="0">+ Add Photos</tspan></text><g class="d"><g transform="translate(319 376)"><path class="e" d="M39.36,31.468H37.723a.64.64,0,0,1,0-1.28h1V6.64H5.57v.785a.64.64,0,1,1-1.28,0V6a.64.64,0,0,1,.64-.64H39.36A.64.64,0,0,1,40,6V30.828A.64.64,0,0,1,39.36,31.468Z"/><path class="e" d="M35.07,34.64H.64A.64.64,0,0,1,0,34V10.3a.64.64,0,0,1,.64-.64H35.07a.64.64,0,0,1,.64.64V13.3a.64.64,0,0,1-1.28,0V10.945H1.28V33.36H34.43V17.338a.64.64,0,0,1,1.28,0V34A.64.64,0,0,1,35.07,34.64Z"/><path class="e" d="M35.07,16.205a.64.64,0,0,1-.64-.64v-.471a.64.64,0,1,1,1.28,0v.471A.64.64,0,0,1,35.07,16.205Z"/><path class="e" d="M9.05,19.79a2.283,2.283,0,1,1,2.277-2.283A2.282,2.282,0,0,1,9.05,19.79Zm0-3.285a1,1,0,1,0,1,1A1,1,0,0,0,9.05,16.505Z"/><path class="e" d="M30.725,12.655H4.986a.64.64,0,0,0-.64.64V31.009a.64.64,0,0,0,.64.64H30.725a.64.64,0,0,0,.64-.64V13.3a.64.64,0,0,0-.64-.64Zm-.64,1.28V29.095L23.2,17.334a.646.646,0,0,0-1.126.039L17.4,26.817,13.015,19.2a.646.646,0,0,0-1.11,0L5.626,30.113V13.936H30.085Zm-.737,16.434H6.955l5.506-9.57,4.426,7.694a.646.646,0,0,0,1.128-.035L22.695,19Z"/></g></g></g></svg>