<svg xmlns="http://www.w3.org/2000/svg" xmlns:xlink="http://www.w3.org/1999/xlink" width="97" height="97" viewBox="0 0 97 97"><defs><style>.a,.c{fill:#c44829;}.a{stroke:#707070;}.b{clip-path:url(#a);}</style><clipPath id="a"><rect class="a" width="97" height="97" transform="translate(159 274)"/></clipPath></defs><g class="b" transform="translate(-159 -274)"><g transform="translate(159 274)"><path class="c" d="M84.409,51.272h-6.7l.354-7.432a3.083,3.083,0,0,0-3.08-3.23H7.146a3.083,3.083,0,0,0-3.08,3.23L5.435,72.56A18.191,18.191,0,0,0,16.228,88.342H3.084a3.084,3.084,0,0,0,0,6.167H79.477a3.084,3.084,0,0,0,0-6.167H65.9A18.2,18.2,0,0,0,76.079,76.455h8.33a12.591,12.591,0,1,0,0-25.182ZM58.5,83.743H23.631A12.036,12.036,0,0,1,11.595,72.266L10.38,46.776H71.746l-1.214,25.49A12.036,12.036,0,0,1,58.5,83.743ZM84.409,70.288H76.8l.613-12.855c.046,0,.091.007.137.007h6.859a6.424,6.424,0,0,1,0,12.848Z"/><path class="c" d="M32,35.555a3.083,3.083,0,1,0,3.138-5.309,7.118,7.118,0,0,1-3.251-5.129,7.647,7.647,0,0,1,1.633-6.229l.036-.042q.5-.587,1-1.158c2.852-3.276,5.8-6.662,6.649-11.591a3.083,3.083,0,1,0-6.078-1.045c-.555,3.225-2.718,5.709-5.222,8.585q-.506.581-1.018,1.175A13.867,13.867,0,0,0,25.8,26.07,13.248,13.248,0,0,0,32,35.555Z"/><path class="c" d="M41.572,28.592a15.848,15.848,0,0,0,5.115,6.761,3.083,3.083,0,1,0,3.738-4.9,9.731,9.731,0,0,1-3.1-4.088c-1.2-3.1-.063-6.18,3.809-10.315A19.085,19.085,0,0,0,56.2,6.06a3.084,3.084,0,0,0-6.091-.971,12.784,12.784,0,0,1-3.484,6.741C44.606,13.99,38.453,20.56,41.572,28.592Z"/></g></g></svg>