<svg width="128" height="94" viewBox="0 0 128 94" fill="none" xmlns="http://www.w3.org/2000/svg">
<path d="M119.5 92.08H8.90001C5.09001 92.08 2 88.99 2 85.18V8.90002C2 5.09002 5.09001 2 8.90001 2H119.5C123.31 2 126.4 5.09002 126.4 8.90002V85.18C126.4 89 123.31 92.08 119.5 92.08Z" fill="#FFD773"/>
<path d="M126.4 12.7201H2V29.8801H126.4V12.7201Z" fill="#F4B400"/>
<path d="M8.92041 12.7201H79.9604" stroke="#1C1C1C" stroke-width="3" stroke-miterlimit="10" stroke-linecap="round" stroke-linejoin="round"/>
<path d="M42.75 29.8801H2V12.7201H3.84001" stroke="#1C1C1C" stroke-width="3" stroke-miterlimit="10" stroke-linecap="round" stroke-linejoin="round"/>
<path d="M86.5701 12.7201H126.4V29.8801H50.3501" stroke="#1C1C1C" stroke-width="3" stroke-miterlimit="10" stroke-linecap="round" stroke-linejoin="round"/>
<path d="M126.4 44.9V85.19C126.4 89 123.31 92.09 119.5 92.09" stroke="#1C1C1C" stroke-width="3" stroke-miterlimit="10" stroke-linecap="round" stroke-linejoin="round"/>
<path d="M2 60.7V8.90002C2 5.09002 5.09001 2 8.90001 2H119.5C123.31 2 126.4 5.09002 126.4 8.90002V37.21" stroke="#1C1C1C" stroke-width="3" stroke-miterlimit="10" stroke-linecap="round" stroke-linejoin="round"/>
<path d="M33.24 92.0801H8.90001C5.09001 92.0801 2 88.9901 2 85.1801V68.4901" stroke="#1C1C1C" stroke-width="3" stroke-miterlimit="10" stroke-linecap="round" stroke-linejoin="round"/>
<path d="M119.5 92.0801H42.75" stroke="#1C1C1C" stroke-width="3" stroke-miterlimit="10" stroke-linecap="round" stroke-linejoin="round"/>
<path d="M34.1705 44.9H14.8705C13.6905 44.9 12.7305 43.94 12.7305 42.76C12.7305 41.58 13.6905 40.62 14.8705 40.62H34.1705C35.3505 40.62 36.3105 41.58 36.3105 42.76C36.3105 43.94 35.3505 44.9 34.1705 44.9Z" fill="#F9EAB0"/>
<path d="M62.0504 44.9H42.7504C41.5704 44.9 40.6104 43.94 40.6104 42.76C40.6104 41.58 41.5704 40.62 42.7504 40.62H62.0504C63.2304 40.62 64.1904 41.58 64.1904 42.76C64.2004 43.94 63.2404 44.9 62.0504 44.9Z" fill="#F9EAB0"/>
<path d="M53.47 55.6201H49.18C48 55.6201 47.04 54.6601 47.04 53.4801C47.04 52.3001 48 51.3401 49.18 51.3401H53.47C54.65 51.3401 55.61 52.3001 55.61 53.4801C55.62 54.6601 54.66 55.6201 53.47 55.6201Z" fill="#F9EAB0"/>
<path d="M62.0502 55.6201C61.4902 55.6201 60.9302 55.38 60.5302 55C60.1402 54.59 59.9102 54.06 59.9102 53.48C59.9102 52.92 60.1502 52.3601 60.5302 51.9601C61.3202 51.1701 62.7602 51.1701 63.5802 51.9601C63.9702 52.3701 64.2002 52.93 64.2002 53.48C64.2002 54.04 63.9602 54.6 63.5802 55C63.1702 55.39 62.6102 55.6201 62.0502 55.6201Z" fill="#F9EAB0"/>
<path d="M17.0105 55.6201H14.8705C13.6905 55.6201 12.7305 54.6601 12.7305 53.4801C12.7305 52.3001 13.6905 51.3401 14.8705 51.3401H17.0105C18.1905 51.3401 19.1505 52.3001 19.1505 53.4801C19.1505 54.6601 18.1905 55.6201 17.0105 55.6201Z" fill="#F9EAB0"/>
<path d="M29.8802 55.6201H25.5902C24.4102 55.6201 23.4502 54.6601 23.4502 53.4801C23.4502 52.3001 24.4102 51.3401 25.5902 51.3401H29.8802C31.0602 51.3401 32.0202 52.3001 32.0202 53.4801C32.0202 54.6601 31.0602 55.6201 29.8802 55.6201Z" fill="#F9EAB0"/>
<path d="M40.6003 55.6201H38.4603C37.2803 55.6201 36.3203 54.6601 36.3203 53.4801C36.3203 52.3001 37.2803 51.3401 38.4603 51.3401H40.6003C41.7803 51.3401 42.7403 52.3001 42.7403 53.4801C42.7503 54.6601 41.7903 55.6201 40.6003 55.6201Z" fill="#F9EAB0"/>
<path d="M100.66 68.49C100.66 75.6 94.9004 81.36 87.7904 81.36C80.6804 81.36 74.9204 75.6 74.9204 68.49C74.9204 61.38 80.6804 55.62 87.7904 55.62C94.9004 55.62 100.66 61.38 100.66 68.49Z" fill="#DB4437"/>
<path d="M82.7804 80.35C78.1604 78.4 74.9204 73.82 74.9204 68.49C74.9204 64.31 76.9204 60.59 80.0104 58.24C80.0104 58.24 83.3404 55.68 86.5704 55.68C86.9704 55.68 87.3804 55.62 87.7904 55.62C94.9004 55.62 100.66 61.38 100.66 68.49" stroke="#1C1C1C" stroke-width="3" stroke-miterlimit="10" stroke-linecap="round" stroke-linejoin="round"/>
<path d="M100.66 68.4901C100.66 75.6001 94.9 81.3601 87.79 81.3601" stroke="#1C1C1C" stroke-width="3" stroke-miterlimit="10" stroke-linecap="round" stroke-linejoin="round"/>
<path d="M115.67 68.49C115.67 75.6 109.91 81.36 102.8 81.36C95.6902 81.36 89.9302 75.6 89.9302 68.49C89.9302 61.38 95.6902 55.62 102.8 55.62C109.91 55.62 115.67 61.38 115.67 68.49Z" fill="#4285F4"/>
<path d="M90.79 63.86C92.65 59.04 97.33 55.62 102.8 55.62C109.91 55.62 115.67 61.38 115.67 68.49" stroke="#1C1C1C" stroke-width="3" stroke-miterlimit="10" stroke-linecap="round" stroke-linejoin="round"/>
<path d="M107.95 80.29C106.37 80.98 104.63 81.36 102.8 81.36C96.5902 81.36 91.4102 76.96 90.2002 71.11" stroke="#1C1C1C" stroke-width="3" stroke-miterlimit="10" stroke-linecap="round" stroke-linejoin="round"/>
<path d="M115.67 68.4901C115.67 72.0901 114.19 75.3401 111.81 77.6801" stroke="#1C1C1C" stroke-width="3" stroke-miterlimit="10" stroke-linecap="round" stroke-linejoin="round"/>
</svg>
