<svg width="156" height="113" viewBox="0 0 156 113" fill="none" xmlns="http://www.w3.org/2000/svg">
<path d="M111.41 2.00127L2 61.1908L28.7257 110.592L138.135 51.4028L111.41 2.00127Z" fill="#0F9D58"/>
<path d="M114.854 8.33997L138.154 51.4L28.7336 110.6L12.4736 80.53" stroke="#1C1C1C" stroke-width="3" stroke-miterlimit="10" stroke-linecap="round" stroke-linejoin="round"/>
<path d="M9.90367 75.78L2.01367 61.19L111.424 2L112.274 3.56" stroke="#1C1C1C" stroke-width="3" stroke-miterlimit="10" stroke-linecap="round" stroke-linejoin="round"/>
<path d="M113.964 55.78L45.6435 92.74L45.5235 92.52C42.2735 86.5 34.7535 84.27 28.7335 87.52L28.5135 87.64L21.1035 73.94L21.2935 73.84C27.3335 70.6 29.5935 63.06 26.3335 57.03L26.2135 56.81L94.5635 19.83L94.7035 20.09C97.9535 26.11 105.474 28.34 111.494 25.09L111.684 24.99L119.154 38.79L118.934 38.91C112.864 42.18 110.644 49.76 113.964 55.78Z" fill="#F9EAB0"/>
<path d="M83.1038 26.03L94.5538 19.83L94.6938 20.09C97.9438 26.11 105.464 28.34 111.484 25.09L111.674 24.99L119.144 38.79L118.924 38.91C112.874 42.18 110.654 49.76 113.974 55.78L45.6538 92.74L45.5338 92.52C42.2838 86.5 34.7638 84.27 28.7438 87.52L28.5238 87.64L21.1138 73.94L21.3038 73.84C27.3438 70.6 29.6038 63.06 26.3438 57.03L26.2238 56.81L77.5738 29.03" stroke="#1C1C1C" stroke-width="3" stroke-miterlimit="10" stroke-linecap="round" stroke-linejoin="round"/>
<path d="M75.1838 65.73C69.9738 68.55 63.4638 66.61 60.6438 61.4C57.8238 56.19 59.7638 49.68 64.9738 46.86C70.1838 44.04 76.6938 45.98 79.5138 51.19C82.3338 56.4 80.3938 62.91 75.1838 65.73Z" fill="#4285F4"/>
<path d="M75.1838 65.73C69.9738 68.55 63.4638 66.61 60.6438 61.4C57.8238 56.19 59.7638 49.68 64.9738 46.86C70.1838 44.04 76.6938 45.98 79.5138 51.19C82.3338 56.4 80.3938 62.91 75.1838 65.73Z" stroke="#1C1C1C" stroke-width="3" stroke-miterlimit="10" stroke-linecap="round" stroke-linejoin="round"/>
<path d="M136.647 24.9876L15.9419 55.0676L29.5238 109.569L150.229 79.4894L136.647 24.9876Z" fill="#0F9D58"/>
<path d="M138.654 33.07L150.224 79.51L29.5137 109.59L24.8037 90.68" stroke="#1C1C1C" stroke-width="3" stroke-miterlimit="10" stroke-linecap="round" stroke-linejoin="round"/>
<path d="M104.273 33.07L136.643 25.01L137.703 29.26" stroke="#1C1C1C" stroke-width="3" stroke-miterlimit="10" stroke-linecap="round" stroke-linejoin="round"/>
<path d="M15.9336 55.08L97.2936 34.81" stroke="#1C1C1C" stroke-width="3" stroke-miterlimit="10" stroke-linecap="round" stroke-linejoin="round"/>
<path d="M23.4837 85.39L17.0337 59.49" stroke="#1C1C1C" stroke-width="3" stroke-miterlimit="10" stroke-linecap="round" stroke-linejoin="round"/>
<path d="M125.704 77.73L50.3337 96.51L50.2737 96.26C48.6237 89.62 41.9037 85.58 35.2637 87.24L35.0137 87.3L31.2437 72.19L31.4537 72.14C38.1137 70.5 42.1737 63.77 40.5137 57.12L40.4537 56.87L115.864 38.08L115.934 38.37C117.584 45.01 124.304 49.05 130.944 47.39L131.154 47.34L134.944 62.57L134.694 62.63C128.034 64.29 123.994 71.07 125.704 77.73Z" fill="#F9EAB0"/>
<path d="M85.8135 45.57L115.863 38.08L115.933 38.37C116.343 40.03 117.073 41.53 118.043 42.81" stroke="#1C1C1C" stroke-width="3" stroke-miterlimit="10" stroke-linecap="round" stroke-linejoin="round"/>
<path d="M124.643 47.31C126.633 47.86 128.793 47.93 130.943 47.39L131.153 47.34L134.943 62.57L134.693 62.63C128.023 64.29 123.983 71.07 125.693 77.73L50.3234 96.51L50.2634 96.26C48.6134 89.62 41.8934 85.58 35.2534 87.24L35.0034 87.3L31.2334 72.19L31.4434 72.14C38.1034 70.5 42.1634 63.77 40.5034 57.12L40.4434 56.87L81.3434 46.68" stroke="#1C1C1C" stroke-width="3" stroke-miterlimit="10" stroke-linecap="round" stroke-linejoin="round"/>
<path d="M85.6738 77.7C79.9238 79.13 74.1038 75.63 72.6738 69.89C71.2438 64.14 74.7438 58.32 80.4838 56.89C86.2338 55.46 92.0538 58.96 93.4838 64.7C94.9238 70.45 91.4238 76.27 85.6738 77.7Z" fill="#4285F4"/>
<path d="M85.6738 77.7C79.9238 79.13 74.1038 75.63 72.6738 69.89C71.2438 64.14 74.7438 58.32 80.4838 56.89C86.2338 55.46 92.0538 58.96 93.4838 64.7C94.9238 70.45 91.4238 76.27 85.6738 77.7Z" stroke="#1C1C1C" stroke-width="3" stroke-miterlimit="10" stroke-linecap="round" stroke-linejoin="round"/>
<path d="M154.283 54.21H29.8833V110.38H154.283V54.21Z" fill="#0F9D58"/>
<path d="M38.4033 54.21H104.273" stroke="#1C1C1C" stroke-width="3" stroke-miterlimit="10" stroke-linecap="round" stroke-linejoin="round"/>
<path d="M80.1033 110.38H29.8833V54.21H32.9533" stroke="#1C1C1C" stroke-width="3" stroke-miterlimit="10" stroke-linecap="round" stroke-linejoin="round"/>
<path d="M154.283 64.77V110.38H87.7632" stroke="#1C1C1C" stroke-width="3" stroke-miterlimit="10" stroke-linecap="round" stroke-linejoin="round"/>
<path d="M112.273 54.21H154.283V59.49" stroke="#1C1C1C" stroke-width="3" stroke-miterlimit="10" stroke-linecap="round" stroke-linejoin="round"/>
<path d="M130.924 102.72H53.2435V102.47C53.2435 95.63 47.6935 90.08 40.8535 90.08H40.6035V74.51H40.8135C47.6735 74.53 53.2435 68.98 53.2435 62.12V61.87H130.954V62.17C130.954 69.01 136.504 74.56 143.344 74.56H143.564V90.25H143.314C136.424 90.24 130.864 95.85 130.924 102.72Z" fill="#F9EAB0"/>
<path d="M64.6133 61.87H73.1233" stroke="#1C1C1C" stroke-width="3" stroke-miterlimit="10" stroke-linecap="round" stroke-linejoin="round"/>
<path d="M47.9533 92.32C45.9433 90.91 43.5033 90.09 40.8633 90.09H40.6133V74.52H40.8233C47.6833 74.54 53.2533 68.99 53.2533 62.13V61.88H58.6633" stroke="#1C1C1C" stroke-width="3" stroke-miterlimit="10" stroke-linecap="round" stroke-linejoin="round"/>
<path d="M113.803 102.72H53.2435V102.47C53.2435 100.37 52.7235 98.39 51.7935 96.66" stroke="#1C1C1C" stroke-width="3" stroke-miterlimit="10" stroke-linecap="round" stroke-linejoin="round"/>
<path d="M143.554 82.3V90.2501H143.304C136.424 90.2501 130.864 95.8501 130.924 102.73H121.124" stroke="#1C1C1C" stroke-width="3" stroke-miterlimit="10" stroke-linecap="round" stroke-linejoin="round"/>
<path d="M80.1035 61.87H130.954V62.17C130.954 69.01 136.504 74.56 143.344 74.56H143.564V77.71" stroke="#1C1C1C" stroke-width="3" stroke-miterlimit="10" stroke-linecap="round" stroke-linejoin="round"/>
<path d="M92.0833 93.02C86.1633 93.02 81.3633 88.22 81.3633 82.3C81.3633 76.38 86.1633 71.58 92.0833 71.58C98.0033 71.58 102.803 76.38 102.803 82.3C102.803 88.22 98.0033 93.02 92.0833 93.02Z" fill="#4285F4"/>
<path d="M102.353 85.39C101.023 89.8 96.9333 93.02 92.0833 93.02C86.1633 93.02 81.3633 88.22 81.3633 82.3C81.3633 76.38 86.1633 71.58 92.0833 71.58C97.2633 71.58 101.593 75.26 102.593 80.14" stroke="#1C1C1C" stroke-width="3" stroke-miterlimit="10" stroke-linecap="round" stroke-linejoin="round"/>
</svg>
