<svg xmlns="http://www.w3.org/2000/svg" xmlns:xlink="http://www.w3.org/1999/xlink" width="82" height="82" viewBox="0 0 82 82"><defs><style>.a,.i{fill:#fff;}.a{stroke:#707070;}.b{clip-path:url(#a);}.c{fill:#db2116;}.d{fill:#ff3a2f;}.e{fill:#ffba48;}.f{fill:#ff9a42;}.g{fill:#2fb3ea;}.h{fill:#25d4f2;}.j{fill:#0abf52;}.k{fill:#ff7a3c;}.l{fill:#1da575;}</style><clipPath id="a"><rect class="a" width="82" height="82" transform="translate(167 283)"/></clipPath></defs><g class="b" transform="translate(-167 -283)"><g transform="translate(167 283)"><path class="c" d="M62.7,30.085H57.9V56.671h4.8a13.293,13.293,0,1,0,0-26.586Z"/><path class="d" d="M71.189,43.378A13.293,13.293,0,0,0,57.9,30.085H19.3a13.293,13.293,0,0,0,0,26.586H57.9A13.293,13.293,0,0,0,71.189,43.378Z"/><path class="e" d="M60.3,15.615A20.507,20.507,0,0,0,41,29.188,20.5,20.5,0,1,0,12.338,54.356l8.229-2.587A15.7,15.7,0,1,1,37.4,36.115H44.6a15.7,15.7,0,1,1,31.39,0c0-11.322-4.892-20.5-15.7-20.5Z"/><path class="f" d="M60.3,15.615c8.668,0,15.7,9.178,15.7,20.5A15.7,15.7,0,0,1,61.433,51.769l8.229,2.587A20.5,20.5,0,0,0,60.3,15.615Z"/><path class="g" d="M41,8.408l-1.6,4.8,1.6,4.8a4.8,4.8,0,1,0,0-9.609Z"/><path class="h" d="M36.2,13.213a4.8,4.8,0,0,0,4.8,4.8V8.408A4.8,4.8,0,0,0,36.2,13.213Z"/><path class="f" d="M41,18.018a4.8,4.8,0,0,0-4.8,4.8V51.971H45.8V22.822A4.8,4.8,0,0,0,41,18.018Z"/><path class="d" d="M59.7,52.663,41,51.971l-18.7.692-9.349,4.112L41,66.385l28.047-9.609Z"/><path class="e" d="M69.047,56.775A14.871,14.871,0,0,1,59.7,53.464a14.853,14.853,0,0,1-18.7,0,14.853,14.853,0,0,1-18.7,0A14.856,14.856,0,0,1,1.8,51.737a2.4,2.4,0,0,1,3.6-3.178,10.054,10.054,0,0,0,15.095,0,2.4,2.4,0,0,1,3.6,0,10.054,10.054,0,0,0,15.095,0,2.4,2.4,0,0,1,3.6,0,10.054,10.054,0,0,0,15.095,0,2.4,2.4,0,0,1,3.6,0,10.054,10.054,0,0,0,15.095,0,2.4,2.4,0,1,1,3.6,3.178A14.877,14.877,0,0,1,69.047,56.775Z"/><path class="f" d="M63.982,59.178h9.609V78.4H63.982Z"/><path class="e" d="M8.408,59.178H68.787V78.4H8.408Z"/><circle class="i" cx="2.402" cy="2.402" r="2.402" transform="translate(53.692 66.385)"/><circle class="i" cx="2.402" cy="2.402" r="2.402" transform="translate(23.503 66.385)"/><path class="d" d="M43.4,66.385H38.6a2.4,2.4,0,0,0,0,4.8h4.8a2.4,2.4,0,0,0,0-4.8Z"/><path class="j" d="M13.213,66.385h-4.8a2.4,2.4,0,0,0,0,4.8h4.8a2.4,2.4,0,0,0,0-4.8Z"/><path class="k" d="M73.592,56.775h-4.8v4.8h4.8a2.4,2.4,0,1,0,0-4.8Z"/><path class="f" d="M71.189,59.178a2.4,2.4,0,0,0-2.4-2.4H8.408a2.4,2.4,0,1,0,0,4.8H68.787A2.4,2.4,0,0,0,71.189,59.178Z"/><path class="k" d="M73.592,75.994h-4.8v4.8h4.8a2.4,2.4,0,0,0,0-4.8Z"/><path class="f" d="M71.189,78.4a2.4,2.4,0,0,0-2.4-2.4H8.408a2.4,2.4,0,1,0,0,4.8H68.787A2.4,2.4,0,0,0,71.189,78.4Z"/><path class="l" d="M73.592,66.385h-4.8v4.8h4.8a2.4,2.4,0,0,0,0-4.8Z"/><circle class="j" cx="2.402" cy="2.402" r="2.402" transform="translate(66.385 66.385)"/><circle cx="1.201" cy="1.201" r="1.201" transform="translate(39.799 21.621)"/><circle cx="1.201" cy="1.201" r="1.201" transform="translate(39.799 31.68)"/><circle cx="1.201" cy="1.201" r="1.201" transform="translate(39.799 41.74)"/><path d="M56.095,65.183a3.6,3.6,0,1,0,3.6,3.6A3.607,3.607,0,0,0,56.095,65.183Zm0,4.8a1.2,1.2,0,1,1,1.2-1.2A1.2,1.2,0,0,1,56.095,69.988Z"/><path d="M25.905,65.183a3.6,3.6,0,1,0,3.6,3.6A3.607,3.607,0,0,0,25.905,65.183Zm0,4.8a1.2,1.2,0,1,1,1.2-1.2A1.2,1.2,0,0,1,25.905,69.988Z"/><path d="M43.4,65.183H38.6a3.6,3.6,0,0,0,0,7.207h4.8a3.6,3.6,0,0,0,0-7.207Zm0,4.8H38.6a1.2,1.2,0,0,1,0-2.4h4.8a1.2,1.2,0,0,1,0,2.4Z"/><path d="M80.78,47.446a3.576,3.576,0,0,0-1.506-.789A21.494,21.494,0,0,0,82,36.115,21.7,21.7,0,0,0,46.122,19.69,6.053,6.053,0,0,0,44.6,18.018a6,6,0,0,0-2.4-10.69V4.8h1.2a1.2,1.2,0,0,0,0-2.4H42.2V1.2a1.2,1.2,0,1,0-2.4,0V2.4H38.6a1.2,1.2,0,0,0,0,2.4h1.2V7.328a6,6,0,0,0-2.4,10.69,6.053,6.053,0,0,0-1.522,1.672A21.7,21.7,0,0,0,0,36.115,21.492,21.492,0,0,0,2.725,46.654,3.6,3.6,0,0,0,.9,52.532a16.088,16.088,0,0,0,5.18,3.9,3.6,3.6,0,0,0,1.125,6.145v2.815a3.6,3.6,0,0,0,0,6.795V75a3.6,3.6,0,0,0,1.2,7H73.592a3.6,3.6,0,0,0,1.2-7V72.184a3.6,3.6,0,0,0,0-6.795V62.574a3.6,3.6,0,0,0,1.126-6.145,16.089,16.089,0,0,0,5.18-3.9,3.6,3.6,0,0,0-.319-5.086ZM60.3,16.816a19.321,19.321,0,0,1,19.3,19.3,19.116,19.116,0,0,1-3.96,11.71,8.867,8.867,0,0,1-6.59,2.944c-.111,0-.222,0-.333-.009a17.06,17.06,0,0,0,5.125-4.537A16.9,16.9,0,0,0,47.006,25.678V22.822a6.041,6.041,0,0,0-.037-.656A19.142,19.142,0,0,1,60.3,16.816ZM47.006,31.286H62.7a12.107,12.107,0,0,1,11.587,8.642,14.405,14.405,0,0,1-9.239,9.883A8.883,8.883,0,0,1,62.4,47.764a3.6,3.6,0,0,0-5.4,0,8.837,8.837,0,0,1-9.99,2.345Zm.73-2.4a14.5,14.5,0,0,1,27.038,6.477A14.522,14.522,0,0,0,62.7,28.884ZM37.4,13.213a3.6,3.6,0,1,1,3.6,3.6A3.607,3.607,0,0,1,37.4,13.213ZM41,19.219a3.607,3.607,0,0,1,3.6,3.6V48.646a8.866,8.866,0,0,1-.9-.882,3.6,3.6,0,0,0-5.4,0,8.883,8.883,0,0,1-.9.882V22.822A3.607,3.607,0,0,1,41,19.219ZM16.951,49.811a14.406,14.406,0,0,1-9.24-9.883A12.107,12.107,0,0,1,19.3,31.286h15.7V50.11A8.837,8.837,0,0,1,25,47.764a3.6,3.6,0,0,0-5.4,0A8.879,8.879,0,0,1,16.951,49.811ZM7.227,35.361a14.5,14.5,0,0,1,27.038-6.477H19.3A14.522,14.522,0,0,0,7.227,35.361ZM21.7,16.816a19.141,19.141,0,0,1,13.329,5.35,6.038,6.038,0,0,0-.037.656v2.855A16.9,16.9,0,0,0,8.161,46.223a17.06,17.06,0,0,0,5.125,4.537c-.111,0-.221.009-.333.009a8.867,8.867,0,0,1-6.59-2.944A19.115,19.115,0,0,1,2.4,36.115a19.32,19.32,0,0,1,19.3-19.3ZM73.592,79.6H8.408a1.2,1.2,0,1,1,0-2.4H73.592a1.2,1.2,0,0,1,0,2.4Zm0-9.609h-4.8a1.2,1.2,0,0,1,0-2.4,1.2,1.2,0,1,0,0-2.4,3.6,3.6,0,0,0,0,7.207h3.6v2.4H9.609v-2.4h3.6a3.6,3.6,0,1,0,0-7.207,1.2,1.2,0,1,0,0,2.4,1.2,1.2,0,1,1,0,2.4h-4.8a1.2,1.2,0,1,1,0-2.4,1.2,1.2,0,0,0,1.2-1.2v-3.6H72.39v3.6a1.2,1.2,0,0,0,1.2,1.2,1.2,1.2,0,0,1,0,2.4Zm0-12.012a1.2,1.2,0,0,1,0,2.4H8.408a1.2,1.2,0,0,1,0-2.4Zm-52.2-2.4c.309-.191.613-.39.909-.6.3.212.6.411.909.6Zm18.7,0c.309-.191.613-.39.91-.6.3.212.6.411.91.6Zm18.7,0c.309-.191.613-.39.91-.6.3.212.6.411.91.6ZM79.3,50.943A13.655,13.655,0,0,1,60.453,52.53a1.2,1.2,0,0,0-1.511,0,13.652,13.652,0,0,1-17.187,0,1.2,1.2,0,0,0-1.511,0,13.652,13.652,0,0,1-17.187,0,1.2,1.2,0,0,0-1.511,0A13.655,13.655,0,0,1,2.7,50.943a1.2,1.2,0,0,1,1.8-1.589,11.255,11.255,0,0,0,16.9,0,1.2,1.2,0,0,1,1.8,0,11.255,11.255,0,0,0,16.9,0,1.2,1.2,0,0,1,1.8,0,11.255,11.255,0,0,0,16.9,0,1.2,1.2,0,0,1,1.8,0,11.255,11.255,0,0,0,16.9,0,1.2,1.2,0,0,1,1.8,1.589Z"/></g></g></svg>