<svg xmlns="http://www.w3.org/2000/svg" width="210.182" height="257.607" viewBox="0 0 210.182 257.607"><defs><style>.a,.d,.f{fill:none;stroke:#1c1c1c;stroke-miterlimit:10;}.a{stroke-width:2px;}.b{fill:#f7941d;}.c{fill:#cc7619;}.d{stroke-linecap:round;}.d,.f{stroke-width:5px;}.e{fill:#ffb45a;}</style></defs><g transform="translate(-128.484 -301.1)"><path class="a" d="M356.95,1085.45s13.3,5.7,15.379,19.734-15.088,33.218,1.913,48.124,44.534,21.994,42.749,41.437" transform="translate(-206.386 -783.431)"/><path class="b" d="M538.8,1215.83l-125.709,82.427a6.953,6.953,0,0,1-9.694-2.092l-37.479-58.738-12.487-19.561a7.149,7.149,0,0,1,2.063-9.827l58.857-38.6,66.853-43.841a6.979,6.979,0,0,1,9.712,2.109l.968,1.518,6.882,10.789v.019l42.116,65.994A7.131,7.131,0,0,1,538.8,1215.83Z" transform="translate(-210.565 -751.362)"/><path class="c" d="M500,1139.653h0l-44.042,88.759-88.558,7.161-12.464-19.26a6.981,6.981,0,0,1,2.059-9.676l58.747-38.011,77.37-39.6Z" transform="translate(-206.987 -745.255)"/><path class="d" d="M510.121,1183.5l-115.526,74.727a4.857,4.857,0,0,1-6.724-1.439l-24.18-37.373" transform="translate(-200.843 -702.817)"/><path class="d" d="M369.553,1256.016l-22.54-34.858a4.858,4.858,0,0,1,1.439-6.724l140.18-90.671a4.858,4.858,0,0,1,6.724,1.439l55.212,85.369a4.858,4.858,0,0,1-1.439,6.724l-8.546,5.539" transform="translate(-215.198 -752.574)"/><path class="e" d="M92.776,100.281l-82.113,9.554c-3,.4-13.73-14.2-9.814-17.042L130.3,1.017c3.935-2.838,5.12.762,7.376,4.685-1.85,4.725,5.342,3.265,3.832,6.144L98.986,93.54C97.569,96.274,95.629,99.905,92.776,100.281Z" transform="matrix(0.999, 0.035, -0.035, 0.999, 144.55, 365.492)"/><path class="f" d="M451.566,1221.511l-96.758,7.089a4.843,4.843,0,0,1-4.41-2.187l-3.407-5.266a4.834,4.834,0,0,1,1.439-6.687l140.235-90.708a4.834,4.834,0,0,1,6.687,1.439l3.426,5.3a4.845,4.845,0,0,1,.237,4.866L455.5,1218.924A4.81,4.81,0,0,1,451.566,1221.511Z" transform="translate(-215.215 -752.58)"/></g></svg>