<svg id="Capa_1" enable-background="new 0 0 512 512" height="512" viewBox="0 0 512 512" width="512" xmlns="http://www.w3.org/2000/svg"><path d="m95.677 472.435c0 17.709 14.356 32.065 32.065 32.065h256.516c17.709 0 32.065-14.356 32.065-32.065v-332.787c0-12.756-5.067-24.99-14.087-34.01l-11.906-11.906c-9.02-9.02-14.087-21.253-14.087-34.01v-8.456c0-5.546 2.704-10.979 7.587-13.607 5.028-2.706 8.445-8.017 8.445-14.127 0-8.854-7.178-16.032-16.032-16.032h-240.485c-8.854 0-16.032 7.178-16.032 16.032 0 6.109 3.417 11.421 8.445 14.127 4.883 2.628 7.587 8.062 7.587 13.607v8.456c0 12.756-5.067 24.99-14.087 34.01l-11.906 11.906c-9.02 9.02-14.087 21.253-14.087 34.01v332.787z" fill="#edf4ff"/><path d="m175.839 464.419v-456.919h-39.223c-7.986 0-15.387 5.457-16.67 13.339-1.167 7.171 2.428 13.646 8.123 16.765 4.901 2.683 7.689 8.066 7.689 13.653v7.43c0 13.793-5.067 26.026-14.087 35.045l-11.907 11.906c-9.02 9.019-14.087 21.252-14.087 34.008v332.789c0 17.709 14.356 32.065 32.065 32.065h256.516c14.924 0 27.355-10.944 30.931-24.75h-223.318c-8.854 0-16.032-6.476-16.032-15.331z" fill="#dbeaff"/><circle cx="215.919" cy="312.113" fill="#ffe09f" r="32.065"/><circle cx="296.081" cy="231.952" fill="#f6d190" r="32.065"/><ellipse cx="234.827" cy="138.634" fill="#ffe09f" rx="32.065" ry="20.527" transform="matrix(.707 -.707 .707 .707 -29.25 206.653)"/><path d="m247.984 312.113h64.129v32.065h-64.129z" fill="#f6d190"/><path d="m247.984 312.113h24.048v32.065h-24.048z" fill="#ecbd83"/><path d="m151.79 344.177h64.129v32.065h-64.129z" fill="#ffe09f"/><path d="m151.79 344.177h24.048v32.065h-24.048z" fill="#f6d190"/><path d="m215.919 344.177h64.129v32.065h-64.129z" fill="#ffe09f"/><path d="m215.919 344.177h24.048v32.065h-24.048z" fill="#f6d190"/><path d="m280.048 344.177h64.129v32.065h-64.129z" fill="#ffe09f"/><path d="m280.048 344.177h24.048v32.065h-24.048z" fill="#f6d190"/><path d="m127.742 408.306h64.129v32.065h-64.129z" fill="#ffe09f"/><path d="m127.742 408.306h24.048v32.065h-24.048z" fill="#f6d190"/><path d="m191.871 408.306h64.129v32.065h-64.129z" fill="#ffe09f"/><path d="m191.871 408.306h24.048v32.065h-24.048z" fill="#f6d190"/><path d="m256 408.306h64.129v32.065h-64.129z" fill="#ffe09f"/><path d="m256 408.306h24.048v32.065h-24.048z" fill="#f6d190"/><path d="m320.129 408.306h64.129v32.065h-64.129z" fill="#ffe09f"/><path d="m320.129 408.306h24.048v32.065h-24.048z" fill="#f6d190"/><path d="m304.097 376.242h64.129v32.065h-64.129z" fill="#f6d190"/><path d="m304.097 376.242h24.048v32.065h-24.048z" fill="#ecbd83"/><path d="m239.968 376.242h64.129v32.065h-64.129z" fill="#f6d190"/><path d="m239.968 376.242h24.048v32.065h-24.048z" fill="#ecbd83"/><path d="m175.839 376.242h64.129v32.065h-64.129z" fill="#f6d190"/><path d="m175.839 376.242h24.048v32.065h-24.048z" fill="#ecbd83"/><path d="m272.032 440.371h64.129v32.065h-64.129z" fill="#f6d190"/><path d="m272.032 440.371h24.048v32.065h-24.048z" fill="#ecbd83"/><path d="m207.903 440.371h64.129v32.065h-64.129z" fill="#f6d190"/><path d="m207.903 440.371h24.048v32.065h-24.048z" fill="#ecbd83"/><path d="m143.774 440.371h64.129v32.065h-64.129z" fill="#f6d190"/><path d="m143.774 440.371h24.048v32.065h-24.048z" fill="#ecbd83"/><path d="m407.539 100.335-11.906-11.906c-7.668-7.668-11.891-17.863-11.891-28.706v-13.884c9.311-3.138 16.033-11.952 16.033-22.307-.001-12.976-10.557-23.532-23.533-23.532h-240.484c-12.976 0-23.533 10.556-23.533 23.532 0 10.355 6.722 19.169 16.033 22.307v13.884c0 10.844-4.223 21.038-11.891 28.706l-11.906 11.906c-10.501 10.5-16.284 24.462-16.284 39.313v276.675c0 4.142 3.358 7.5 7.5 7.5s7.5-3.358 7.5-7.5v-276.675c0-10.844 4.223-21.039 11.891-28.706l11.906-11.906c10.501-10.501 16.284-24.462 16.284-39.313v-12.659h176.871c4.142 0 7.5-3.358 7.5-7.5s-3.358-7.5-7.5-7.5h-184.371c-4.705 0-8.533-3.828-8.533-8.532 0-4.705 3.828-8.532 8.533-8.532h240.483c4.705 0 8.533 3.827 8.533 8.532s-3.828 8.532-8.533 8.532h-24.048c-4.142 0-7.5 3.358-7.5 7.5s3.358 7.5 7.5 7.5h16.548v12.658c0 14.85 5.783 28.812 16.284 39.313l11.906 11.906c7.668 7.667 11.891 17.862 11.891 28.706v332.787c0 13.545-11.02 24.564-24.564 24.564h-256.516c-13.545 0-24.564-11.02-24.564-24.564v-24.048c0-4.142-3.358-7.5-7.5-7.5s-7.5 3.358-7.5 7.5v24.048c0 21.816 17.749 39.564 39.564 39.564h256.517c21.816 0 39.564-17.749 39.564-39.564v-332.786c0-14.85-5.783-28.812-16.284-39.313z"/><path d="m127.742 400.806c-4.142 0-7.5 3.358-7.5 7.5v32.065c0 4.142 3.358 7.5 7.5 7.5h8.533v24.564c0 4.142 3.358 7.5 7.5 7.5h192.387c4.142 0 7.5-3.358 7.5-7.5v-24.564h40.597c4.142 0 7.5-3.358 7.5-7.5v-32.065c0-4.142-3.358-7.5-7.5-7.5h-8.533v-24.564c0-4.142-3.358-7.5-7.5-7.5h-16.548v-24.564c0-4.142-3.358-7.5-7.5-7.5h-24.564v-24.565c0-4.142-3.358-7.5-7.5-7.5h-57.351c-3.516-18.24-19.591-32.064-38.842-32.064-21.816 0-39.564 17.749-39.564 39.564 0 9.277 3.217 17.811 8.584 24.565h-33.148c-4.142 0-7.5 3.358-7.5 7.5v32.064c0 4.142 3.358 7.5 7.5 7.5h16.548v17.064zm7.5 15h49.129v17.064h-49.129zm88.177-64.129h49.129v17.064h-49.129zm24.049 32.065h49.129v17.064h-49.129zm16.032 49.129v-17.064h49.129v17.064zm-15-17.064v17.064h-49.129v-17.064zm-97.226 32.064h49.129v17.064h-49.129zm64.129 0h49.129v17.064h-49.129zm113.258 17.065h-49.129v-17.064h49.129zm48.097-32.065h-49.129v-17.064h49.129zm-16.032-32.065h-49.129v-17.064h49.129zm-24.049-32.064h-49.129v-17.064h49.129zm-32.064-32.065h-49.129v-17.065h49.129zm-113.258-24.564c0-13.545 11.02-24.564 24.564-24.564s24.564 11.02 24.564 24.564-11.02 24.565-24.564 24.565-24.564-11.02-24.564-24.565zm-32.064 39.564h49.129v17.064h-49.129zm24.048 32.065h49.129v17.064h-49.129z"/><path d="m296.081 271.516c21.816 0 39.564-17.749 39.564-39.564s-17.749-39.564-39.564-39.564-39.564 17.749-39.564 39.564 17.748 39.564 39.564 39.564zm0-64.129c13.545 0 24.564 11.02 24.564 24.564s-11.02 24.564-24.564 24.564-24.564-11.02-24.564-24.564 11.019-24.564 24.564-24.564z"/><path d="m215.01 118.816c-15.688 15.688-19.271 36.681-8.159 47.794 4.353 4.353 10.218 6.45 16.689 6.45 10.052 0 21.562-5.065 31.105-14.608 15.688-15.688 19.271-36.681 8.159-47.794-11.113-11.113-32.106-7.529-47.794 8.158zm38.787 12.442c-1.22 5.559-4.777 11.605-9.759 16.587s-11.028 8.539-16.587 9.759c-4.374.959-8.016.377-9.994-1.6-4.348-4.348-1.783-16.64 8.159-26.581 6.848-6.847 14.81-10.195 20.523-10.195 2.582 0 4.705.684 6.058 2.037 1.977 1.976 2.56 5.618 1.6 9.993z"/></svg>