<svg xmlns="http://www.w3.org/2000/svg" width="390.924" height="497.802" viewBox="0 0 390.924 497.802"><defs><style>.a{fill:#ffd77d;}.b{fill:#ffd369;opacity:0.2;}.c{fill:#0f9d58;}.d{fill:#f4f5f5;}.aa,.ab,.ac,.ae,.e,.k,.m,.q,.r,.v,.w{fill:none;stroke-miterlimit:10;}.e,.k,.m,.v,.w{stroke:#000;}.ac,.e,.k,.m,.q,.v,.w{stroke-linecap:round;stroke-linejoin:round;}.e,.q,.r{stroke-width:1.773px;}.f{fill:#c49a6c;}.g{fill:#fbb040;}.h{fill:#e59c3c;}.i{fill:#52d2ff;}.j,.p{fill:#fff;}.j{opacity:0.5;}.k{stroke-width:1.731px;}.l{fill:#ccf2ff;}.m{stroke-width:1.856px;}.n{fill:#f96;}.o{fill:#f7941d;}.ac,.ae,.q,.r{stroke:#1c1c1c;}.s{fill:#cc4825;}.t{fill:#f15a29;}.u{fill:#ffd2a6;}.v{stroke-width:1.33px;}.w{stroke-width:0.976px;}.x{fill:#145374;}.y{fill:#bbedff;opacity:0.55;}.z{fill:#e5825c;}.aa{stroke:#0f9d58;}.aa,.ab,.ac{stroke-width:2px;}.ab{stroke:#ffd77d;}.ad{fill:#f24840;}.ae{stroke-width:1.5px;}.af,.ag{fill:#093050;}.af{font-size:24px;font-family:sans-serif;font-weight : 600;opacity:0.4;}</style></defs><g transform="translate(-11.963 -50)"><g transform="translate(-15.055 -138.206)"><path class="a" d="M287.948,284.129a5.367,5.367,0,0,1-1.593,3.836.7.7,0,0,1-.1.087q-2.73-4.665-5.678-8.994a5.5,5.5,0,0,1,1.94-.358,5.438,5.438,0,0,1,5.429,5.429Z" transform="translate(21.185 4.188)"/><path class="b" d="M224.92,233.6c58.208,1.842,105.57,69.726,115.658,167.809s6.761,149.465,39.961,198.864S349.582,721.253,273.213,665s-108.929-64.785-131.89-68.578S61.845,610.59,40.814,575.353s-25.2-114.6,39.961-150.158,101.3-96.783,99.275-124.272S189.921,232.486,224.92,233.6Z" transform="translate(0 0.419)"/><path class="c" d="M333.96,549.94l-1.04,41.337h57.764s-3.847-18.789-19.146-27.782c-16.123-5.114-16.242-.509-16.242-.509S345.988,551.457,333.96,549.94Z" transform="translate(25.558 26.85)"/><path class="d" d="M332.91,553.69s17.142,3.587,23.871,12.06c10.1-4.984,26.72,6.2,34.305,25.041,0,0-7.336-32.6-35.92-29.072-5.624-6.36-19.8-13-22.256-11.063Z" transform="translate(25.557 26.881)"/><path class="e" d="M327.4,549.526s18.084-2.2,31.369,17.521" transform="translate(25.097 26.809)"/><g transform="translate(54.402 313.813)"><rect class="f" width="4.085" height="87.432" transform="translate(206.589 31.759)"/><path class="e" d="M247.179,401.39v22.592H241.1V336.55h6.079v59.769" transform="translate(-36.515 -304.791)"/><rect class="d" width="268.753" height="154.048" transform="translate(35.313 150.267)"/><line class="e" x1="50.699" transform="translate(131.695 304.315)"/><path class="e" d="M176.787,599.968H84.88V445.92H353.633V599.968H236.371" transform="translate(-49.567 -295.653)"/><line class="e" x2="10.445" transform="translate(79.89 119.104)"/><path class="g" d="M78.54,478.436,87.425,433.1H354.162l8.538,45.336" transform="translate(-50.097 -296.724)"/><path class="h" d="M334.489,433.1s7.477,44.263-20.479,45.336h29.017Z" transform="translate(-30.424 -296.724)"/><line class="e" x2="2.861" y2="15.213" transform="translate(309.743 166.498)"/><path class="e" d="M102.19,433.1h250l4.952,26.309" transform="translate(-48.121 -296.724)"/><path class="e" d="M83.32,452.008,87.026,433.1H95.9" transform="translate(-49.697 -296.724)"/><line class="e" y1="18.247" x2="3.576" transform="translate(28.443 163.464)"/><path class="h" d="M120.581,433.9s-8.365,43.385-36.321,44.469h28.432Z" transform="translate(-49.619 -296.658)"/><path class="h" d="M149.612,433.1s-4.5,44.263-32.452,45.336h28.432Z" transform="translate(-46.87 -296.724)"/><path class="h" d="M181.9,433.1s-4.5,44.263-32.452,45.336h29.733Z" transform="translate(-44.172 -296.724)"/><path class="h" d="M212.012,433.1s-4.5,44.263-32.452,45.336h32.626Z" transform="translate(-41.657 -296.724)"/><path class="h" d="M241.543,433.1s-.358,44.263-28.313,45.336h30.794Z" transform="translate(-38.844 -296.724)"/><path class="h" d="M271.217,433.1s5.689,44.263-22.267,45.336h29.017Z" transform="translate(-35.859 -296.724)"/><path class="h" d="M302.273,433.1s6.913,44.263-21.043,45.336h29.017Z" transform="translate(-33.162 -296.724)"/><line class="e" x1="6.241" y2="39.625" transform="translate(64.861 136.376)"/><line class="e" x1="0.412" y1="2.319" transform="translate(269.11 136.376)"/><line class="e" x1="0.661" y1="3.782" transform="translate(270.053 141.707)"/><line class="e" x1="5.645" y1="32.062" transform="translate(271.44 149.649)"/><line class="e" x1="3.099" y1="25.485" transform="translate(236.051 136.376)"/><line class="e" x1="1.961" y1="16.08" transform="translate(239.605 165.631)"/><line class="e" x1="1.008" y1="16.968" transform="translate(203.35 136.376)"/><line class="e" x1="0.358" y1="6.035" transform="translate(204.628 157.906)"/><line class="e" x1="0.867" y1="14.606" transform="translate(205.17 167.105)"/><line class="e" y1="45.336" transform="translate(170.518 136.376)"/><line class="e" y1="9.427" x2="0.574" transform="translate(137.156 136.376)"/><line class="e" y1="30.361" x2="1.831" transform="translate(134.999 151.35)"/><line class="e" y1="27.565" x2="1.983" transform="translate(100.759 136.376)"/><line class="e" y1="12.851" x2="0.921" transform="translate(99.481 168.86)"/><rect class="i" width="58.923" height="101.626" transform="translate(227.253 202.689)"/><path class="j" d="M311.159,594.253H298.991L262.02,534.928v-20.6Z" transform="translate(-34.767 -289.938)"/><path class="j" d="M320.633,560.267v22.1L265.73,494.3h14.346Z" transform="translate(-34.457 -291.611)"/><path class="k" d="M262.02,566.562V494.3h58.923v36.136" transform="translate(-34.767 -291.611)"/><path class="k" d="M320.943,532.62v60.1H262.02v-25.6" transform="translate(-34.767 -288.41)"/><rect class="l" width="135.476" height="99.741" transform="translate(63.962 188.96)"/><path class="m" d="M246.8,524.3v57.07H111.32V481.63H246.8v36.461" transform="translate(-47.358 -292.67)"/><rect class="n" width="135.476" height="43.374" transform="translate(63.962 245.326)"/><path class="e" d="M182.951,533.65h60.538v43.374H150.91" transform="translate(-44.05 -288.324)"/><path class="e" d="M146.243,577.025H111.32V533.65h67.733" transform="translate(-47.358 -288.324)"/><rect class="d" width="51.219" height="19.905" transform="translate(63.962 225.422)"/><rect class="e" width="51.219" height="19.905" transform="translate(63.962 225.422)"/><g transform="translate(0 237.243)"><path class="o" d="M108.919,526.19l4.973,65.945h-11.7" transform="translate(-48.121 -526.19)"/><path class="p" d="M52.29,594.8h53.679l7.119-68.61H58.694Z" transform="translate(-52.29 -526.19)"/><path class="q" d="M111.346,539.951l1.43-13.761H58.382L56.02,551.469" transform="translate(-51.978 -526.19)"/><line class="q" y1="24.304" x2="2.525" transform="translate(56.355 18.496)"/><path class="q" d="M53.287,580.6l-1,10.63h53.679l2.319-22.321" transform="translate(-52.29 -522.621)"/><line class="q" x1="2.308" y2="24.705" transform="translate(1.419 28.714)"/><path class="r" d="M108.919,526.19l4.973,65.945h-11.7" transform="translate(-48.121 -526.19)"/></g><g transform="translate(28.443 181.711)"><path class="s" d="M96.3,499.385h0A17.762,17.762,0,0,1,78.54,481.625V474.94h35.519v6.685A17.762,17.762,0,0,1,96.3,499.385Z" transform="translate(-78.54 -474.94)"/><path class="s" d="M129.079,499.385h0a17.762,17.762,0,0,1-17.759-17.759V474.94h35.519v6.685A17.762,17.762,0,0,1,129.079,499.385Z" transform="translate(-75.801 -474.94)"/><path class="s" d="M161.859,499.385h0A17.762,17.762,0,0,1,144.1,481.625V474.94h35.519v6.685A17.762,17.762,0,0,1,161.859,499.385Z" transform="translate(-73.063 -474.94)"/><path class="s" d="M194.639,499.385h0a17.762,17.762,0,0,1-17.759-17.759V474.94H212.4v6.685A17.755,17.755,0,0,1,194.639,499.385Z" transform="translate(-70.324 -474.94)"/><path class="s" d="M227.419,499.385h0a17.762,17.762,0,0,1-17.759-17.759V474.94h35.519v6.685A17.755,17.755,0,0,1,227.419,499.385Z" transform="translate(-67.585 -474.94)"/><path class="s" d="M260.2,499.385h0a17.762,17.762,0,0,1-17.759-17.759V474.94h35.519v6.685A17.748,17.748,0,0,1,260.2,499.385Z" transform="translate(-64.846 -474.94)"/><path class="s" d="M292.989,499.385h0a17.762,17.762,0,0,1-17.759-17.759V474.94h35.519v6.685A17.762,17.762,0,0,1,292.989,499.385Z" transform="translate(-62.107 -474.94)"/><path class="s" d="M325.769,499.385h0a17.762,17.762,0,0,1-17.759-17.759V474.94h35.519v6.685A17.762,17.762,0,0,1,325.769,499.385Z" transform="translate(-59.368 -474.94)"/></g><g transform="translate(32.962 186.089)"><path class="t" d="M112.822,478.99v5.58a13.672,13.672,0,0,1-13.664,13.674H96.384A13.674,13.674,0,0,1,82.71,484.57v-5.58Z" transform="translate(-82.71 -478.979)"/><path class="p" d="M111.741,478.99v5.58a13.672,13.672,0,0,1-13.664,13.674H95.65A24.48,24.48,0,0,0,108.1,478.99Z" transform="translate(-81.629 -478.979)"/><path class="t" d="M145.847,478.99v6.09a13.966,13.966,0,0,1-13.967,13.967h-1.842a12.473,12.473,0,0,1-1.279-.065,13.956,13.956,0,0,1-12.7-13.9v-6.09Z" transform="translate(-79.924 -478.979)"/><path class="p" d="M144.868,478.99v6.09A13.966,13.966,0,0,1,130.9,499.047h-1.842a12.473,12.473,0,0,1-1.279-.065c11.4-6,13.425-15.82,13.761-19.992Z" transform="translate(-78.944 -478.979)"/><path class="t" d="M178.63,478.99v5.624a14.437,14.437,0,0,1-14.444,14.433h-2.774a14.443,14.443,0,0,1-14.3-14.433V478.99Z" transform="translate(-77.329 -478.979)"/><path class="p" d="M177.528,478.99v5.624a14.437,14.437,0,0,1-14.444,14.433H160.31c11.518-6,13.566-15.874,13.9-20.057Z" transform="translate(-76.227 -478.979)"/><path class="t" d="M211.274,478.99v5.927a14.125,14.125,0,0,1-14.129,14.13H194.62a14.127,14.127,0,0,1-14.14-14.13V478.99Z" transform="translate(-74.541 -478.979)"/><path class="p" d="M210.134,478.99v5.927A14.125,14.125,0,0,1,196,499.047H194.13c11.518-5.992,13.566-15.874,13.9-20.057Z" transform="translate(-73.401 -478.979)"/><path class="t" d="M244.231,478.99v5.873a14.19,14.19,0,0,1-14.184,14.184h-2.633c-.152,0-.293,0-.455-.011a14.184,14.184,0,0,1-13.739-14.173V478.99Z" transform="translate(-71.806 -478.979)"/><path class="p" d="M243.172,478.99v5.873a14.19,14.19,0,0,1-14.184,14.184h-2.633c-.152,0-.293,0-.455-.011,11.486-6,13.534-15.874,13.869-20.046Z" transform="translate(-70.747 -478.979)"/><path class="t" d="M276.538,478.991v6.382a13.665,13.665,0,0,1-13.674,13.664h-2.319a9.672,9.672,0,0,1-.975-.043,13.664,13.664,0,0,1-12.7-13.631V478.98h29.668Z" transform="translate(-68.995 -478.98)"/><path class="p" d="M275.558,478.991v6.382a13.665,13.665,0,0,1-13.674,13.664h-2.319a9.672,9.672,0,0,1-.975-.043c11.453-5.992,13.479-15.842,13.815-20.013h3.153Z" transform="translate(-68.015 -478.98)"/><path class="t" d="M309.245,478.99v6.382a13.672,13.672,0,0,1-13.674,13.664h-2.286a13.672,13.672,0,0,1-13.674-13.664V478.99Z" transform="translate(-66.259 -478.979)"/><path class="p" d="M308.181,478.991v6.382a13.672,13.672,0,0,1-13.674,13.664H292.35c11.518-5.992,13.566-15.874,13.9-20.057h1.929Z" transform="translate(-65.195 -478.98)"/><path class="t" d="M342.594,478.99v6.155a13.9,13.9,0,0,1-13.9,13.9h-2.6a13.9,13.9,0,0,1-13.9-13.9V478.99Z" transform="translate(-63.537 -478.979)"/><path class="p" d="M341.473,478.99v6.154a13.9,13.9,0,0,1-13.9,13.9H325.61c11.518-5.992,13.566-15.874,13.9-20.056Z" transform="translate(-62.416 -478.979)"/></g><g transform="translate(28.443 181.7)"><path class="e" d="M104.166,497.554a17.724,17.724,0,0,1-7.867,1.831h0A17.762,17.762,0,0,1,78.54,481.625V474.94h35.519v6.685a17.707,17.707,0,0,1-6.155,13.447" transform="translate(-78.54 -474.929)"/><path class="e" d="M136.935,497.555a17.635,17.635,0,0,1-7.856,1.82h0a17.762,17.762,0,0,1-17.759-17.759V474.93h35.519v6.685A17.716,17.716,0,0,1,143.491,492" transform="translate(-75.801 -474.93)"/><path class="e" d="M159.8,499.266a17.756,17.756,0,0,1-15.7-17.64V474.94h35.519v6.685A17.762,17.762,0,0,1,164.406,499.2" transform="translate(-73.063 -474.929)"/><path class="e" d="M204.619,496.318a17.7,17.7,0,0,1-9.979,3.066h0a17.762,17.762,0,0,1-17.759-17.759V474.94H212.4v6.685a17.682,17.682,0,0,1-3.966,11.193" transform="translate(-70.324 -474.929)"/><path class="e" d="M238.98,495.116a17.677,17.677,0,0,1-11.551,4.269h0a17.762,17.762,0,0,1-17.759-17.759V474.94h35.519v6.685a17.733,17.733,0,0,1-3.37,10.413" transform="translate(-67.584 -474.929)"/><path class="e" d="M247.923,494.455a17.7,17.7,0,0,1-5.483-12.829V474.94h35.519v6.685A17.762,17.762,0,0,1,260.2,499.385h0a17.628,17.628,0,0,1-9.546-2.785" transform="translate(-64.846 -474.929)"/><path class="e" d="M293.78,474.94h16.968v6.686a17.762,17.762,0,0,1-17.759,17.759h0a17.762,17.762,0,0,1-17.759-17.759V474.94h13.414" transform="translate(-62.107 -474.929)"/><path class="e" d="M332.575,498.03a17.825,17.825,0,0,1-6.816,1.354h0A17.762,17.762,0,0,1,308,481.625V474.94h35.519v6.685a17.65,17.65,0,0,1-1.582,7.336" transform="translate(-59.369 -474.929)"/><path class="e" d="M335.9,492.98a18.868,18.868,0,0,1-2.59,2.048" transform="translate(-57.254 -473.422)"/></g><rect class="c" width="29.982" height="4.453" transform="translate(17.814 252.922)"/><rect class="c" width="29.982" height="4.659" transform="translate(15.852 265.957)"/><rect class="c" width="29.982" height="4.551" transform="translate(14.194 278.981)"/><rect class="c" width="29.982" height="4.757" transform="translate(12.829 292.017)"/><path class="q" d="M84.436,544.85H66.07v-5.96H98.923v5.96H90.2" transform="translate(-51.139 -287.886)"/><path class="q" d="M69.1,556.88H64.26v-5.97H97.124v5.97H72.571" transform="translate(-51.29 -286.882)"/><path class="q" d="M77.791,568.9H62.73v-5.96H95.594v5.96H81.811" transform="translate(-51.418 -285.877)"/><path class="q" d="M71.829,574.97H94.323v5.959H61.47V574.97h5.905" transform="translate(-51.523 -284.871)"/><rect class="c" width="21.747" height="5.613" transform="translate(86.922 231.63)"/><line class="k" y2="15.722" transform="translate(232.02 248.631)"/><path class="u" d="M192.052,533.244h-1.961a5.459,5.459,0,0,1-5.461-5.461V525.15H197.5v2.633A5.443,5.443,0,0,1,192.052,533.244Z" transform="translate(-41.233 -289.034)"/><path class="v" d="M192.052,533.244h-1.961a5.459,5.459,0,0,1-5.461-5.461V525.15H197.5v2.633A5.443,5.443,0,0,1,192.052,533.244Z" transform="translate(-41.233 -289.034)"/><path class="w" d="M195.7,531.3h2.308a2.138,2.138,0,0,0,1.95-2.286v-.585a2.138,2.138,0,0,0-1.95-2.286H196.5l.076,2.579Z" transform="translate(-40.308 -288.951)"/><path class="i" d="M247.572,307.24h0a41.131,41.131,0,0,0-41.132,41.132v1.723h82.274v-1.723A41.14,41.14,0,0,0,247.572,307.24Z" transform="translate(-39.411 -307.24)"/><path class="e" d="M226.274,312.31a41.178,41.178,0,0,0-11.074,9.34" transform="translate(-38.679 -306.816)"/><path class="e" d="M272.841,317.4a41,41,0,0,0-27.078-10.164h0a41.032,41.032,0,0,0-17.673,3.977" transform="translate(-37.602 -307.24)"/><path class="e" d="M262.37,349.064h21.66v-1.723a41.011,41.011,0,0,0-10.781-27.771" transform="translate(-34.738 -306.21)"/><path class="p" d="M243.207,308.35s-22.852,17.163-21.79,41.2h-4.5S218.491,320.865,243.207,308.35Z" transform="translate(-38.535 -307.147)"/><path class="p" d="M242.977,309.99s-8.9,15.386-8.549,38.683l-.455.737-2.113.119C231.849,349.54,231.568,322.191,242.977,309.99Z" transform="translate(-37.287 -307.01)"/><path class="e" d="M213.1,324.46a41,41,0,0,0-6.675,22.473v1.723h56.68" transform="translate(-39.412 -305.801)"/><rect class="t" width="67.018" height="5.862" transform="translate(176.521 78.861)"/><rect class="t" width="4.952" height="34.479" transform="translate(191.712 84.712)"/><rect class="t" width="4.952" height="34.479" transform="translate(218.747 84.712)"/><line class="e" x2="30.914" transform="translate(191.528 77.506)"/><path class="e" d="M266.48,378.77h15.939v7.206H212.79V378.77h12.894" transform="translate(-38.88 -301.264)"/><rect class="e" width="4.952" height="34.479" transform="translate(191.712 84.712)"/><rect class="e" width="4.952" height="34.479" transform="translate(218.747 84.712)"/><g transform="translate(142.335 54.069)"><rect class="x" width="4.28" height="40.33"/><path class="e" d="M183.65,360.271V357.14h4.28v40.341h-4.28V363.869" transform="translate(-183.65 -357.14)"/><rect class="x" width="4.28" height="30.697" transform="translate(30.706 36.051) rotate(90)"/><path class="e" d="M195.526,394.7H183.65V390.41h19.3" transform="translate(-183.65 -354.36)"/><path class="e" d="M208.084,390.41h5.039V394.7H198.44" transform="translate(-182.414 -354.36)"/><line class="e" x2="24.9" y2="24.781" transform="translate(2.145 40.341)"/><line class="e" x1="25.799" y2="24.781" transform="translate(2.145 40.341)"/></g><g transform="translate(244.698 54.069)"><rect class="x" width="4.28" height="40.33" transform="translate(30.697 40.338) rotate(180)"/><path class="e" d="M302.5,369.092V357.14h4.28v25.853" transform="translate(-276.083 -357.14)"/><path class="e" d="M302.5,373.3v22.83h4.28v-9.7" transform="translate(-276.083 -355.79)"/><rect class="x" width="4.28" height="30.697" transform="translate(30.701 36.056) rotate(90)"/><path class="e" d="M281.782,390.41H278.12V394.7h30.7V390.41H286.268" transform="translate(-278.12 -354.36)"/><line class="e" x1="24.9" y2="24.781" transform="translate(3.662 40.341)"/><line class="e" x2="25.81" y2="24.781" transform="translate(2.752 40.341)"/></g><path class="e" d="M222.154,337.14a49.669,49.669,0,0,0-1.084,10.467" transform="translate(-38.189 -304.742)"/><path class="e" d="M246.2,307.24s-17.434,8.842-23.35,29.05" transform="translate(-38.04 -307.24)"/><path class="e" d="M236.983,324.58a98.45,98.45,0,0,0-2.763,24.066" transform="translate(-37.09 -305.791)"/><path class="e" d="M244.938,307.24s-3.825,4.453-6.978,14.26" transform="translate(-36.777 -307.24)"/><path class="e" d="M253.88,338.11c.238,2.926.379,6.057.379,9.405" transform="translate(-35.447 -304.661)"/><path class="e" d="M252.43,327.86c.531,2.59.986,5.407,1.322,8.484" transform="translate(-35.569 -305.517)"/><path class="e" d="M244.05,307.24s5.006,5.819,8.267,18.8" transform="translate(-36.269 -307.24)"/><path class="e" d="M244.12,307.24S269.4,320.069,269.4,350.105" transform="translate(-36.263 -307.24)"/><path class="e" d="M264.22,346.79" transform="translate(-34.583 -303.936)"/><rect class="y" width="266.185" height="34.381" transform="translate(34.652 84.712)"/><g transform="translate(34.652 84.712)"><line class="q" y2="34.392"/><line class="q" y2="34.392" transform="translate(266.174)"/></g><path class="n" d="M97.207,434.432H77.01V417.16H362.829v17.272H103.037" transform="translate(-50.225 -298.056)"/><path class="z" d="M80.932,434.432l2.1-3.977a14.294,14.294,0,0,1,12.634-7.607h266.2l.964-5.689H77.01v17.272Z" transform="translate(-50.225 -298.056)"/><path class="e" d="M144.58,417.16H362.829v17.272H77.01V417.16h44.317" transform="translate(-50.225 -298.056)"/></g><path class="b" d="M111.173,336.347h0A28.967,28.967,0,0,1,82.21,307.383h0a28.967,28.967,0,0,1,28.963-28.963h0a28.967,28.967,0,0,1,28.963,28.963h0A28.967,28.967,0,0,1,111.173,336.347Z" transform="translate(4.611 4.165)"/><path class="e" d="M329.92,590.407h61.827s-7.877-35.367-37.133-29.364" transform="translate(25.307 27.72)"/><path class="aa" d="M206.859,239.427h0A5.424,5.424,0,0,1,201.43,234h0a5.424,5.424,0,0,1,5.429-5.429h0A5.424,5.424,0,0,1,212.287,234h0A5.438,5.438,0,0,1,206.859,239.427Z" transform="translate(14.572)"/><path class="ab" d="M211.869,605.507h0a5.424,5.424,0,0,1-5.429-5.429h0a5.424,5.424,0,0,1,5.429-5.429h0a5.424,5.424,0,0,1,5.429,5.429h0A5.431,5.431,0,0,1,211.869,605.507Z" transform="translate(14.991 30.586)"/><path class="ac" d="M116.429,379.068h0a4.271,4.271,0,0,1-4.269-4.269h0a4.271,4.271,0,0,1,4.269-4.269h0A4.271,4.271,0,0,1,120.7,374.8h0A4.271,4.271,0,0,1,116.429,379.068Z" transform="translate(7.114 11.861)"/><path class="c" d="M65.027,502.145h0a2.819,2.819,0,0,1-2.817-2.817h0a2.819,2.819,0,0,1,2.817-2.817h0a2.818,2.818,0,0,1,2.817,2.817h0A2.812,2.812,0,0,1,65.027,502.145Z" transform="translate(2.94 22.386)"/><path class="ac" d="M64.589,503.158h0a4.271,4.271,0,0,1-4.269-4.269h0a4.271,4.271,0,0,1,4.269-4.269h0a4.271,4.271,0,0,1,4.269,4.269h0A4.257,4.257,0,0,1,64.589,503.158Z" transform="translate(2.782 22.228)"/><path class="i" d="M160.639,297.328h0a4.271,4.271,0,0,1-4.269-4.269h0a4.271,4.271,0,0,1,4.269-4.269h0a4.271,4.271,0,0,1,4.269,4.269h0A4.264,4.264,0,0,1,160.639,297.328Z" transform="translate(10.807 5.031)"/><path class="ad" d="M319.423,381.306h0a3.024,3.024,0,0,1-3.023-3.023h0a3.024,3.024,0,0,1,3.023-3.023h0a3.024,3.024,0,0,1,3.023,3.023h0A3.024,3.024,0,0,1,319.423,381.306Z" transform="translate(24.178 12.256)"/><path class="a" d="M352.729,540.959h0a4.271,4.271,0,0,1-4.269-4.269h0a4.28,4.28,0,0,1,4.269-4.28h0A4.273,4.273,0,0,1,357,536.69h0A4.264,4.264,0,0,1,352.729,540.959Z" transform="translate(26.856 25.386)"/><path class="a" d="M214.188,361.2h0a3.094,3.094,0,0,1-3.088-3.088h0a3.094,3.094,0,0,1,3.088-3.088h0a3.094,3.094,0,0,1,3.088,3.088h0A3.094,3.094,0,0,1,214.188,361.2Z" transform="translate(15.38 10.565)"/><path class="ae" d="M213.549,361.748h0a4.271,4.271,0,0,1-4.269-4.269h0a4.271,4.271,0,0,1,4.269-4.269h0a4.271,4.271,0,0,1,4.269,4.269h0A4.264,4.264,0,0,1,213.549,361.748Z" transform="translate(15.228 10.414)"/></g><text class="af" transform="translate(207 75)"><tspan x="-63.533" y="0">Welcome to</tspan></text><g transform="translate(122 90.077)"><path class="ag" d="M0,48.544A18.414,18.414,0,0,1,5.1,35.77a19,19,0,0,1,14.2-5.937,18.762,18.762,0,0,1,9.465,2.279,14.5,14.5,0,0,1,6.009,5.937l-7.923,5.619a6.435,6.435,0,0,0-1.436-2.279A6.779,6.779,0,0,0,23.5,39.957a8.3,8.3,0,0,0-2.233-.742A11.673,11.673,0,0,0,19.09,39a7.971,7.971,0,0,0-3.882.9,7.871,7.871,0,0,0-2.659,2.279,10.217,10.217,0,0,0-1.542,3.18,13.207,13.207,0,0,0-.479,3.5,12.115,12.115,0,0,0,.585,3.763,9.806,9.806,0,0,0,1.7,3.18,8.717,8.717,0,0,0,2.712,2.226,8.334,8.334,0,0,0,3.669.8,11.67,11.67,0,0,0,2.18-.212,9.056,9.056,0,0,0,2.127-.8,7.448,7.448,0,0,0,1.861-1.431,6.411,6.411,0,0,0,1.329-2.173l8.455,5.035a10.568,10.568,0,0,1-2.606,3.71,15.7,15.7,0,0,1-3.935,2.756,20.31,20.31,0,0,1-4.733,1.7A21.489,21.489,0,0,1,18.984,68a17.956,17.956,0,0,1-7.71-1.643A20.292,20.292,0,0,1,5.264,61.9a20.384,20.384,0,0,1-3.882-6.255A19.177,19.177,0,0,1,0,48.544Z" transform="translate(0 -25.151)"/><path class="ag" d="M295.556,68.818V31.184h17.335A11.283,11.283,0,0,1,318,32.35a12.383,12.383,0,0,1,3.988,2.968,13.191,13.191,0,0,1,2.659,4.187,12.332,12.332,0,0,1,.957,4.718,13.523,13.523,0,0,1-1.436,6.149,12.55,12.55,0,0,1-3.988,4.612l7.976,13.834h-11.7l-6.647-11.555h-3.882V68.818Zm10.369-20.566h6.541a2.228,2.228,0,0,0,1.755-1.06,4.627,4.627,0,0,0,.851-2.968,4.154,4.154,0,0,0-.957-2.968,2.665,2.665,0,0,0-1.914-1.06h-6.275Z" transform="translate(-249.17 -26.29)"/><path class="ag" d="M594.134,38.111l-2.021-2.12a17.684,17.684,0,0,1-4.786,2.014,19.574,19.574,0,0,1-4.945.636,14.745,14.745,0,0,1-5.8-1.06,13.274,13.274,0,0,1-4.148-2.756,11.681,11.681,0,0,1-2.5-3.816,11.846,11.846,0,0,1-.851-4.346,9.861,9.861,0,0,1,1.542-5.566,18.312,18.312,0,0,1,3.776-4.134,16.226,16.226,0,0,1-2.393-3.657,9.2,9.2,0,0,1-.691-3.6,9.448,9.448,0,0,1,.851-4.081,8.748,8.748,0,0,1,2.286-3.074,10.405,10.405,0,0,1,3.51-1.855A13.6,13.6,0,0,1,582.383,0a15.467,15.467,0,0,1,4.041.53,9.9,9.9,0,0,1,3.563,1.59,7.815,7.815,0,0,1,2.552,2.809,8.3,8.3,0,0,1,.957,4.134,10.015,10.015,0,0,1-1.329,5.142,16.371,16.371,0,0,1-3.563,4.187L592.965,23a17.463,17.463,0,0,0,.9-3.18,20.969,20.969,0,0,0,.319-3.763h8.136a29.23,29.23,0,0,1-.957,7.368,24.04,24.04,0,0,1-2.446,5.831l8.455,8.852ZM583.446,30.8a7.62,7.62,0,0,0,3.137-.689l-6.009-6.414a4.04,4.04,0,0,0-1.808,2.968,4.874,4.874,0,0,0,.213,1.325,4.143,4.143,0,0,0,2.287,2.385A5.1,5.1,0,0,0,583.446,30.8Zm-2.978-21.52a2.069,2.069,0,0,0,.372,1.219q.425.477,1.383,1.378a9.4,9.4,0,0,0,1.542-1.272,2.182,2.182,0,0,0,.479-1.431,1.756,1.756,0,0,0-.532-1.378,1.8,1.8,0,0,0-1.329-.477,1.847,1.847,0,0,0-1.436.583A1.978,1.978,0,0,0,580.469,9.276Z" transform="translate(-479.773)"/><path class="ag" d="M906.476,59.171a8.14,8.14,0,0,1-3.988,7.368,14.257,14.257,0,0,1-4.36,1.749,24.569,24.569,0,0,1-5.212.53H874.358V31.184h21.908a7.47,7.47,0,0,1,3.563.848,8.743,8.743,0,0,1,2.712,2.226,9.282,9.282,0,0,1,1.7,3.074,9.857,9.857,0,0,1,.639,3.5,10.179,10.179,0,0,1-1.383,5.088,8.41,8.41,0,0,1-4.041,3.6,9.748,9.748,0,0,1,5.1,3.339A9.647,9.647,0,0,1,906.476,59.171Zm-10.528-2.12a3.461,3.461,0,0,0-.745-2.279,2.321,2.321,0,0,0-1.914-.954h-8.561v6.308h8.189a3,3,0,0,0,2.128-.8A2.875,2.875,0,0,0,895.948,57.051ZM884.727,39.983V45.76H891.8a3.307,3.307,0,0,0,1.914-.583,2.58,2.58,0,0,0,.9-2.332,2.733,2.733,0,0,0-.745-2.173,2.5,2.5,0,0,0-1.755-.689Z" transform="translate(-737.131 -26.29)"/></g></g></svg>