<svg xmlns="http://www.w3.org/2000/svg" xmlns:xlink="http://www.w3.org/1999/xlink" width="130" height="125" viewBox="0 0 130 125"><defs><style>.a,.c,.d{fill:#c44829;}.a{stroke:#707070;}.b{clip-path:url(#a);}.d{stroke:#ffeee0;stroke-width:5px;}.e{fill:#fff;font-size:14px;font-family:ArialMT, Arial;}.f{stroke:none;}.g{fill:none;}</style><clipPath id="a"><rect class="a" width="116" height="116" transform="translate(117 152)"/></clipPath></defs><g transform="translate(-149 -303)"><g class="b" transform="translate(32 160)"><g transform="translate(117 156.765)"><path class="c" d="M28.933,74.262H54.067a1.933,1.933,0,0,0,0-3.867H28.933a1.933,1.933,0,0,0,0,3.867Z" transform="translate(-9.6 -29.795)"/><path class="c" d="M79.2,88.4H28.933a1.933,1.933,0,1,0,0,3.867H79.2a1.933,1.933,0,1,0,0-3.867Z" transform="translate(-9.6 -36.195)"/><path class="c" d="M79.2,106.395H28.933a1.933,1.933,0,0,0,0,3.867H79.2a1.933,1.933,0,0,0,0-3.867Z" transform="translate(-9.6 -42.595)"/><path class="c" d="M104.539,7.53,38.531,7.395A11.477,11.477,0,0,0,27.067,18.86v9.906l-15.6.033A11.477,11.477,0,0,0,0,40.264V81.136A11.476,11.476,0,0,0,11.465,92.6H23.2v19.333a1.934,1.934,0,0,0,3.364,1.3L45.325,92.6l32.144-.131A11.477,11.477,0,0,0,88.933,81v-.218L99.1,91.969a1.934,1.934,0,0,0,3.364-1.3V71.334h2.069A11.477,11.477,0,0,0,116,59.871V18.995A11.478,11.478,0,0,0,104.539,7.53ZM85.067,81a7.607,7.607,0,0,1-7.606,7.6l-33,.135a1.935,1.935,0,0,0-1.423.632L27.067,106.931V90.664a1.933,1.933,0,0,0-1.933-1.933H11.465a7.606,7.606,0,0,1-7.6-7.6V40.262a7.607,7.607,0,0,1,7.6-7.6L29,32.627h0l48.465-.1a7.607,7.607,0,0,1,7.6,7.6V81Zm27.067-21.131a7.6,7.6,0,0,1-7.6,7.6h-4A1.933,1.933,0,0,0,98.6,69.4V85.664L88.933,75.031v-34.9A11.478,11.478,0,0,0,77.465,28.662l-46.531.095v-9.9a7.606,7.606,0,0,1,7.594-7.6l66.006.135h0a7.607,7.607,0,0,1,7.6,7.6V59.868Z" transform="translate(0 -7.395)"/></g></g><g class="d" transform="translate(241 303)"><rect class="f" width="38" height="38" rx="19"/><rect class="g" x="2.5" y="2.5" width="33" height="33" rx="16.5"/></g><text class="e" transform="translate(256 327)"><tspan x="0" y="0">1</tspan></text></g></svg>