<svg xmlns="http://www.w3.org/2000/svg" xmlns:xlink="http://www.w3.org/1999/xlink" width="260" height="260" viewBox="0 0 260 260"><defs><style>.a,.s{fill:#fff;}.a{stroke:#707070;}.b{clip-path:url(#a);}.c{fill:#0f9d58;}.d{opacity:0.15;}.e{fill:#ff6b6b;}.f{fill:#ffc4c4;}.g{fill:#ffd77d;}.h{fill:#f4f5f5;}.i{fill:#eaaf75;}.j{fill:#dd9858;}.k{fill:#231f20;}.l{fill:#f24840;}.m{fill:#db4437;}.n{fill:#f88;}.o{fill:#f66;}.p{fill:#1c1c1c;}.q{fill:#ffd4a9;}.r{fill:#cca989;}.t{fill:#ffad76;}.u{fill:#f7941d;}.v{fill:#4285f4;}.w{fill:#e8e8e8;}.x{fill:#59eaa8;}.y{fill:#53db9a;}.z{fill:#000100;}.aa{fill:#fb9e91;}.ab{fill:#db7e75;}.ac{fill:#52d2ff;}.ad{fill:#f93;}</style><clipPath id="a"><rect class="a" width="260" height="260" transform="translate(367 254)"/></clipPath></defs><g class="b" transform="translate(-367 -254)"><g transform="translate(388.085 254)"><g transform="translate(212.5 106.625)"><circle class="c" cx="2.665" cy="2.665" r="2.665"/></g><g class="d" transform="translate(0 3.829)"><path class="e" d="M94.7,1.32C59.16,1.326,40.864,36.835,34.708,96.69S.793,177.249,3.153,213.5c1.349,20.723,26.145,49.3,75.071,33.194,34.18-11.248,41.982-10.163,55.994-12.471s33.9,1.508,55.954-12.841c20.988-13.655,43.3-80.8,11.076-112.649-15.42-15.248-25.273-29.352-41.354-53.184C150.484,41.6,134.105,1.313,94.7,1.32Z" transform="translate(-3.011 -1.32)"/></g><g transform="translate(175.709 143.653)"><path class="f" d="M22.925,31.3a1.008,1.008,0,0,1-.337-.06.991.991,0,0,1-.6-1.27,77.809,77.809,0,0,0,3.432-12.775.991.991,0,0,1,1.951.35,79.864,79.864,0,0,1-3.524,13.106A.982.982,0,0,1,22.925,31.3Z" transform="translate(-21.934 -16.378)"/></g><g transform="translate(104.413 244.143)"><circle class="g" cx="3.167" cy="3.167" r="3.167"/></g><g transform="translate(99.765 174.885)"><circle class="c" cx="2.103" cy="2.103" r="2.103"/></g><g transform="translate(180.262 124.265)"><path class="f" d="M23.418,26.908h-.066a.993.993,0,0,1-.926-1.058c.119-1.759.179-3.564.179-5.349,0-1.693-.06-3.432-.172-5.158a.991.991,0,0,1,1.977-.126c.112,1.772.172,3.551.172,5.29,0,1.832-.06,3.676-.179,5.482A.989.989,0,0,1,23.418,26.908Z" transform="translate(-22.424 -14.29)"/></g><g transform="translate(169.534 89.263)"><path class="f" d="M30.312,31.539a1,1,0,0,1-.959-.727,77.894,77.894,0,0,0-7.948-18.8.99.99,0,1,1,1.706-1.005,80.014,80.014,0,0,1,8.146,19.275.989.989,0,0,1-.694,1.217A.8.8,0,0,1,30.312,31.539Z" transform="translate(-21.269 -10.52)"/></g><g transform="translate(84.839 49.931)"><path class="f" d="M48.438,10.608a.974.974,0,0,1-.238-.026,79.721,79.721,0,0,0-34.861-.727.992.992,0,1,1-.4-1.944,81.667,81.667,0,0,1,35.733.741.992.992,0,0,1,.721,1.2A.981.981,0,0,1,48.438,10.608Z" transform="translate(-12.148 -6.284)"/></g><g transform="translate(21.308 112.972)"><path class="f" d="M8.44,49.985a.994.994,0,0,1-.965-.76,81.37,81.37,0,0,1-.436-35.363.993.993,0,0,1,1.944.41,79.283,79.283,0,0,0,.423,34.49,1,1,0,0,1-.734,1.2A.958.958,0,0,1,8.44,49.985Z" transform="translate(-5.306 -13.073)"/></g><g transform="translate(100.876 236.615)"><path class="f" d="M14.867,35.491a.992.992,0,0,1,0-1.984,112.011,112.011,0,0,0,39.278-7.055.992.992,0,1,1,.694,1.858A113.934,113.934,0,0,1,14.867,35.491Z" transform="translate(-13.875 -26.389)"/></g><g transform="translate(197.24 161.941)"><path class="f" d="M25.242,48.431a.956.956,0,0,1-.522-.152A1,1,0,0,1,24.4,46.91,111.717,111.717,0,0,0,36.781,19.065a.994.994,0,0,1,1.911.549,113.581,113.581,0,0,1-12.6,28.341A.99.99,0,0,1,25.242,48.431Z" transform="translate(-24.252 -18.347)"/></g><g transform="translate(212.531 143.233)"><path class="f" d="M26.892,24.821a1.626,1.626,0,0,1-.172-.013.989.989,0,0,1-.807-1.144c.37-2.169.681-4.338.919-6.447a.995.995,0,0,1,1.977.218c-.238,2.149-.555,4.358-.932,6.566A1.011,1.011,0,0,1,26.892,24.821Z" transform="translate(-25.899 -16.332)"/></g><g transform="translate(199.741 75.077)"><path class="f" d="M39.865,70.653h-.04a.99.99,0,0,1-.952-1.025c.053-1.415.079-2.857.079-4.278a112.42,112.42,0,0,0-14.3-54.883A.993.993,0,0,1,26.383,9.5,114.385,114.385,0,0,1,40.937,65.344c0,1.448-.026,2.916-.079,4.358A.991.991,0,0,1,39.865,70.653Z" transform="translate(-24.522 -8.992)"/></g><g transform="translate(18.175 40.511)"><g transform="translate(152.349 0.88)"><path class="h" d="M21.375,8.574c2.288-.549,4.02-3.386,8.411-3.2s9.945-.522,11.519,1.051S42.766,25.4,42.766,30.606,44.684,41.028,40.3,41.028H28.874Z" transform="translate(-21.375 -5.365)"/></g><g transform="translate(152.356 4.009)"><path class="i" d="M40.294,38.242H28.868L21.376,8.632c2.281-.5,4.02-3.088,8.411-2.923,3.478.132,7.69-.245,10.071.311a3.2,3.2,0,0,1,1.455.648c1.574,1.435,1.461,17.3,1.461,22.059S44.685,38.242,40.294,38.242Z" transform="translate(-21.376 -5.702)"/></g><g transform="translate(164.635 4.328)"><path class="j" d="M29.338,37.958h-6c-.919-1.508-1.243-3.2,1.871-3.247,5.64-.073,4.807-5.257,4.43-10.395-.344-4.668-.681-16.472-.747-18.581a3.2,3.2,0,0,1,1.455.648c1.574,1.435,1.461,17.3,1.461,22.059S33.728,37.958,29.338,37.958Z" transform="translate(-22.698 -5.736)"/></g><g transform="translate(169.855 0.329)"><path class="k" d="M27.2,33.591a.878.878,0,0,1-.879-.827c-.04-.589-.053-1.131-.053-1.653v-.992c.02-17.325-.655-21.841-1.217-22.581a2.432,2.432,0,0,0-1.111-.489.884.884,0,0,1,.41-1.719,3.976,3.976,0,0,1,1.971.979c1.256,1.256,1.739,7.935,1.719,23.811v.992c0,.483.02.992.053,1.547a.882.882,0,0,1-.827.939A.274.274,0,0,0,27.2,33.591Z" transform="translate(-23.26 -5.305)"/></g><g transform="translate(151.473)"><path class="k" d="M41.089,42.7H29.663a.884.884,0,0,1-.86-.681L21.3,9.564a.884.884,0,0,1,.655-1.058,7.231,7.231,0,0,0,2.109-1.1A10.19,10.19,0,0,1,30.615,5.28c1.21.053,2.539.033,3.822.013,1.4-.02,2.711-.04,3.921.02a.884.884,0,0,1-.086,1.766c-1.151-.06-2.44-.04-3.8-.02-1.309.02-2.665.04-3.921-.013a8.477,8.477,0,0,0-5.5,1.832,12.331,12.331,0,0,1-1.832,1.058l7.161,30.992H41.1a1.916,1.916,0,0,0,1.455-.456c.6-.628.589-2.083.5-3.419a.885.885,0,0,1,1.766-.112c.112,1.8.073,3.624-.979,4.741A3.648,3.648,0,0,1,41.089,42.7Z" transform="translate(-21.281 -5.27)"/></g><g transform="translate(135.805 1.387)"><path class="h" d="M19.594,7.85a21.987,21.987,0,0,1,12.16-2.288C36.508,6.2,38.7,7.3,42.816,7.85s7.77-.641,7.77,6.764v22.4c0,3.657-4.939,3.564-8.411,3.564h-12.8Z" transform="translate(-19.594 -5.419)"/></g><g transform="translate(135.799 4.01)"><path class="l" d="M50.592,14.212V34.935a2.5,2.5,0,0,1-1.038,2.116c-1.633,1.23-4.88,1.19-7.373,1.19h-12.8L19.593,7.957a23.508,23.508,0,0,1,12.16-2.123c4.754.6,6.956,1.607,11.063,2.123,1.3.159,2.552.159,3.67.3,1.666.212,3,.747,3.657,2.632A10.119,10.119,0,0,1,50.592,14.212Z" transform="translate(-19.593 -5.702)"/></g><g transform="translate(153.801 6.563)"><path class="m" d="M34.528,22.468l.35,10.778L34.2,34l-.7.774c-1.633,1.23-4.88,1.19-7.373,1.19H24.252c-2.473-2.169-4.285-4.5-.727-4.556,6.692-.112,6.242-2.142,6.242-2.142l.661-23.289c1.666.212,3,.747,3.657,2.632l.443,13.86" transform="translate(-21.532 -5.977)"/></g><g transform="translate(135.101 0.314)"><path class="k" d="M43.6,42.419H30.233a.887.887,0,0,1-.846-.628L19.554,8.881a.884.884,0,0,1,.43-1.032A23.16,23.16,0,0,1,32.739,5.456a.884.884,0,1,1-.231,1.752A21.186,21.186,0,0,0,21.459,9.093L30.888,40.66H43.352a20.822,20.822,0,0,0,5.171-.417c1.9-.529,2.149-1.5,2.149-2.288V27.442a.886.886,0,0,1,1.772,0V37.956c0,1.382-.6,3.2-3.445,3.987A21.414,21.414,0,0,1,43.6,42.419Z" transform="translate(-19.518 -5.304)"/></g><g transform="translate(166.255 17.314)"><path class="k" d="M23.759,10.447a.886.886,0,0,1-.886-.886V8.021a.886.886,0,1,1,1.772,0V9.561A.886.886,0,0,1,23.759,10.447Z" transform="translate(-22.873 -7.135)"/></g><g transform="translate(150.499 1.02)"><path class="k" d="M37.825,19.036a.886.886,0,0,1-.886-.886V14.8c0-5.416-1.792-5.535-5.039-5.746-.648-.04-1.316-.086-2.01-.179a44.014,44.014,0,0,1-5.257-1.091c-.873-.225-1.772-.45-2.757-.661a.883.883,0,1,1,.37-1.726c1.018.218,1.937.456,2.823.681a40.5,40.5,0,0,0,5.052,1.051c.635.086,1.276.126,1.9.165,3.286.218,6.685.443,6.685,7.512v3.346A.875.875,0,0,1,37.825,19.036Z" transform="translate(-21.176 -5.38)"/></g><g transform="translate(120.684 1.935)"><path class="h" d="M18.552,14.49c0,5.872.641,9.324,0,13.529s-2.559,12.068,7.221,12.068H49.63c3.386,0,6.031-2.466,6.031-11.8v-11.8c0-4.3-1.918-6.031-4.847-6.031S39.712,7.9,36.809,6.529,31.268,5.524,26.137,5.524,18.552,10.384,18.552,14.49Z" transform="translate(-17.965 -5.478)"/></g><g transform="translate(123.544 4.73)"><path class="n" d="M53.116,15.917V26.755c0,8.57-2.447,10.838-5.574,10.838H25.489c-9.039,0-7.267-7.227-6.672-11.1s0-7.042,0-12.438c0-3.782,2.281-8.239,7.016-8.239s7.174-.337,9.859.926a54.709,54.709,0,0,0,12.167,3.571c.291.026.549.046.774.046A4,4,0,0,1,52.9,13.8,9.314,9.314,0,0,1,53.116,15.917Z" transform="translate(-18.273 -5.779)"/></g><g transform="translate(139.535 9.274)"><path class="o" d="M38.847,12.5v10.21c0,8.57-2.447,10.838-5.574,10.838H24.637L20,31.33s12.65.9,12.815-4.212c.132-4.219.615-16.657.78-20.849.291.026.549.046.774.046a4,4,0,0,1,4.272,3.438Z" transform="translate(-19.995 -6.269)"/></g><g transform="translate(119.899 0.876)"><path class="k" d="M50.6,41.918H26.612c-3.267,0-5.654-.853-7.089-2.546-2.314-2.724-1.653-6.8-1.17-9.786.046-.284.093-.555.132-.813a25.611,25.611,0,0,0,.271-3.286.889.889,0,0,1,.9-.866.876.876,0,0,1,.866.9,26.976,26.976,0,0,1-.284,3.524c-.04.264-.086.542-.132.833-.43,2.645-1.012,6.262.774,8.358,1.084,1.276,3.022,1.924,5.746,1.924h23.99c2.222,0,5.178-1.137,5.178-10.97V17.319c0-3.485-1.3-5.178-3.987-5.178-3.181,0-11.651-2.711-14.461-4.04-2.182-1.032-4.245-1-7.67-.952l-.681.007h-.013a.883.883,0,0,1-.013-1.766l.681-.007C33.2,5.331,35.546,5.3,38.1,6.5c2.936,1.389,10.97,3.868,13.708,3.868,2.149,0,5.759.9,5.759,6.95V29.175C57.552,37.745,55.277,41.918,50.6,41.918Z" transform="translate(-17.881 -5.364)"/></g><g transform="translate(120.484 1.134)"><path class="k" d="M19.035,22.684a.881.881,0,0,1-.879-.846l-.046-1.018c-.079-1.666-.165-3.551-.165-5.746,0-3.868,2.043-8.537,6.533-9.654a.886.886,0,0,1,.43,1.719c-3.564.886-5.191,4.734-5.191,7.935,0,2.162.086,4.02.165,5.667l.046,1.025a.881.881,0,0,1-.846.919Z" transform="translate(-17.944 -5.392)"/></g><g transform="translate(0.886 124.104)"><path class="h" d="M22.633,42.361l-7.975-9.337S6.6,37.131,5.216,29.963s7.016-3.8,7.849-4.576-2.658-6.639,4.582-6.751,5.594,8.338,2.559,9.74c7.67,8.18,8.206,9.231,8.206,9.231" transform="translate(-5.064 -18.635)"/></g><g transform="translate(103.254 26.012)"><path class="h" d="M19.022,8.274c4.4,0,17.827-.456,23.315,0s12.888.82,14.9.82,2.652,2.923,2.652,6.216S59.16,18.6,55.873,18.6H26.528c-4.3,0-9.872.456-9.872-3.108S14.367,8.274,19.022,8.274Z" transform="translate(-16.088 -8.071)"/></g><g transform="translate(107.141 28.123)"><path class="l" d="M19.177,8.46c4.014,0,16.247-.364,21.246,0S52.167,9.121,54,9.121s2.414,2.341,2.414,4.973-.668,2.632-3.663,2.632H26.015c-3.915,0-9,.364-9-2.486S14.939,8.46,19.177,8.46Z" transform="translate(-16.507 -8.299)"/></g><g transform="translate(116.642 27.435)"><path class="m" d="M17.53,17.339S46.1,16.9,46.651,10.125s1.283,6.751,1.283,6.751Z" transform="translate(-17.53 -8.225)"/></g><g transform="translate(102.36 25.229)"><path class="k" d="M17.155,14.421a.885.885,0,0,1-.873-.741l-.026-.139c-.284-1.693-.549-3.293.4-4.41a3.918,3.918,0,0,1,3.167-1.1c.913,0,2.228-.02,3.782-.046h.013a.883.883,0,0,1,.013,1.766c-1.567.026-2.89.046-3.809.046A2.641,2.641,0,0,0,18,10.268c-.417.5-.218,1.7-.007,2.976l.026.139a.884.884,0,0,1-.727,1.018A.5.5,0,0,1,17.155,14.421Z" transform="translate(-15.992 -7.987)"/></g><g transform="translate(102.935 25.088)"><path class="k" d="M24.1,20.333c-2.876,0-5.634-.179-7.082-1.613a3.269,3.269,0,0,1-.965-2.414.886.886,0,0,1,1.772,0,1.52,1.52,0,0,0,.443,1.164c1.164,1.157,4.549,1.124,7.267,1.091.456-.007.9-.007,1.336-.007h29.5c3.161,0,3.161,0,3.161-2.42,0-2.592-.469-5.363-1.779-5.363-2.037,0-9.423-.357-15.056-.827-3.319-.278-9.522-.218-15.156-.126h-.013a.883.883,0,0,1-.013-1.766c5.673-.1,11.935-.159,15.328.126,5.416.456,12.894.827,14.911.827,1.62,0,3.551,1.237,3.551,7.135,0,4.027-1.422,4.192-4.933,4.192h-29.5c-.43,0-.873.007-1.322.007C25.06,20.326,24.577,20.333,24.1,20.333Z" transform="translate(-16.054 -7.972)"/></g><g transform="translate(0 123.219)"><path class="p" d="M23.423,44.037a.889.889,0,0,1-.674-.311L15.2,34.892c-1.356.562-4.569,1.64-7.1.4a5.7,5.7,0,0,1-2.976-4.377c-.377-1.971-.106-3.465.8-4.457,1.508-1.64,4.291-1.342,6.13-1.144.324.033.727.079,1.025.093-.02-.185-.053-.41-.079-.6-.192-1.27-.476-3.187.741-4.622.919-1.078,2.447-1.62,4.668-1.653h.152c3.062,0,5.144,1.468,5.733,4.04a7.453,7.453,0,0,1-1.964,6.731c5.211,5.574,7.373,8.147,7.644,8.682a.884.884,0,0,1-1.574.807c-.013-.013-.86-1.349-8.061-9.026A.9.9,0,0,1,20.123,29a.883.883,0,0,1,.5-.635c1.27-.589,2.447-3.24,1.957-5.389-.4-1.779-1.832-2.7-4.133-2.665-1.666.026-2.79.377-3.352,1.032-.694.82-.5,2.149-.344,3.22.139.932.258,1.739-.3,2.261-.516.483-1.289.4-2.585.258-1.488-.159-3.736-.4-4.642.582-.509.549-.628,1.534-.364,2.923a4.013,4.013,0,0,0,2.017,3.128c2.017.985,5.125-.159,6.156-.688a.881.881,0,0,1,1.071.212L24.1,42.576a.881.881,0,0,1-.1,1.243A.869.869,0,0,1,23.423,44.037Z" transform="translate(-4.968 -18.54)"/></g><g transform="translate(16.492 180.855)"><path class="q" d="M50.96,46.869,39.276,50.731l-3.293,1.091c-2.8-4.113-8.953-10.051-15.447-15.7S6.518,29.187,6.75,26.853s2.89-2.235,6.176-1.977c.04.007.079.007.119.013.152.013.3.026.456.053,3.114.436,6.315,2.42,8.841,4.225,2.691,1.924,9.641,7.723,14.97,7.518a5.061,5.061,0,0,0,1.4-.245A3.521,3.521,0,0,0,40.447,35.2l.007-.007c1.68-2.182,1.309-6.222,2.44-8.332,1.574-2.929,5.885-1.455,6.249-.377a5.269,5.269,0,0,1-.271,2.063,12.158,12.158,0,0,0,.192,7.551C53.023,45.322,50.96,46.869,50.96,46.869Z" transform="translate(-6.744 -24.747)"/></g><g transform="translate(22.786 180.998)"><path class="r" d="M31.7,36.559a5.061,5.061,0,0,0,1.4-.245.166.166,0,0,1-.046.026c-2.757,1.309-9.773-.9-15.658-4.41s-8.193-4.258-8.193-4.258L7.422,24.762c.152.013.3.026.456.053,3.114.436,6.315,2.42,8.841,4.225C19.417,30.971,26.367,36.77,31.7,36.559Z" transform="translate(-7.422 -24.762)"/></g><g transform="translate(50.201 181.251)"><path class="r" d="M18.786,28.193c-3.2,1.3-6.136,4.675-8.411,6.645,1.68-2.182,1.309-6.222,2.44-8.332,1.574-2.929,5.885-1.455,6.249-.377A5.438,5.438,0,0,1,18.786,28.193Z" transform="translate(-10.375 -24.789)"/></g><g transform="translate(16.492 180.855)"><path class="s" d="M39.276,50.731l-3.293,1.091c-2.8-4.113-8.953-10.051-15.447-15.7S6.518,29.187,6.75,26.853s2.89-2.235,6.176-1.977c.192.02.384.033.575.066,1.349,2.242,4.338,5.839,10.983,10.421C33.484,41.579,36.955,46.34,39.276,50.731Z" transform="translate(-6.744 -24.747)"/></g><g transform="translate(37.545 198.818)"><path class="p" d="M17.2,36.673a.9.9,0,0,1-.734-.384A59.147,59.147,0,0,0,9.276,28.2a.884.884,0,0,1,1.237-1.263,60.731,60.731,0,0,1,7.413,8.358.89.89,0,0,1-.231,1.23A.91.91,0,0,1,17.2,36.673Z" transform="translate(-9.012 -26.681)"/></g><g transform="translate(15.608 179.965)"><path class="p" d="M26.662,42.6a.879.879,0,0,1-.6-.238c-.575-.536-1.157-1.065-1.752-1.607L22.589,39.2c-.575-.522-1.164-1.032-1.752-1.547l-.086-.079A41.025,41.025,0,0,0,11.52,31.82c-3.028-1.5-5.032-2.493-4.86-4.258.331-3.313,4.1-3.015,7.128-2.777,3.65.284,7.373,2.685,9.859,4.463.35.251.767.562,1.25.919a48.865,48.865,0,0,0,7.8,5.025.883.883,0,0,1-.76,1.594,50.574,50.574,0,0,1-8.1-5.2c-.463-.35-.873-.655-1.217-.9-2.314-1.653-5.766-3.888-8.973-4.139-3.941-.3-5.111-.04-5.237,1.19-.053.555,2.129,1.633,3.888,2.506a43.153,43.153,0,0,1,9.608,6l.086.079c.6.522,1.19,1.038,1.779,1.567L25.5,39.444c.6.549,1.19,1.084,1.772,1.62a.887.887,0,0,1,.046,1.25A.925.925,0,0,1,26.662,42.6Z" transform="translate(-6.649 -24.651)"/></g><g transform="translate(44.05 180.368)"><path class="p" d="M25.147,39.071a.876.876,0,0,1-.82-.562c-.2-.516-.423-1.058-.668-1.627-1.342-3.233-.628-6.388-.2-8.279a8.616,8.616,0,0,0,.251-1.389,3.83,3.83,0,0,0-2.493-.754,2.362,2.362,0,0,0-2.136,1.25,11.6,11.6,0,0,0-.827,3.267c-.469,2.89-1.111,6.85-5.495,7.029a9.829,9.829,0,0,1-2.347-.218.878.878,0,0,1-.681-1.045.892.892,0,0,1,1.045-.688,7.911,7.911,0,0,0,1.918.179c2.744-.106,3.273-2.169,3.815-5.541a12.523,12.523,0,0,1,1.012-3.815,4.253,4.253,0,0,1,4.331-2.162c1.441.119,3.167.833,3.531,1.924a4.771,4.771,0,0,1-.2,2.354c-.4,1.792-1.018,4.5.106,7.2.245.575.476,1.131.681,1.66a.881.881,0,0,1-.5,1.144A.677.677,0,0,1,25.147,39.071Z" transform="translate(-9.712 -24.694)"/></g><g transform="translate(59.45 195.343)"><path class="p" d="M12.635,34.828a.874.874,0,0,1-.708-.35.883.883,0,0,1,.106-1.177c.079-.119.8-1.362-.622-5.839a.885.885,0,0,1,1.686-.536c1.858,5.832.522,7.393.073,7.73A.953.953,0,0,1,12.635,34.828ZM12.027,33.3Zm.079-.066Zm0,0Z" transform="translate(-11.371 -26.307)"/></g><g transform="translate(44.304 201.371)"><rect class="s" width="19.097" height="7.327" transform="matrix(0.936, -0.352, 0.352, 0.936, 0, 6.722)"/></g><g transform="translate(46.599 202.779)"><rect class="t" width="17.212" height="5.819" transform="matrix(0.936, -0.352, 0.352, 0.936, 0, 6.059)"/></g><g transform="translate(43.425 200.487)"><path class="p" d="M13.115,42.206a.884.884,0,0,1-.827-.569L9.7,34.78a.879.879,0,0,1,.516-1.137l17.873-6.725a.883.883,0,0,1,1.137.516L31.814,34.3a.883.883,0,0,1-.02.674.9.9,0,0,1-.5.463L26.855,37.1a.883.883,0,1,1-.622-1.653l3.617-1.356-1.964-5.211-16.22,6.1,1.964,5.2,8.953-3.366a.883.883,0,0,1,.622,1.653l-9.78,3.677A.99.99,0,0,1,13.115,42.206Z" transform="translate(-9.645 -26.861)"/></g><g transform="translate(15.585 140.318)"><path class="u" d="M43.815,51.063H13.22s-.866-7.28-1.177-12.55c-.073-1.256-.112-2.394-.106-3.3-4.615-6.7-5.29-7.062-5.29-7.062l8.523-7.77s1.408,1.4,2.982,2.883a26.881,26.881,0,0,0,4.166,3.551c.8.139,12.835-2.228,18.945,4.285S45.786,46.189,43.815,51.063Z" transform="translate(-6.647 -20.381)"/></g><g transform="translate(15.578 140.616)"><path class="h" d="M9.106,28.15l4.53,6.116-.1,4.946-2.017-2.407c-.066-1.131-.1-2.162-.093-2.982-4.172-6.057-4.781-6.388-4.781-6.388l7.7-7.022s.013.046,1.435,1.389Z" transform="translate(-6.646 -20.413)"/></g><g transform="translate(50.364 151.399)"><path class="p" d="M12.781,42.068A.82.82,0,0,1,12.451,42a.89.89,0,0,1-.489-1.151c.939-2.328,2.89-8.365.681-14.164l-.807-1.759a15.474,15.474,0,0,0-1.263-1.937.883.883,0,1,1,1.408-1.065,16.559,16.559,0,0,1,1.435,2.215l.853,1.865c2.453,6.434.344,12.987-.674,15.513A.874.874,0,0,1,12.781,42.068Z" transform="translate(-10.392 -21.574)"/></g><g transform="translate(37.564 145.601)"><path class="p" d="M21.128,26.75a.867.867,0,0,1-.6-.238c-2.42-2.275-6.011-3.557-10.672-3.8A.884.884,0,1,1,9.94,20.95c5.092.264,9.059,1.7,11.8,4.272a.883.883,0,0,1-.608,1.527Z" transform="translate(-9.014 -20.95)"/></g><g transform="translate(14.686 139.427)"><path class="p" d="M13.982,47.97a.889.889,0,0,1-.866-.708,67.765,67.765,0,0,1-1.276-10.977c-3.855-5.581-4.82-6.533-4.926-6.632a.883.883,0,0,1-.073-1.369l8.523-7.77a.883.883,0,0,1,1.217.026,79.029,79.029,0,0,0,6.725,6.183c.126-.013.456-.04.747-.073.747-.066,1.871-.172,3.207-.218a.886.886,0,0,1,.913.853.877.877,0,0,1-.853.913c-1.283.046-2.38.145-3.1.218a5.927,5.927,0,0,1-1.256.06c-.291-.053-1.032-.179-7.029-6.09L8.692,28.992c1.164,1.369,3.121,4.139,4.761,6.52a.876.876,0,0,1,.159.509,65.54,65.54,0,0,0,1.237,10.891.877.877,0,0,1-.688,1.038A.82.82,0,0,1,13.982,47.97Z" transform="translate(-6.55 -20.285)"/></g><g transform="translate(8.689 159.562)"><path class="h" d="M34.045,35.882,6.015,38.428,5.962,37.8A14.074,14.074,0,0,1,18.7,22.512h0A14.074,14.074,0,0,1,33.992,35.254Z" transform="translate(-5.904 -22.454)"/></g><g transform="translate(11.482 161.436)"><path class="v" d="M31.553,34.21,6.334,36.5l-.079-.879a11.729,11.729,0,0,1,10.62-12.742l1.865-.172a11.729,11.729,0,0,1,12.742,10.62Z" transform="translate(-6.205 -22.655)"/></g><g transform="translate(40.732 159.587)"><path class="h" d="M34.733,36.124,9.355,35.311l.02-.569A12.693,12.693,0,0,1,22.467,22.463h0A12.693,12.693,0,0,1,34.747,35.555Z" transform="translate(-9.355 -22.456)"/></g><g transform="translate(44.521 161.083)"><path class="c" d="M31.1,30.346a10.024,10.024,0,0,1,.3,2.83l-.053,1.613L9.763,34.1l.053-1.613A10.19,10.19,0,0,1,20.33,22.623l1.217.04a10.191,10.191,0,0,1,8.914,5.878" transform="translate(-9.763 -22.617)"/></g><g transform="translate(7.807 158.678)"><path class="p" d="M6.8,40.1a.877.877,0,0,1-.879-.807l-.053-.628a15.02,15.02,0,0,1,7.26-14.21.883.883,0,1,1,.9,1.521A13.244,13.244,0,0,0,7.61,38.264l26.258-2.387a13.212,13.212,0,0,0-14.3-11.691,13.536,13.536,0,0,0-3.081.655.885.885,0,1,1-.575-1.673,15.286,15.286,0,0,1,3.491-.747A14.965,14.965,0,0,1,35.646,35.963l.06.622a.915.915,0,0,1-.2.648.889.889,0,0,1-.6.317L6.882,40.1C6.856,40.1,6.829,40.1,6.8,40.1Z" transform="translate(-5.809 -22.358)"/></g><g transform="translate(39.852 158.714)"><path class="p" d="M35.518,37.8h-.026l-25.378-.813A.874.874,0,0,1,9.5,36.7a.894.894,0,0,1-.238-.635l.02-.569A13.582,13.582,0,0,1,30.209,24.525a14.178,14.178,0,0,1,3.015,2.658l.278.383a15.7,15.7,0,0,1,1.779,2.9.884.884,0,1,1-1.62.708,14.716,14.716,0,0,0-1.6-2.585l-.284-.4a12.136,12.136,0,0,0-2.546-2.2,11.818,11.818,0,0,0-18.178,9.244l23.606.754a11.918,11.918,0,0,0-.39-3.108.882.882,0,0,1,1.706-.45,13.477,13.477,0,0,1,.443,3.928l-.02.569A.88.88,0,0,1,35.518,37.8Z" transform="translate(-9.26 -22.362)"/></g><g transform="translate(2.082 171.112)"><path class="h" d="M77.1,24.379l-.741,2.215-2.8,8.358-61.753-.43L8.863,34.5,5.193,23.7Z" transform="translate(-5.193 -23.697)"/></g><g transform="translate(2.082 171.106)"><path class="w" d="M11.587,33.84c.086.238.165.463.225.681L8.869,34.5,5.193,23.7l71.91.674-.741,2.222H11.21C11.21,26.6,8.876,26.586,11.587,33.84Z" transform="translate(-5.193 -23.697)"/></g><g transform="translate(3.238 176.242)"><path class="p" d="M41.819,31.042h0L7.825,30.811a.888.888,0,0,1-.833-.6L5.365,25.415a.883.883,0,0,1,1.673-.569l1.428,4.2,33.36.225a.886.886,0,0,1-.007,1.772Z" transform="translate(-5.317 -24.25)"/></g><g transform="translate(1.202 170.23)"><path class="p" d="M74.35,36.625h0L47.537,36.44a.883.883,0,1,1,.007-1.766h.007l26.165.179,2.949-8.814-69.45-.655.747,2.2a.882.882,0,0,1-1.673.562L5.145,24.769a.885.885,0,0,1,.119-.8.811.811,0,0,1,.721-.364l71.91.681a.857.857,0,0,1,.708.37.891.891,0,0,1,.119.793L75.184,36.023A.882.882,0,0,1,74.35,36.625Z" transform="translate(-5.098 -23.602)"/></g><g transform="translate(62.737 207.777)"><path class="p" d="M16.42,38.518a.882.882,0,0,1-.813-.542L11.792,28.87a.885.885,0,1,1,1.633-.681l3.815,9.105a.89.89,0,0,1-.476,1.157A1.056,1.056,0,0,1,16.42,38.518Z" transform="translate(-11.725 -27.646)"/></g><g transform="translate(47.499 213.507)"><path class="p" d="M12.944,34.245a.881.881,0,0,1-.8-.509l-1.977-4.212a.884.884,0,0,1,1.6-.754l1.977,4.212a.887.887,0,0,1-.423,1.177A.869.869,0,0,1,12.944,34.245Z" transform="translate(-10.084 -28.263)"/></g><g transform="translate(122.211 160.675)"><path class="x" d="M22.85,76.382A4.78,4.78,0,0,1,20.1,67.733L48.4,47.227a5.191,5.191,0,0,0,1.984-5.521c-.661-2.572.2-5.462,3.749-8.6.364-.317,8.874-7.849,11.592-10.256a1.1,1.1,0,0,1,1.561.093,1.17,1.17,0,0,1-.1,1.646L56.441,34.108a1.171,1.171,0,0,0-.1,1.653c.013.013.02.026.033.033a1.161,1.161,0,0,0,1.62.066L68.74,26.345a1.169,1.169,0,0,1,1.646.1l.013.013a1.164,1.164,0,0,1-.106,1.646L59.555,37.613a1.174,1.174,0,1,0,1.554,1.759l10.745-9.515a1.161,1.161,0,0,1,1.64.1l.013.007a1.169,1.169,0,0,1-.1,1.646L62.663,41.124a1.174,1.174,0,0,0,1.554,1.759l10.745-9.515a1.163,1.163,0,0,1,1.646.1,1.1,1.1,0,0,1-.093,1.554C73.8,37.428,65.282,44.966,64.925,45.283c-3.538,3.134-6.513,3.65-8.986,2.678a5.229,5.229,0,0,0-5.726,1.3l-23.785,25.6A4.888,4.888,0,0,1,22.85,76.382Z" transform="translate(-18.13 -22.573)"/></g><g transform="translate(122.211 160.675)"><path class="y" d="M18.175,72.229a4.728,4.728,0,0,1,1.924-4.5L48.4,47.227a5.191,5.191,0,0,0,1.984-5.521c-.661-2.572.2-5.462,3.749-8.6.364-.317,8.874-7.849,11.592-10.256a1.1,1.1,0,0,1,1.561.093,1.17,1.17,0,0,1-.1,1.646L56.441,34.108a1.171,1.171,0,0,0-.1,1.653c.013.013.02.026.033.033a19.574,19.574,0,0,0-3.419,4.1c-1.951,3.928.377,5.376-10.018,12.874C34.746,58.667,23.035,68.347,18.175,72.229Z" transform="translate(-18.13 -22.573)"/></g><g transform="translate(142.146 177.228)"><path class="z" d="M20.865,40.1a.588.588,0,0,1-.344-1.065l9.747-7.062a4.6,4.6,0,0,0,1.759-4.9,6.952,6.952,0,0,1-.212-2.169.6.6,0,0,1,.628-.549.591.591,0,0,1,.549.628,5.791,5.791,0,0,0,.172,1.8,5.752,5.752,0,0,1-2.209,6.143l-9.747,7.062A.563.563,0,0,1,20.865,40.1Z" transform="translate(-20.276 -24.356)"/></g><g transform="translate(131.927 160.069)"><path class="z" d="M19.767,73.8a.592.592,0,0,1-.436-.992L41.086,49.388A5.782,5.782,0,0,1,47.46,47.94c2.513.992,5.33.126,8.385-2.572.357-.317,8.742-7.737,11.492-10.177l.1-.086a.5.5,0,0,0,.172-.35.5.5,0,0,0-.132-.37.544.544,0,0,0-.4-.192.567.567,0,0,0-.417.145L55.917,43.847a1.759,1.759,0,0,1-2.923-1.422,1.74,1.74,0,0,1,.589-1.21l10.745-9.509a.576.576,0,0,0,.046-.813c-.013-.013-.026-.033-.04-.046a.58.58,0,0,0-.364-.165.567.567,0,0,0-.417.145L52.81,40.336A1.761,1.761,0,0,1,50.475,37.7l10.745-9.509a.571.571,0,0,0,.053-.813.175.175,0,0,1-.033-.04.55.55,0,0,0-.37-.165.567.567,0,0,0-.417.145L49.708,36.824a1.76,1.76,0,0,1-2.48-.152,1.758,1.758,0,0,1-.443-1.276,1.74,1.74,0,0,1,.589-1.21l10.745-9.509a.582.582,0,0,0,.053-.813.516.516,0,0,0-.734-.046c-2.447,2.169-11.221,9.938-11.592,10.262a13.6,13.6,0,0,0-2.79,3.267.591.591,0,0,1-1.025-.589,14.758,14.758,0,0,1,3.035-3.564c.377-.331,9.145-8.094,11.592-10.262a1.7,1.7,0,0,1,2.394.152,1.758,1.758,0,0,1-.152,2.48L48.154,35.072a.584.584,0,0,0-.192.4.567.567,0,0,0,.145.417.558.558,0,0,0,.4.192.567.567,0,0,0,.417-.145L59.673,26.43a1.763,1.763,0,0,1,1.276-.436,1.713,1.713,0,0,1,1.2.589c.013.02.026.033.04.053a1.759,1.759,0,0,1-.185,2.433L51.262,38.577a.581.581,0,0,0,.767.873l10.745-9.509a1.759,1.759,0,0,1,2.48.152c.013.02.033.04.046.06a1.757,1.757,0,0,1-.192,2.427L54.364,42.095a.584.584,0,0,0-.192.4.567.567,0,0,0,.145.417.559.559,0,0,0,.4.192.532.532,0,0,0,.417-.145l10.745-9.509a1.763,1.763,0,0,1,1.276-.436,1.713,1.713,0,0,1,1.2.589,1.677,1.677,0,0,1,.423,1.217,1.655,1.655,0,0,1-.569,1.164l-.1.086c-2.757,2.44-11.135,9.866-11.5,10.177-3.405,3.009-6.632,3.948-9.588,2.784a4.61,4.61,0,0,0-5.078,1.157L20.2,73.609A.555.555,0,0,1,19.767,73.8Z" transform="translate(-19.176 -22.508)"/></g><g transform="translate(121.625 193.674)"><path class="z" d="M23.446,47.525h-.079a5.365,5.365,0,0,1-3.088-9.707L36.254,26.24a.587.587,0,0,1,.688.952L20.966,38.77a4.193,4.193,0,0,0-.681,6.169,4.232,4.232,0,0,0,3.095,1.415,4.092,4.092,0,0,0,3.114-1.342.59.59,0,0,1,.866.8A5.346,5.346,0,0,1,23.446,47.525Z" transform="translate(-18.066 -26.127)"/></g><g transform="translate(109.273 124.596)"><path class="aa" d="M53.021,37.67c-2.347,4.179-5.025,5.667-7.71,5.548a5.291,5.291,0,0,0-5.045,3.148L26.01,78.78a4.839,4.839,0,0,1-8.973-.278,4.423,4.423,0,0,1-.179-.6,4.844,4.844,0,0,1,.747-3.848L37.879,45.023a5.274,5.274,0,0,0,.06-5.945c-1.488-2.235-1.613-5.29.727-9.476,3.571-6.341,12.326-12.345,15.407-10.613a3.246,3.246,0,0,1,1.263,1.5C57.015,24.088,56.01,32.347,53.021,37.67Z" transform="translate(-16.736 -18.688)"/></g><g transform="translate(109.273 124.596)"><path class="ab" d="M55.342,20.491c-.106.43-.2.708-.2.708s-15.228,2.123-15.83,18.9c0,0,1.1,2.949-5.918,13.972C28.258,62.13,20.726,73.159,17.037,78.5a4.423,4.423,0,0,1-.179-.6,4.844,4.844,0,0,1,.747-3.848L37.879,45.023a5.274,5.274,0,0,0,.06-5.945c-1.488-2.235-1.613-5.29.727-9.476,3.571-6.341,12.326-12.345,15.407-10.613A3.154,3.154,0,0,1,55.342,20.491Z" transform="translate(-16.736 -18.688)"/></g><g transform="translate(108.506 163.928)"><path class="z" d="M22.265,47.459a5.726,5.726,0,0,1-5.587-4.45.882.882,0,1,1,1.719-.4,3.956,3.956,0,0,0,7.479.708l8.742-19.87a.882.882,0,1,1,1.613.714l-8.742,19.87a5.717,5.717,0,0,1-3.425,3.128A5.518,5.518,0,0,1,22.265,47.459Z" transform="translate(-16.654 -22.924)"/></g><g transform="translate(112.147 145.117)"><path class="z" d="M17.924,52.494a.883.883,0,0,1-.721-1.389l17.384-24.9a4.358,4.358,0,0,0,.5-4.106.884.884,0,0,1,1.646-.641,6.133,6.133,0,0,1-.694,5.759l-17.384,24.9A.891.891,0,0,1,17.924,52.494Z" transform="translate(-17.046 -20.898)"/></g><g transform="translate(128.506 123.717)"><path class="z" d="M20.023,39.215a.885.885,0,0,1-.84-.6c-.82-2.453-.3-5.363,1.547-8.649a27.55,27.55,0,0,1,8.153-8.629c1.706-1.17,5.931-3.743,8.457-2.328,1.375.767,2.228,2.638,2.46,5.4a.882.882,0,0,1-1.759.145c-.179-2.1-.747-3.557-1.561-4.007-.919-.516-3.306-.02-6.593,2.235a25.953,25.953,0,0,0-7.617,8.041c-1.594,2.83-2.07,5.263-1.415,7.221a.883.883,0,0,1-.555,1.118A.828.828,0,0,1,20.023,39.215Z" transform="translate(-18.808 -18.593)"/></g><g transform="translate(127.92 132.038)"><path class="z" d="M19.627,49.7a.985.985,0,0,1-.357-.073.885.885,0,0,1-.45-1.164l4-9.092A6.128,6.128,0,0,1,28.712,35.7c2.625.112,4.946-1.607,6.9-5.1a26.11,26.11,0,0,0,2.943-10.3.882.882,0,0,1,1.759.132A27.969,27.969,0,0,1,37.15,31.46c-2.314,4.12-5.2,6.13-8.517,6a4.446,4.446,0,0,0-4.2,2.619l-4,9.092A.88.88,0,0,1,19.627,49.7Z" transform="translate(-18.744 -19.489)"/></g><g transform="translate(13.381 8.036)"><path class="h" d="M50.675,7.122l-38.4,53.8a.623.623,0,0,1-.866.145L6.669,57.687a.623.623,0,0,1-.126-.893l17.6-21.94a.618.618,0,0,0-.126-.893l-6.7-4.787a.621.621,0,0,1,.013-1.018L49.815,6.249A.622.622,0,0,1,50.675,7.122Z" transform="translate(-6.409 -6.135)"/></g><g transform="translate(14.804 9.462)"><path class="ac" d="M48.486,7.146,11,59.662a.554.554,0,0,1-.747.212l-3.67-2.619c-.225-.159,1.514.965,1.732.688l15.2-21.834a3.266,3.266,0,0,0-.053-2.063l-5.2-3.71a.6.6,0,0,1,.106-.926L47.844,6.425C48.367,6.022,48.876,6.59,48.486,7.146Z" transform="translate(-6.563 -6.289)"/></g><g transform="translate(28.281 7.155)"><path class="k" d="M8.893,48.706a.851.851,0,0,1-.509-.165.88.88,0,0,1-.2-1.23L35.826,8.575,34.073,9.752a.881.881,0,0,1-.985-1.461L36.044,6.3a1.5,1.5,0,0,1,2.063,2.123L9.614,48.342A.9.9,0,0,1,8.893,48.706ZM36.665,7.392Z" transform="translate(-8.014 -6.041)"/></g><g transform="translate(36.594 10.704)"><path class="k" d="M9.794,17.774a.882.882,0,0,1-.5-1.613L23.521,6.573a.881.881,0,1,1,.985,1.461L10.283,17.622A.873.873,0,0,1,9.794,17.774Z" transform="translate(-8.909 -6.423)"/></g><g transform="translate(12.501 22.143)"><path class="k" d="M12.553,49.476a1.519,1.519,0,0,1-.873-.278L6.945,45.82a1.5,1.5,0,0,1-.615-1.005,1.525,1.525,0,0,1,.3-1.151l17.43-21.728-6.48-4.629a1.509,1.509,0,0,1-.628-1.25,1.489,1.489,0,0,1,.668-1.223L28.045,7.8a.881.881,0,0,1,.985,1.461L18.92,16.084l6.394,4.569a1.5,1.5,0,0,1,.3,2.169L8.2,44.543l4.3,3.068,6.116-8.57a.882.882,0,1,1,1.435,1.025l-6.269,8.781A1.5,1.5,0,0,1,12.553,49.476Zm-4.582-5.1ZM24.3,22.094Zm-.053-.384ZM18.616,16.3Z" transform="translate(-6.315 -7.655)"/></g><g transform="translate(25.834 50.198)"><path class="k" d="M8.63,13.724a.851.851,0,0,1-.509-.165.88.88,0,0,1-.2-1.23l.913-1.283a.882.882,0,1,1,1.435,1.025L9.35,13.354A.89.89,0,0,1,8.63,13.724Z" transform="translate(-7.751 -10.676)"/></g><g transform="translate(43.456 55.475)"><path class="h" d="M50.017,87.227H47.405A37.757,37.757,0,0,1,9.648,49.47V49A37.757,37.757,0,0,1,47.405,11.244h2.612A37.757,37.757,0,0,1,87.774,49v.469A37.753,37.753,0,0,1,50.017,87.227Z" transform="translate(-9.648 -11.244)"/></g><g transform="translate(38.956 61.2)"><path class="k" d="M10.126,36.367a1.394,1.394,0,0,1-.172-.013.966.966,0,0,1-.774-1.124A40.623,40.623,0,0,1,22.326,12.1.965.965,0,0,1,23.6,13.548,38.709,38.709,0,0,0,11.078,35.567.968.968,0,0,1,10.126,36.367Z" transform="translate(-9.164 -11.861)"/></g><g transform="translate(38.299 86.978)"><path class="k" d="M52.827,60.082h-3.22A40.564,40.564,0,0,1,9.093,19.568a39.273,39.273,0,0,1,.2-4.06.967.967,0,1,1,1.924.192c-.126,1.263-.192,2.566-.192,3.862A38.631,38.631,0,0,0,49.614,58.145h3.22A38.341,38.341,0,0,0,85.757,39.683.966.966,0,1,1,87.4,40.695,40.271,40.271,0,0,1,52.827,60.082Z" transform="translate(-9.093 -14.637)"/></g><g transform="translate(55.902 51.395)"><path class="k" d="M72.754,69.477a.94.94,0,0,1-.417-.1.963.963,0,0,1-.45-1.289,38.192,38.192,0,0,0,3.829-16.762A38.631,38.631,0,0,0,37.133,12.742h-3.22a38.44,38.44,0,0,0-21.418,6.48.967.967,0,1,1-1.078-1.607A40.318,40.318,0,0,1,33.906,10.8h3.22A40.56,40.56,0,0,1,77.64,51.319a40.058,40.058,0,0,1-4.02,17.609A.954.954,0,0,1,72.754,69.477Z" transform="translate(-10.989 -10.805)"/></g><g transform="translate(62.149 60.904)"><path class="ad" d="M11.661,31.467s5.9-7.9,12.6-12.193,7.115-3.868,11.195-5.125,3.557-1.885,5.753-2.3-.106,6.169,0,8.16S11.661,31.467,11.661,31.467Z" transform="translate(-11.661 -11.829)"/></g><g transform="translate(59.789 60.022)"><path class="k" d="M11.407,33.933l1.653-2.209c.245-.331,6.077-8.08,12.835-12.412,5.587-3.584,6.9-3.948,9.509-4.675.555-.152,1.17-.324,1.9-.549a15.379,15.379,0,0,0,3.524-1.455,6.483,6.483,0,0,1,2.321-.866,1.535,1.535,0,0,1,1.422.4c.906.906.615,2.79.033,5.792a16.157,16.157,0,0,0-.41,2.79c.046.893.1,1.9-15.321,7.353-7.327,2.592-14.766,4.966-14.838,4.992ZM43.358,13.527a4.778,4.778,0,0,0-1.66.648,17.22,17.22,0,0,1-3.868,1.607c-.754.231-1.382.41-1.951.562-2.44.681-3.67,1.018-9.026,4.457a52.184,52.184,0,0,0-10.527,9.7c12.259-3.994,24.6-8.51,26.112-9.912a19.6,19.6,0,0,1,.443-2.969A16.641,16.641,0,0,0,43.358,13.527Z" transform="translate(-11.407 -11.734)"/></g><g transform="translate(49.393 45.362)"><path class="g" d="M108.576,37.037c-4.172-1.389-14.6-4.08-21.6.952C78.046,44.4,77.121,45.937,74.4,51.518s-5.217,7.393-5.839,7.809c-.344.225-.053.754.509,1.184a2.8,2.8,0,0,0,1.792.628c1.461,1.051-1.534,5.726-8.16,8.583s-7.67,3-9.767,3.28S44.3,77.392,38.927,77.319c-1.567-.179-1.157-1.627-.9-4.06a18.513,18.513,0,0,0-.007-4.5c-.7-5.111-2.374-2.949-2.519,1.375s-1.673,6.275-3.762,5.72-7.254-2.929-11.717-3.419-7.809.278-8.993-.417-1.19-2.863,1.812-6.209a5.769,5.769,0,0,0,1.322-3.557c.833-4.847,2-9.105,5.1-13.073,3.147-4.027,8.285-7.75,17.073-11.479C53.779,30.318,63.81,31.31,69.96,33.241s13.807,1.68,15.764-7.108A51.078,51.078,0,0,0,86.59,10.8a.583.583,0,0,1,.965-.5q.387.347.853.833c2.433,2.585,5.951,8.087,3.432,16.8a.579.579,0,0,0,.608.741,19.519,19.519,0,0,1,16.769,7.439A.583.583,0,0,1,108.576,37.037Z" transform="translate(-10.288 -10.155)"/></g><g transform="translate(58.374 45.362)"><path class="s" d="M70.694,37.056c-14.23,4.8-13.542-12.292-59.439,12.127C14.4,45.157,19.54,41.434,28.328,37.7,45.765,30.318,55.8,31.31,61.946,33.241s13.807,1.68,15.764-7.108A51.077,51.077,0,0,0,78.576,10.8a.583.583,0,0,1,.965-.5q.387.347.853.833C81.274,17.266,82.332,33.135,70.694,37.056Z" transform="translate(-11.255 -10.155)"/></g><g transform="translate(76.887 95.724)"><path class="ad" d="M38.173,24.783c-6.632,2.863-7.67,3-9.767,3.28s-8.642,4.391-14.012,4.324c-1.567-.185-1.157-1.627-.893-4.06,2.268-.714,7.128-3.769,12.511-4.986A59,59,0,0,0,44.54,15.579a2.823,2.823,0,0,0,1.8.628C47.794,17.252,44.8,21.927,38.173,24.783Z" transform="translate(-13.249 -15.579)"/></g><g transform="translate(48.497 66.173)"><path class="k" d="M20.822,54.756a.5.5,0,0,1-.1-.007,36.952,36.952,0,0,0-5.416-.132c-1.865.053-3.095.086-3.934-.4A2.377,2.377,0,0,1,10.229,52.5c-.245-1.541.7-3.564,2.738-5.845a4.879,4.879,0,0,0,1.1-2.943.812.812,0,0,1,.013-.179c1.633-9.528,4.338-17.43,22.707-25.213,8.953-3.8,16.961-5.786,23.8-5.925a.883.883,0,1,1,.033,1.766c-6.619.126-14.408,2.076-23.157,5.779-17.49,7.413-20.1,14.851-21.642,23.8A6.692,6.692,0,0,1,14.3,47.8c-2.387,2.671-2.387,4.053-2.334,4.41a.6.6,0,0,0,.284.469,8.945,8.945,0,0,0,3,.159,39.5,39.5,0,0,1,5.654.139.883.883,0,0,1,.78.972A.85.85,0,0,1,20.822,54.756Z" transform="translate(-10.191 -12.396)"/></g><g transform="translate(60.711 44.494)"><path class="k" d="M28.954,78.98c-.079,0-.159,0-.231-.007a2.075,2.075,0,0,1-1.468-.747c-.628-.793-.489-1.891-.311-3.405a19.412,19.412,0,0,0,.1-5.164,12.132,12.132,0,0,0-.324-1.64,10.988,10.988,0,0,0-.43,2.923c-.1,2.989-.84,5.085-2.162,6.064a3.077,3.077,0,0,1-2.718.483c-.661-.179-1.594-.516-2.671-.913a54.784,54.784,0,0,0-6.546-2.07.882.882,0,0,1,.4-1.719,56.47,56.47,0,0,1,6.758,2.136c1.038.377,1.931.708,2.519.86a1.348,1.348,0,0,0,1.21-.192c.846-.628,1.375-2.341,1.448-4.7.04-1.2.3-5.1,2.156-5.2,1.408-.086,1.878,1.957,2.116,3.736a20.947,20.947,0,0,1-.093,5.614,5.58,5.58,0,0,0-.06,2.1.531.531,0,0,0,.245.079c3.326.007,7.274-1.693,10.143-2.956a17.193,17.193,0,0,1,3.7-1.362c2-.264,3-.4,9.535-3.214,4.43-1.911,7.181-4.655,7.856-6.4a2.125,2.125,0,0,0,.132-.509,3.52,3.52,0,0,1-2.731-1.964,1.225,1.225,0,0,1,.469-1.441c.853-.562,3.088-2.42,5.541-7.459,2.8-5.759,3.809-7.366,12.848-13.86,6.817-4.9,16.61-2.857,21.4-1.4a18.717,18.717,0,0,0-15.341-6.321,1.469,1.469,0,0,1-1.263-.536,1.44,1.44,0,0,1-.271-1.329c2.48-8.59-1.2-13.886-3.452-16.181A51.4,51.4,0,0,1,76.5,27.106c-.767,3.445-2.427,5.925-4.926,7.366-4.067,2.347-9.244,1.256-11.968.4a28.766,28.766,0,0,0-5.059-1.1.883.883,0,0,1,.218-1.752,30.433,30.433,0,0,1,5.363,1.17c2.447.774,7.075,1.766,10.553-.245,2.056-1.184,3.425-3.28,4.08-6.216a49.782,49.782,0,0,0,.853-15.056,1.468,1.468,0,0,1,2.453-1.223c2.321,2.1,7.373,8.047,4.649,18.111A20.535,20.535,0,0,1,99.832,36.35a1.467,1.467,0,0,1-1.607,2.314C94.192,37.315,84.082,34.7,77.41,39.5c-8.715,6.262-9.595,7.657-12.292,13.2-2.295,4.721-4.516,6.91-5.693,7.829a2.045,2.045,0,0,0,1.309.522.918.918,0,0,1,.562.165A1.828,1.828,0,0,1,62.009,63c-.238,2.242-3.491,5.918-9.039,8.312-6.758,2.916-7.842,3.062-10,3.346a18.339,18.339,0,0,0-3.22,1.23C36.737,77.188,32.65,78.98,28.954,78.98ZM76.867,11.738Zm.5-.251Z" transform="translate(-11.506 -10.062)"/></g><g transform="translate(59.941 91.916)"><path class="h" d="M14.9,22.125h0a3.478,3.478,0,0,1-3.478-3.478h0A3.478,3.478,0,0,1,14.9,15.169h0a3.478,3.478,0,0,1,3.478,3.478h0A3.482,3.482,0,0,1,14.9,22.125Z" transform="translate(-11.424 -15.169)"/></g><g transform="translate(58.235 91.294)"><path class="k" d="M15.882,24.385a4.642,4.642,0,1,1,3.452-7.75.623.623,0,0,1-.926.833,3.4,3.4,0,1,0,.873,2.275,3.6,3.6,0,0,0-.165-1.051.625.625,0,1,1,1.19-.384,4.631,4.631,0,0,1-4.424,6.077Z" transform="translate(-11.24 -15.102)"/></g><g transform="translate(29.82 150.335)"><path class="p" d="M12.228,26.1a.591.591,0,0,1-.417-.172L8.353,22.467a.589.589,0,1,1,.833-.833l3.458,3.458a.589.589,0,0,1-.417,1.005Z" transform="translate(-8.18 -21.46)"/></g><g transform="translate(36.948 150.421)"><path class="p" d="M13,26.106a.591.591,0,0,1-.417-.172L9.121,22.476a.589.589,0,0,1,.833-.833L13.412,25.1A.589.589,0,0,1,13,26.106Z" transform="translate(-8.947 -21.469)"/></g><g transform="translate(33.992 159.995)"><path class="p" d="M12.671,27.131a.591.591,0,0,1-.417-.172L8.8,23.507a.589.589,0,0,1,.833-.833l3.452,3.452a.589.589,0,0,1-.417,1.005Z" transform="translate(-8.629 -22.5)"/></g><g transform="translate(25.773 146.288)"><path class="p" d="M10.589,24.458a.591.591,0,0,1-.417-.172L7.918,22.031a.589.589,0,0,1,.833-.833l2.255,2.255a.589.589,0,0,1-.417,1.005Z" transform="translate(-7.744 -21.024)"/></g></g><g transform="translate(9.069 158.771)"><circle class="l" cx="3.167" cy="3.167" r="3.167"/></g><g transform="translate(162.814 133.934)"><path class="v" d="M23.1,20.449a2.559,2.559,0,1,1,2.559-2.559A2.565,2.565,0,0,1,23.1,20.449Zm0-3.8A1.237,1.237,0,1,0,24.34,17.89,1.239,1.239,0,0,0,23.1,16.653Z" transform="translate(-20.545 -15.331)"/></g><g transform="translate(93.212 2.023)"><circle class="g" cx="2.486" cy="2.486" r="2.486"/></g><g transform="translate(91.869 0)"><path class="p" d="M16.733,8.564a3.829,3.829,0,1,1,3.829-3.829A3.835,3.835,0,0,1,16.733,8.564Zm0-6.335a2.506,2.506,0,1,0,2.506,2.506A2.509,2.509,0,0,0,16.733,2.23Z" transform="translate(-12.905 -0.907)"/></g><g transform="translate(47.143 42.372)"><circle class="c" cx="1.68" cy="1.68" r="1.68"/></g></g></g></svg>