<svg xmlns="http://www.w3.org/2000/svg" width="371.887" height="127.15" viewBox="0 0 371.887 127.15"><defs><style>.a{fill:#4285f4;}.b{fill:#3d7dd8;}.c{fill:#fff;}.d,.g,.h,.l,.n,.o{fill:none;stroke-miterlimit:10;}.d,.g,.h,.l{stroke:#1c1c1c;}.d,.g,.n,.o{stroke-linecap:round;}.d,.l,.o{stroke-width:2px;}.e{fill:#45cbfe;}.f{fill:#1c1c1c;}.g{stroke-width:2.5px;}.h,.n{stroke-width:1.5px;}.i{fill:#f7941d;}.j{fill:#cc7619;}.k{fill:#ffb45a;}.m{fill:#f4b400;}.n{stroke:#000;}.o{stroke:#9ac3e4;}</style></defs><g transform="translate(-81.27 -1010.133)"><g transform="translate(191.237 1011.144)"><g transform="translate(11.684 0)"><path class="a" d="M504.106,1011.6c-.087.239-.194.541-.322.9-.091.244-.186.512-.3.805-2.068,5.664-7.415,19.982-11.035,26.571-.211.38-.433.8-.669,1.255-4.942,9.388-16.006,32.916-31.434,31.8-16.167-1.172-16.3-19.172-16.3-19.172s5.726-10.9,22.17-22.991a120.961,120.961,0,0,1,11.923-7.65,188.941,188.941,0,0,1,25.53-11.931A.33.33,0,0,1,504.106,1011.6Z" transform="translate(-415.343 -1011.148)"/><path class="b" d="M564.445,1013.116c-.091.244-.186.512-.3.805-2.068,5.664-7.415,19.982-11.035,26.571-.211.38-.433.8-.669,1.255-3.059,2.279-5.462,3.513-1.895-2.428,5.966-9.941,13.781-27.1,13.781-27.1S564.375,1012.546,564.445,1013.116Z" transform="translate(-476.83 -1011.776)"/><path class="c" d="M552.594,1011.592c-.149.4-.355.987-.619,1.7,0,0-15.407,7.353-20.622,10.04-2.106,1.082-3.7.7-4.723-.235a188.928,188.928,0,0,1,25.53-11.931A.332.332,0,0,1,552.594,1011.592Z" transform="translate(-463.83 -1011.144)"/><path class="d" d="M483.625,1020.132a133.152,133.152,0,0,0-17.405,10.627c-16.444,12.088-22.17,22.987-22.17,22.987s.132,18,16.3,19.177,27.545-24.729,32.107-33.048c4.071-7.427,10.35-24.655,11.65-28.271a.332.332,0,0,0-.429-.425c-2.056.768-8.6,3.294-16.522,7.179" transform="translate(-415.343 -1011.15)"/><path class="e" d="M530.308,1074.356c-.05,2.485-4.772,5.862-9.594,11.234s-25.394,26.889-33.746,35.038a83.623,83.623,0,0,1-12.063,9.751c-10.061,6.676-24.263,12.831-41.532,11.514-26.129-1.986-41.437-17.492-49.582-31.211s-9.5-33.428-9.248-38.766c0,0-.458-24.395,13.591-39.4a.049.049,0,0,1,.008-.012c5.54-5.908,13.322-10.354,24.275-11.283a51.04,51.04,0,0,1,13.294.516.065.065,0,0,1,.017,0c28.082,5.024,36.751,34.786,38.576,50.173,2.085,17.6,12.526,33.7,29.522,15.808a118.889,118.889,0,0,1,15.073-13.752c7.757-5.631,10.969-4.533,4.322,6.981a.092.092,0,0,0,.14.116C515.722,1078.811,526.051,1069.439,530.308,1074.356Z" transform="translate(-374.515 -1016.94)"/><path d="M581.736,1075.009c-11.106,11-16.989,28.965-31.475,24.783-17.893-5.169-19.482-35.191-25.8-53.1-6.213-17.624-25.307-23.726-25.9-23.912,28.082,5.024,36.751,34.786,38.576,50.173,2.085,17.6,12.526,33.7,29.522,15.808A118.9,118.9,0,0,1,581.736,1075.009Z" transform="translate(-447.349 -1017.976)"/><path class="c" d="M474.9,1146.74c-10.061,6.676-24.263,12.831-41.532,11.514-26.129-1.986-41.437-17.492-49.582-31.211s-9.5-33.428-9.248-38.766c0,0-.458-24.395,13.591-39.4-.359.706-14.825,29.233-7.25,58.483,7.675,29.626,34.91,58.649,89.186,40.954Q472.565,1147.506,474.9,1146.74Z" transform="translate(-374.515 -1033.301)"/><path class="c" d="M476.363,1080.426h0a11.992,11.992,0,0,1-11.993-11.993h0a11.992,11.992,0,0,1,11.993-11.993h0a11.993,11.993,0,0,1,11.993,11.993h0A11.99,11.99,0,0,1,476.363,1080.426Z" transform="translate(-427.274 -1037.74)"/><path class="f" d="M484.857,1083.543h0a5.676,5.676,0,0,1-5.677-5.677h0a5.676,5.676,0,0,1,5.677-5.677h0a5.676,5.676,0,0,1,5.677,5.677h0A5.673,5.673,0,0,1,484.857,1083.543Z" transform="translate(-435.97 -1046.988)"/><path class="c" d="M478.869,1084.838h0a1.64,1.64,0,0,1-1.639-1.639h0a1.64,1.64,0,0,1,1.639-1.639h0a1.64,1.64,0,0,1,1.639,1.639h0A1.635,1.635,0,0,1,478.869,1084.838Z" transform="translate(-434.825 -1052.489)"/></g><g transform="translate(0 4.076)"><path class="d" d="M396.043,1194.418a68.339,68.339,0,0,1-12.249-15.259c-8.15-13.719-9.5-33.432-9.244-38.766,0,0-.021-1.011.07-2.754" transform="translate(-362.836 -1089.493)"/><path class="d" d="M542.311,1215.95c-6.944,7.237-14.454,14.945-18.743,19.131-8.348,8.15-27.466,23.26-53.6,21.274a60.717,60.717,0,0,1-33.122-12.39" transform="translate(-399.431 -1135.473)"/><path class="d" d="M376.43,1062.207c2.048-14.057,9.574-38.65,37.11-40.983,38.766-3.282,49.8,33.1,51.886,50.693s12.526,33.7,29.522,15.8c16.811-17.7,29.51-24.283,19.4-6.767a.092.092,0,0,0,.14.116c2-1.92,9.768-8.984,14.668-8.038a2.2,2.2,0,0,1,1.371,3.455c-1.606,2.238-5.119,5.123-8.69,9.095-1.961,2.184-6.523,7.035-11.811,12.571" transform="translate(-363.955 -1021.016)"/><path class="c" d="M600.017,1049.568h0a1.237,1.237,0,0,1-.074.314c-2.155,5.891-7.365,19.75-10.9,26.207-4.562,8.323-15.94,34.225-32.107,33.048a16.737,16.737,0,0,1-8.348-2.733l0,0c-4.141-2.807-6.127-7.217-7.076-10.763a11.631,11.631,0,0,1,1.924-9.917,91.08,91.08,0,0,1,19.375-18.747c12.914-9.491,29.064-16.3,35.4-18.8A1.337,1.337,0,0,1,600.017,1049.568Z" transform="translate(-460.655 -1036.908)"/><path class="a" d="M609.7,1051.69a1.207,1.207,0,0,1-.074.31c-2.155,5.891-7.365,19.75-10.9,26.207-4.562,8.323-15.94,34.225-32.107,33.048a16.735,16.735,0,0,1-8.348-2.733c.314.12,13.4,5.136,26.463-11.766C597.738,1079.92,606.106,1059.319,609.7,1051.69Z" transform="translate(-470.724 -1039.026)"/><path class="d" d="M586.467,1064.46a139.337,139.337,0,0,0-20.382,12.134,91.081,91.081,0,0,0-19.375,18.743" transform="translate(-463.936 -1046.525)"/><path class="d" d="M540.868,1090.812a9.94,9.94,0,0,0,.161,3.328c1.189,5.417,4.793,13.888,15.717,14.685,16.167,1.177,27.545-24.729,32.107-33.048,3.678-6.713,9.165-21.439,11.147-26.876a1.015,1.015,0,0,0-1.321-1.292c-2.134.826-5.772,2.3-10.185,4.31" transform="translate(-460.464 -1036.588)"/><path class="d" d="M472.5,1084.917h0a12.754,12.754,0,0,1-12.757-12.757h0a12.731,12.731,0,0,1,4.133-9.4" transform="translate(-412.871 -1045.526)"/><path class="d" d="M475.53,1056.257a12.7,12.7,0,0,1,6.238-1.627h0a12.754,12.754,0,0,1,12.757,12.757h0a12.765,12.765,0,0,1-9.537,12.348" transform="translate(-422.143 -1040.753)"/><path class="g" d="M475.53,1076.658h0a6.238,6.238,0,0,1,6.238-6.238h0a6.238,6.238,0,0,1,6.238,6.238h0a6.238,6.238,0,0,1-6.238,6.238h0a6.24,6.24,0,0,1-5.928-4.294" transform="translate(-422.143 -1050.024)"/><path class="h" d="M356.95,1085.45a6.226,6.226,0,0,1,3.484,4.471c.471,3.179-3.418,7.526.434,10.9s10.09,4.983,9.685,9.388" transform="translate(-352.518 -1058.849)"/><path class="c" d="M392.029,1145l-30.769,19.9a1.691,1.691,0,0,1-2.337-.5l-11.869-18.351a1.691,1.691,0,0,1,.5-2.337l30.769-19.9a1.691,1.691,0,0,1,2.337.5l11.869,18.351A1.684,1.684,0,0,1,392.029,1145Z" transform="translate(-346.548 -1081.216)"/><path class="i" d="M394.475,1144.839l-28.428,18.388a1.585,1.585,0,0,1-2.192-.467l-8.476-13.1-2.824-4.364a1.582,1.582,0,0,1,.467-2.192l13.31-8.612,15.118-9.78a1.591,1.591,0,0,1,2.2.471l.219.339,1.556,2.407v0l9.524,14.722A1.578,1.578,0,0,1,394.475,1144.839Z" transform="translate(-349.786 -1081.751)"/><path class="j" d="M386.921,1131.437h0l-9.978,20.11-20.064,1.622-2.824-4.364a1.582,1.582,0,0,1,.467-2.192l13.31-8.612,17.529-8.971Z" transform="translate(-350.667 -1084.437)"/><path class="d" d="M396.866,1183.5l-26.174,16.931a1.1,1.1,0,0,1-1.523-.326l-5.478-8.467" transform="translate(-356.475 -1116.42)"/><path class="d" d="M351.515,1153.122l-5.107-7.9a1.1,1.1,0,0,1,.326-1.523l31.76-20.543a1.1,1.1,0,0,1,1.523.326l12.509,19.342a1.1,1.1,0,0,1-.326,1.523l-1.936,1.255" transform="translate(-346.224 -1080.886)"/><path class="c" d="M370.079,1145.827l-20.9,1.532a1.981,1.981,0,0,1-1.812-.9h0a1.987,1.987,0,0,1,.59-2.745l30.274-19.581a1.987,1.987,0,0,1,2.745.59l.012.017a1.982,1.982,0,0,1,.095,1.994l-9.388,18.033A1.985,1.985,0,0,1,370.079,1145.827Z" transform="translate(-346.705 -1081.373)"/><path class="k" d="M374.554,1147.19l-19.317,1.965a1.656,1.656,0,0,1-1.614-.7h0a1.783,1.783,0,0,1,.665-2.423l28.573-18.479a1.781,1.781,0,0,1,2.481.388l.008.017a1.648,1.648,0,0,1-.008,1.738l-9.413,16.163C375.615,1146.4,375.185,1147.116,374.554,1147.19Z" transform="translate(-350.42 -1083.376)"/><path class="l" d="M370.083,1145.3l-21.922,1.606a1.1,1.1,0,0,1-1-.5l-.772-1.193a1.1,1.1,0,0,1,.326-1.515l31.772-20.551a1.1,1.1,0,0,1,1.515.326l.776,1.2a1.1,1.1,0,0,1,.054,1.1l-9.859,18.933A1.09,1.09,0,0,1,370.083,1145.3Z" transform="translate(-346.213 -1080.881)"/><path class="a" d="M374.855,1092.434s7.093-2.584,9.012-6.362l-27.367-.322a.129.129,0,0,0-.045.252Z" transform="translate(-352.175 -1059.025)"/><path class="c" d="M356.2,1078.562l15.3-4.7a.1.1,0,0,1,.07,0l11.679,5.016a.1.1,0,0,1-.041.2l-26.975-.318A.1.1,0,0,1,356.2,1078.562Z" transform="translate(-352.034 -1052.043)"/><path class="m" d="M363.938,1079.5l13.5-4.145a.081.081,0,0,1,.062,0l10.3,4.426a.093.093,0,0,1-.037.177l-23.8-.281A.093.093,0,0,1,363.938,1079.5Z" transform="translate(-356.583 -1052.918)"/><path class="n" d="M375.368,1077.84l7.881,3.385a.1.1,0,0,1-.041.2l-26.975-.318a.1.1,0,0,1-.029-.2l6.407-1.969" transform="translate(-352.035 -1054.381)"/><path class="n" d="M378.84,1075.715l5.994-1.841a.1.1,0,0,1,.07,0l1.391.594" transform="translate(-365.37 -1052.049)"/></g></g><line class="o" x2="12.125" transform="translate(134.557 1038.885)"/><line class="o" x2="18.491" transform="translate(108.51 1038.885)"/><line class="o" x2="7.753" transform="translate(95.39 1038.885)"/><line class="o" x2="6.552" transform="translate(156.912 1071.905)"/><line class="o" x2="29.126" transform="translate(121.234 1071.905)"/><line class="o" x2="33.795" transform="translate(112.886 1104.928)"/><line class="o" x2="21.072" transform="translate(82.27 1104.928)"/><line class="o" x2="25.431" transform="translate(170.239 1136.279)"/><line class="o" x2="23.557" transform="translate(137.141 1136.279)"/><line class="o" x1="6.552" transform="translate(382.646 1064.118)"/><line class="o" x1="29.126" transform="translate(395.746 1064.118)"/><line class="o" x1="33.799" transform="translate(387.745 1097.142)"/><line class="o" x1="21.072" transform="translate(431.085 1097.142)"/><line class="o" x1="25.427" transform="translate(358.227 1128.493)"/><line class="o" x1="23.561" transform="translate(393.195 1128.493)"/></g></svg>