<svg xmlns="http://www.w3.org/2000/svg" xmlns:xlink="http://www.w3.org/1999/xlink" width="97" height="97" viewBox="0 0 97 97"><defs><style>.a{fill:#c44829;}.b{clip-path:url(#a);}</style><clipPath id="a"><rect class="a" width="97" height="97" transform="translate(159 274)"/></clipPath></defs><g class="b" transform="translate(-159 -274)"><g transform="translate(159 274)"><path class="a" d="M81.08,15.452H76.346a1.039,1.039,0,0,0-1.154.942h0V31.706c0,.636.754.966,1.531.966.754,0,1.531-.33,1.531-.966V26.241h2.639c3.109,0,5.536-1.484,5.536-5.347v-.141C86.427,16.889,84.072,15.452,81.08,15.452Zm2.285,5.677c0,1.837-.942,2.709-2.473,2.709H78.253v-5.7h2.638c1.531,0,2.473.872,2.473,2.709v.283Z"/><path class="a" d="M55.523,21.438a23.676,23.676,0,0,0-33.483,0,1.382,1.382,0,0,0,1.954,1.954,20.912,20.912,0,0,1,29.574,0,1.382,1.382,0,0,0,1.954-1.954Z"/><path class="a" d="M49.822,27.139a15.631,15.631,0,0,0-22.081,0,1.382,1.382,0,0,0,1.954,1.954,12.865,12.865,0,0,1,18.173,0,1.382,1.382,0,0,0,1.954-1.954Z"/><path class="a" d="M44.211,32.749a7.688,7.688,0,0,0-10.86,0A1.382,1.382,0,1,0,35.305,34.7a4.921,4.921,0,0,1,6.952,0,1.382,1.382,0,1,0,1.954-1.954Z"/><path class="a" d="M68,59.662c-.6-.329-1.188-.689-1.753-1.071l-9.14-6.175a16.655,16.655,0,0,0-9.357-2.865H30.972a16.611,16.611,0,0,0-11.8,4.874,22.394,22.394,0,0,1-5.491,4.017,3.595,3.595,0,0,0,1.657,6.785h5.72a1.382,1.382,0,0,0,0-2.764h-5.72a.831.831,0,0,1-.384-1.569,25.154,25.154,0,0,0,6.168-4.512,13.864,13.864,0,0,1,9.848-4.068h3.756v10.15H30.137a1.382,1.382,0,0,0,0,2.764h37.89a2.062,2.062,0,0,0,2.06-2.06A4.008,4.008,0,0,0,68,59.662Zm-30.507,2.8V52.315H47.748a13.9,13.9,0,0,1,7.81,2.391l9.14,6.175c.635.429,1.3.833,1.969,1.2a1.287,1.287,0,0,1,.429.381Z"/><path class="a" d="M40.915,67.329H36.647a1.382,1.382,0,1,0,0,2.764h4.268a1.382,1.382,0,1,0,0-2.764Z"/><path class="a" d="M95.808,66.169l-.436-.724a11.374,11.374,0,0,0-7.507-5.274L84.3,59.462V41.379h9.232a3.451,3.451,0,0,0,3.447-3.447V11.02a3.451,3.451,0,0,0-3.447-3.447H66.617A3.451,3.451,0,0,0,63.17,11.02V21.228a1.382,1.382,0,0,0,2.764,0V11.02a.685.685,0,0,1,.684-.684H93.529a.685.685,0,0,1,.684.684V37.932a.685.685,0,0,1-.684.684H66.617a.685.685,0,0,1-.684-.684v-7.72a1.382,1.382,0,1,0-2.764,0v7.72a3.451,3.451,0,0,0,3.447,3.447H77.086V58.028l-1.834-.365a19.484,19.484,0,0,1-6.635-3.136l-9.14-6.174a20.879,20.879,0,0,0-11.73-3.591H30.972a20.821,20.821,0,0,0-14.789,6.109,18.147,18.147,0,0,1-9.109,4.917L5.09,56.2A6.43,6.43,0,0,0,0,62.471V75.854a4.047,4.047,0,0,0,2.4,3.7L7.905,82a9.162,9.162,0,0,0,17.818.752H71.615a9.161,9.161,0,0,0,17.639,0h2.621A5.13,5.13,0,0,0,97,77.624V70.456A8.312,8.312,0,0,0,95.808,66.169ZM79.85,41.379h1.683V58.912l-1.683-.335ZM21.432,84.788A6.4,6.4,0,0,1,11.079,77.6l.026-.057c.033-.07.067-.139.1-.208.017-.033.033-.065.051-.1.032-.06.065-.119.1-.178q.035-.061.072-.121c.032-.052.064-.1.1-.155s.061-.092.093-.138.062-.091.094-.135.075-.1.114-.151.059-.078.091-.117c.045-.056.093-.111.14-.166.027-.031.053-.063.081-.094q.106-.117.218-.23l.019-.02.044-.041c.063-.062.127-.124.192-.182l.052-.045c.065-.057.13-.114.2-.169l.019-.015a6.416,6.416,0,0,1,8.06.008l.008.006c.071.058.141.119.211.181l.038.033q.12.109.236.225c.083.083.164.169.242.256.034.038.067.077.1.116s.081.095.12.143.086.11.128.165l.07.093q.076.1.147.212l.024.037A6.414,6.414,0,0,1,21.432,84.788Zm63.531,0a6.4,6.4,0,0,1-9.887-8.034l.023-.036q.071-.107.148-.212l.069-.092c.042-.056.084-.111.128-.166s.079-.095.119-.142.066-.079.1-.117c.078-.087.158-.173.242-.256a6.4,6.4,0,0,1,9.056,0c.083.083.164.169.242.256.034.038.067.078.1.117s.081.095.12.143.086.11.128.165l.069.093c.051.07.1.14.147.212l.024.036A6.415,6.415,0,0,1,84.963,84.788Zm9.274-7.165h0a2.363,2.363,0,0,1-2.36,2.36H89.6A9.052,9.052,0,0,0,87.566,74.5l-.025-.032c-.079-.1-.16-.19-.243-.284l-.063-.072c-.088-.1-.179-.192-.271-.285l-.046-.048a9.111,9.111,0,0,0-4.243-2.411,9.3,9.3,0,0,0-4.042-.1,9.1,9.1,0,0,0-4.68,2.509l-.045.048c-.093.094-.184.189-.272.286-.021.023-.04.047-.061.07-.084.094-.166.189-.246.286l-.023.03a9.054,9.054,0,0,0-2.037,5.486H26.07a9.054,9.054,0,0,0-2.041-5.492l-.017-.022c-.083-.1-.17-.2-.258-.3l-.048-.055q-.155-.171-.319-.336a9.178,9.178,0,0,0-12.964,0c-.1.1-.2.207-.3.313l-.084.1q-.1.116-.2.234l-.086.106q-.1.126-.2.256c-.02.027-.041.053-.06.08q-.26.356-.482.732L9,75.615q-.109.185-.209.375L8.785,76a9.11,9.11,0,0,0-.954,2.937L3.524,77.024a1.282,1.282,0,0,1-.76-1.17V62.471a3.655,3.655,0,0,1,2.893-3.562l1.984-.415a20.9,20.9,0,0,0,10.493-5.664,18.074,18.074,0,0,1,12.838-5.3H47.748a18.126,18.126,0,0,1,10.183,3.117l9.14,6.174a22.037,22.037,0,0,0,7.643,3.557l12.612,2.508A8.6,8.6,0,0,1,93,66.871l.437.724a5.542,5.542,0,0,1,.8,2.861Z"/><path class="a" d="M19.87,77.294a4.2,4.2,0,1,0,0,5.933A4.168,4.168,0,0,0,19.87,77.294Zm-1.954,3.979a1.432,1.432,0,1,1,0-2.025A1.422,1.422,0,0,1,17.916,81.273Z"/><path class="a" d="M83.4,77.294a4.2,4.2,0,1,0,1.229,2.966A4.167,4.167,0,0,0,83.4,77.294Zm-1.954,3.979a1.431,1.431,0,1,1,.419-1.012A1.422,1.422,0,0,1,81.447,81.273Z"/></g></g></svg>