<svg xmlns="http://www.w3.org/2000/svg" xmlns:xlink="http://www.w3.org/1999/xlink" width="260" height="260" viewBox="0 0 260 260"><defs><style>.a,.p{fill:#fff;}.a{stroke:#707070;}.b{clip-path:url(#a);}.c{fill:#f4f5f5;}.d{fill:#e2e2e2;}.e,.j{fill:#52d2ff;}.f{opacity:0.5;}.g{fill:#fdffff;}.aa,.ab,.ac,.h,.l,.n,.t,.v,.y{fill:none;stroke:#1c1c1c;stroke-miterlimit:10;}.aa,.ac,.h,.l,.n,.v,.y{stroke-linecap:round;stroke-linejoin:round;}.h{stroke-width:1.952px;}.i{fill:#f15a29;}.j{opacity:0.45;}.k,.m{fill:#d2a176;}.k{opacity:0.25;}.l{stroke-width:1.562px;}.n{stroke-width:0.304px;}.o{fill:#b28766;}.q{fill:#a57d5e;}.r{fill:#e54e61;}.s{fill:#b23f52;}.t,.v{stroke-width:0.19px;}.u{fill:#4285f4;}.w{fill:#bf916d;}.x{fill:#fbb040;}.y{stroke-width:1.509px;}.z{fill:#d64a29;}.aa{stroke-width:0.336px;}.ab,.ac{stroke-width:0.21px;}</style><clipPath id="a"><rect class="a" width="260" height="260" transform="translate(77 138)"/></clipPath></defs><g class="b" transform="translate(-77 -138)"><g transform="translate(45.384 48.483)"><rect class="c" width="242.877" height="95.291" transform="translate(40.178 222.491)"/><path class="d" d="M283.054,253.339V273.88H40.178v-27.03Z"/><path class="e" d="M133.548,317.782V243.22h56.136v74.562"/><g class="f"><path class="g" d="M167.323,317.782H155.682L133.821,264.09V243.6h3.287Z"/></g><g class="f"><path class="g" d="M189.411,317.22v.562H178L147.789,243.6H159.43Z"/></g><path class="c" d="M46.439,222.491v-69.62H276.793v69.62"/><line class="h" x1="101.443" transform="translate(93.113 317.782)"/><line class="h" x1="32.503" transform="translate(200.263 317.782)"/><line class="h" x1="4.872" transform="translate(236.599 317.782)"/><path class="h" d="M283.054,307.586v10.2H246.109"/><path class="h" d="M40.178,280.689v-58.2H283.054v80.66"/><path class="h" d="M50.765,317.782H40.178V283.445"/><line class="h" x1="31.925" transform="translate(55.074 317.782)"/><path class="i" d="M46.439,152.871,161.616,137.4l115.177,15.475"/><line class="h" x2="35.548" y2="4.77" transform="translate(241.245 148.101)"/><path class="h" d="M102.279,145.368l59.337-7.971,74.562,10.017"/><line class="h" y1="1.46" x2="10.852" transform="translate(87.928 145.837)"/><line class="h" y1="5.005" x2="37.273" transform="translate(46.439 147.867)"/><line class="h" y2="32.37" transform="translate(189.684 285.412)"/><path class="h" d="M133.548,300.613V243.22h56.136v38.632"/><line class="h" y1="13.523" transform="translate(133.548 304.26)"/><rect class="j" width="55.59" height="53.833" transform="translate(216.261 253.753)"/><g class="f"><path class="g" d="M249.763,307.586H238.122l-21.861-38.967V253.753h3.287Z"/></g><g class="f"><path class="g" d="M271.85,307.18v.406H260.436l-30.207-53.833H241.87Z"/></g><rect class="j" width="55.59" height="53.825" transform="translate(51.381 253.753)"/><g class="f"><path class="g" d="M85.867,307.586H74.226L52.365,268.618V253.753h3.287Z"/></g><g class="f"><path class="g" d="M107.955,307.18v.406H96.54L66.333,253.753H77.974Z"/></g><rect class="k" width="6.777" height="4.083" transform="translate(127.497 179.722)"/><rect class="k" width="6.777" height="4.083" transform="translate(262.528 174.818)"/><rect class="k" width="6.777" height="4.083" transform="translate(212.872 203.722)"/><rect class="k" width="6.777" height="4.083" transform="translate(53.607 203.129)"/><rect class="l" width="6.777" height="4.083" transform="translate(53.607 203.129)"/><rect class="k" width="10.126" height="4.083" transform="translate(182.033 158.727)"/><rect class="k" width="10.126" height="4.083" transform="translate(133.446 156.682)"/><rect class="k" width="10.126" height="4.083" transform="translate(190.808 189.973)"/><rect class="k" width="10.126" height="4.083" transform="translate(120.556 214.692)"/><rect class="k" width="7.605" height="4.083" transform="translate(189.411 214.692)"/><path class="h" d="M271.85,270.141V253.753h-55.59v34.541"/><path class="h" d="M216.261,293.641v13.944h55.59V273.88"/><path class="h" d="M106.971,277.73V253.753H51.381v53.833h55.59V282.914"/><path class="j" d="M189.411,222.491V168.666h-55.59v53.825"/><g class="f"><path class="g" d="M160.008,227.129h-9.143L133.688,184.96V168.869h2.584Z"/></g><g class="f"><path class="g" d="M177.348,226.692v.437h-8.963l-23.727-58.26h9.15Z"/></g><line class="h" y2="17.715" transform="translate(133.821 204.776)"/><path class="h" d="M139.653,168.666h-5.832v32.167"/><path class="h" d="M189.411,175.068v-6.4H142.792"/><line class="h" y1="44.433" transform="translate(189.411 178.059)"/><rect class="k" width="12.094" height="4.083" transform="translate(214.613 163.544)"/><rect class="l" width="12.094" height="4.083" transform="translate(214.613 163.544)"/><rect class="m" width="23.305" height="1.273" transform="translate(85.017 196.48) rotate(180)"/><line class="n" x2="17.981" transform="translate(65.045 196.477)"/><line class="n" x2="0.265" transform="translate(64.123 196.477)"/><path class="n" d="M83.619,196.477h1.4V195.2H61.711v1.273h1.882"/><path class="m" d="M74.086,201.8v4.9a2.146,2.146,0,0,0,2.147,2.147h.328a1.508,1.508,0,0,1,1.507,1.507v.039H68.6v-.055a1.508,1.508,0,0,1,1.507-1.507h.351a2.146,2.146,0,0,0,2.147-2.147V201.8h1.476Z"/><path class="o" d="M73.594,202.9v4.083a2.492,2.492,0,0,0,2.491,2.491h.187a.923.923,0,0,1,.921.921h.867s.1-1.319-1.077-1.382-2.959-.219-2.9-2.631c.055-2.381,0-4.013,0-4.013Z"/><path class="n" d="M74.086,206.7a2.146,2.146,0,0,0,2.147,2.147h.328a1.508,1.508,0,0,1,1.507,1.507v.039h-4.1"/><path class="n" d="M72.61,203.738V201.8h1.476v4.435"/><path class="n" d="M73.274,210.4H68.6v-.055a1.508,1.508,0,0,1,1.507-1.507h.351a2.146,2.146,0,0,0,2.147-2.147v-2.358"/><path class="p" d="M90.8,202.262a.46.46,0,0,0,.453-.383c.539-3.1,1.647-9.252,2.022-10.3.344-.96,1.6-.664,1.655-.648a.458.458,0,0,0,.219-.89,2.232,2.232,0,0,0-2.733,1.226c-.492,1.382-2,10.08-2.061,10.446a.465.465,0,0,0,.375.531A.116.116,0,0,0,90.8,202.262Z"/><path class="m" d="M90.724,202.254a.265.265,0,0,0,.078.008.452.452,0,0,0,.3-.117.433.433,0,0,0,.148-.265c.023-.125.047-.265.07-.4.554-3.2,1.593-8.893,1.952-9.892.344-.96,1.6-.664,1.655-.648a.462.462,0,0,0,.547-.3c0-.008.008-.016.008-.031a.456.456,0,0,0-.336-.554,2.232,2.232,0,0,0-2.733,1.226c-.422,1.195-1.6,7.815-1.96,9.861-.055.328-.094.539-.1.586A.459.459,0,0,0,90.724,202.254Z"/><path class="m" d="M83.423,210.4h.75l.328-3.631h6.48l.234,3.631h.8l-.687-8.916-.031-.344h-7.12Z"/><path class="q" d="M90.9,201.528l.047.617.671,8.245h.234l-.687-8.908c.554-3.2,1.593-8.893,1.952-9.892.344-.96,1.6-.664,1.655-.648a.462.462,0,0,0,.547-.3c-.609-.133-1.811-.273-2.3.492-.562,1.038-1.765,8.237-2.053,10.017C90.927,201.387,90.9,201.528,90.9,201.528Z"/><path class="n" d="M91.52,195.321c-.351,1.8-.7,3.779-.929,5.059l-.172,1"/><path class="n" d="M93.48,191.238a1.648,1.648,0,0,1,1.452-.3.458.458,0,0,0,.219-.89,2.232,2.232,0,0,0-2.733,1.226c-.164.461-.437,1.733-.734,3.232"/><path class="n" d="M91.325,201.458c.554-3.209,1.585-8.869,1.944-9.869"/><path class="n" d="M84.009,203.16l-.586,7.238h.75l.328-3.631h6.48l.234,3.631h.8l-.687-8.916"/><path class="n" d="M90.193,201.138h-6.02l-.1,1.28"/><path class="r" d="M83.369,201.372h7.019l.242-1.335H83.369a.671.671,0,0,0-.671.671h0A.67.67,0,0,0,83.369,201.372Z"/><path class="s" d="M90.419,200.825H82.854s-.148.609,1.148.547,6.348-.047,6.348-.047Z"/><path class="n" d="M86.312,200.037h4.341l-.234,1.335h-7.05a.671.671,0,0,1-.671-.671h0a.671.671,0,0,1,.671-.671h2.319"/><path class="p" d="M84.571,206h6.316l-.226-3.31H84.8Z"/><line class="n" x2="0.703" transform="translate(86.671 206.002)"/><path class="n" d="M88.116,206h2.772l-.226-3.31H84.8L84.571,206h1.593"/><rect class="m" width="24.961" height="1.273" transform="translate(85.845 195.594) rotate(180)"/><rect class="n" width="24.961" height="1.273" transform="translate(85.845 195.594) rotate(180)"/><path class="p" d="M81.417,194.329l-8.011,8.783a.071.071,0,0,1-.094,0l-8.182-8.783Z"/><path class="c" d="M79.848,195.313l-6.839,7.5a.061.061,0,0,1-.086,0l-7.5-8.034H79.606A.322.322,0,0,1,79.848,195.313Z"/><path class="n" d="M75.3,201.028l-1.9,2.077a.071.071,0,0,1-.094,0l-8.182-8.776H81.417l-4.692,5.145"/><line class="n" x1="0.562" y2="0.609" transform="translate(75.702 199.982)"/><path class="c" d="M84.883,193.681l-.25.492H80.488l-.3-.492c-.008-.016,0-.031.016-.031h4.661C84.883,193.658,84.891,193.674,84.883,193.681Z"/><path class="c" d="M66.419,193.7l-.242.484H62.031l-.289-.476a.026.026,0,0,1,.023-.039H66.4C66.411,193.658,66.426,193.674,66.419,193.7Z"/><path class="t" d="M84.883,193.681l-.25.492H80.488l-.3-.492c-.008-.016,0-.031.016-.031h4.661C84.883,193.658,84.891,193.674,84.883,193.681Z"/><path class="t" d="M66.419,193.7l-.242.484H62.031l-.289-.476a.026.026,0,0,1,.023-.039H66.4C66.411,193.658,66.426,193.674,66.419,193.7Z"/><path class="u" d="M69.526,190.293l-.64,1.015v2.6l.554.422H67.972l.523-.422v-2.592l-.484-.835Z"/><path class="v" d="M69.9,189.707l-1.015,1.6v2.6l.554.422H67.972l.523-.422v-2.592l-.937-1.608Z"/><path class="u" d="M79.051,190.512l-.5.8V193.9c0,.008.008.016.016.023l.539.406H77.638l.515-.406c.008-.008.016-.016.016-.023v-2.584l-.593-1.015Z"/><path class="v" d="M79.137,190.379l-.586.921a.027.027,0,0,1-.008.016v2.569a.043.043,0,0,0,.023.039l.531.4H77.63l.507-.4a.043.043,0,0,0,.023-.039v-2.561c0-.008,0-.016-.008-.016l-.913-1.569c-.008-.016,0-.031.016-.031h2.272c.016,0,.023.016.016.031l-.273.429"/><line class="n" x1="6.777" transform="translate(65.903 210.397)"/><line class="n" x1="12.414" transform="translate(74.257 210.397)"/><line class="n" x1="9.127" transform="translate(88.124 210.397)"/><rect class="j" width="42.129" height="41.934" transform="translate(61 168.666)"/><g class="f"><path class="p" d="M82.166,210.6h-6.48L64.045,168.666h6.48Z"/></g><g class="f"><path class="p" d="M94.947,210.6H88.459L76.818,168.666h6.488Z"/></g><rect class="m" width="23.305" height="1.273" transform="translate(238.294 195.204)"/><line class="n" x1="17.981" transform="translate(240.285 196.477)"/><line class="n" x1="0.265" transform="translate(258.921 196.477)"/><path class="n" d="M239.691,196.477h-1.4V195.2H261.6v1.273h-1.882"/><path class="m" d="M249.224,201.8v4.9a2.146,2.146,0,0,1-2.147,2.147h-.328a1.508,1.508,0,0,0-1.507,1.507v.039H254.7v-.055a1.508,1.508,0,0,0-1.507-1.507h-.351a2.146,2.146,0,0,1-2.147-2.147V201.8h-1.468Z"/><path class="o" d="M249.708,202.9v4.083a2.492,2.492,0,0,1-2.491,2.491h-.187a.923.923,0,0,0-.921.921h-.867s-.1-1.319,1.077-1.382,2.959-.219,2.9-2.631c-.055-2.381,0-4.013,0-4.013Z"/><path class="n" d="M249.224,206.7a2.146,2.146,0,0,1-2.147,2.147h-.328a1.508,1.508,0,0,0-1.507,1.507v.039h4.1"/><path class="n" d="M250.7,203.738V201.8h-1.476v4.435"/><path class="n" d="M250.036,210.4h4.669v-.055a1.508,1.508,0,0,0-1.507-1.507h-.351a2.146,2.146,0,0,1-2.147-2.147v-2.358"/><path class="p" d="M232.508,202.262a.46.46,0,0,1-.453-.383c-.539-3.1-1.647-9.252-2.022-10.3-.344-.96-1.6-.664-1.655-.648a.458.458,0,0,1-.219-.89,2.232,2.232,0,0,1,2.733,1.226c.492,1.382,2,10.08,2.061,10.446a.465.465,0,0,1-.375.531A.116.116,0,0,1,232.508,202.262Z"/><path class="m" d="M232.586,202.254a.265.265,0,0,1-.078.008.452.452,0,0,1-.3-.117.433.433,0,0,1-.148-.265c-.023-.125-.047-.265-.07-.4-.554-3.2-1.593-8.893-1.952-9.892-.344-.96-1.6-.664-1.655-.648a.462.462,0,0,1-.547-.3c0-.008-.008-.016-.008-.031a.456.456,0,0,1,.336-.554,2.232,2.232,0,0,1,2.733,1.226c.422,1.195,1.6,7.815,1.96,9.861.055.328.094.539.1.586A.459.459,0,0,1,232.586,202.254Z"/><path class="m" d="M239.886,210.4h-.75l-.328-3.631h-6.488l-.234,3.631H231.3l.687-8.916.031-.344h7.12Z"/><path class="q" d="M232.407,201.528l-.047.617-.671,8.245h-.234l.687-8.908c-.554-3.2-1.593-8.893-1.952-9.892-.344-.96-1.6-.664-1.655-.648a.462.462,0,0,1-.547-.3c.609-.133,1.811-.273,2.3.492.562,1.038,1.765,8.237,2.053,10.017C232.383,201.387,232.407,201.528,232.407,201.528Z"/><path class="n" d="M231.79,195.321c.351,1.8.7,3.779.929,5.059l.172,1"/><path class="n" d="M229.83,191.238a1.648,1.648,0,0,0-1.452-.3.458.458,0,0,1-.219-.89,2.232,2.232,0,0,1,2.733,1.226c.164.461.437,1.733.734,3.232"/><path class="n" d="M231.985,201.458c-.554-3.209-1.585-8.869-1.944-9.869"/><path class="n" d="M239.3,203.16l.586,7.238h-.75l-.328-3.631h-6.488l-.226,3.631h-.8l.687-8.916"/><path class="n" d="M233.117,201.138h6.02l.1,1.28"/><path class="r" d="M239.941,201.372h-7.019l-.242-1.335h7.261a.671.671,0,0,1,.671.671h0A.67.67,0,0,1,239.941,201.372Z"/><path class="s" d="M232.891,200.825h7.565s.148.609-1.148.547-6.348-.047-6.348-.047Z"/><path class="n" d="M237,200.037h-4.341l.234,1.335h7.05a.671.671,0,0,0,.671-.671h0a.671.671,0,0,0-.671-.671h-2.319"/><path class="p" d="M238.731,206h-6.316l.234-3.31h5.863Z"/><line class="n" x1="0.695" transform="translate(235.936 206.002)"/><path class="n" d="M235.194,206h-2.779l.234-3.31h5.863l.219,3.31h-1.585"/><rect class="m" width="24.961" height="1.273" transform="translate(237.466 194.329)"/><rect class="n" width="24.961" height="1.273" transform="translate(237.466 194.329)"/><path class="p" d="M241.893,194.329l8.011,8.783a.071.071,0,0,0,.094,0l8.19-8.783Z"/><path class="c" d="M243.462,195.313l6.839,7.5a.061.061,0,0,0,.086,0l7.5-8.034H243.7A.32.32,0,0,0,243.462,195.313Z"/><path class="n" d="M248.006,201.028l1.9,2.077a.071.071,0,0,0,.094,0l8.19-8.783H241.9l4.692,5.145"/><line class="n" x2="0.562" y2="0.609" transform="translate(247.046 199.982)"/><path class="c" d="M238.426,193.681l.25.492h4.138l.3-.492c.008-.016,0-.031-.016-.031h-4.661C238.426,193.658,238.419,193.674,238.426,193.681Z"/><path class="c" d="M256.891,193.7l.242.484h4.146l.289-.476a.026.026,0,0,0-.023-.039h-4.63C256.9,193.658,256.883,193.674,256.891,193.7Z"/><path class="t" d="M238.426,193.681l.25.492h4.138l.3-.492c.008-.016,0-.031-.016-.031h-4.661C238.426,193.658,238.419,193.674,238.426,193.681Z"/><path class="t" d="M256.891,193.7l.242.484h4.146l.289-.476a.026.026,0,0,0-.023-.039h-4.63C256.9,193.658,256.883,193.674,256.891,193.7Z"/><path class="u" d="M253.784,190.293l.64,1.015v2.6l-.554.422h1.468l-.531-.422v-2.592l.492-.835Z"/><path class="v" d="M253.409,189.707l1.015,1.6v2.6l-.554.422h1.468l-.531-.422v-2.592l.937-1.608Z"/><path class="u" d="M244.259,190.512l.5.8V193.9c0,.008-.008.016-.016.023l-.539.406h1.468l-.515-.406c-.008-.008-.016-.016-.016-.023v-2.584l.593-1.015Z"/><path class="v" d="M244.173,190.379l.586.921a.027.027,0,0,0,.008.016v2.569a.043.043,0,0,1-.023.039l-.531.4h1.468l-.507-.4a.043.043,0,0,1-.023-.039v-2.561c0-.008,0-.016.008-.016l.913-1.569c.008-.016,0-.031-.016-.031h-2.272c-.016,0-.023.016-.016.031l.273.429"/><line class="n" x2="6.777" transform="translate(250.622 210.397)"/><line class="n" x2="12.422" transform="translate(236.631 210.397)"/><line class="n" x2="9.127" transform="translate(226.059 210.397)"/><rect class="j" width="42.129" height="41.934" transform="translate(220.18 168.666)"/><g class="f"><path class="p" d="M242.557,210.6h-6.48l-11.641-41.934h6.48Z"/></g><g class="f"><path class="p" d="M255.338,210.6h-6.488l-11.641-41.934H243.7Z"/></g><path class="h" d="M262.31,200.591V168.666h-9.939"/><line class="h" y1="6.269" transform="translate(262.31 204.331)"/><path class="h" d="M220.18,193.658V210.6h37.695"/><path class="h" d="M232.415,168.666H220.18v21.307"/><line class="h" x1="13.866" transform="translate(235.186 168.666)"/><path class="h" d="M103.052,182.743V168.666H93.581"/><path class="h" d="M72.61,168.666H60.922V210.6h42.129V185.733"/><line class="h" x1="14.366" transform="translate(75.983 168.666)"/><line class="h" y2="55.746" transform="translate(276.793 166.745)"/><path class="h" d="M276.793,163.544V152.871H46.439v33.362"/><line class="h" y1="8.057" transform="translate(46.439 190.293)"/><line class="h" y1="20.229" transform="translate(46.439 202.262)"/><rect class="m" width="97.969" height="11.001" transform="translate(112.631 141.043)"/><path class="w" d="M116.028,148.96l-3.4,3.084v-11H210.6l-86.492,4.552A13.068,13.068,0,0,0,116.028,148.96Z"/><line class="h" y2="164.911" transform="translate(205.822 152.871)"/><line class="h" y1="148.726" transform="translate(117.41 152.871)"/><line class="h" y1="11.555" transform="translate(117.41 306.227)"/><path class="i" d="M205.822,141.043l-44.206-19.792L117.41,141.043"/><line class="h" x1="33.846" y2="15.154" transform="translate(117.41 125.889)"/><path class="h" d="M190,133.962l-28.388-12.711-7.37,3.3"/><line class="h" x1="11.797" y1="5.286" transform="translate(194.025 135.757)"/><line class="h" x2="3.849" transform="translate(154.956 141.043)"/><path class="h" d="M163.529,141.043H210.6v11.828H112.631V141.043h38.335"/><path class="x" d="M32.792,250.887l6.777-28.4H283.663l6.777,28.4"/><line class="h" x1="4.31" y2="18.067" transform="translate(32.792 232.821)"/><path class="h" d="M286.724,235.327l-3.061-12.836H39.569l-1.624,6.816"/><line class="h" x1="2.373" y1="9.955" transform="translate(288.067 240.933)"/><rect class="k" width="12.094" height="4.083" transform="translate(53.841 163.06)"/><path class="l" d="M56.058,167.151H53.841V163.06H65.927v4.091H58.346"/><rect class="k" width="12.094" height="4.083" transform="translate(94.752 212.115)"/><rect class="y" width="6.324" height="4.083" transform="translate(127.497 179.722)"/><rect class="l" width="6.777" height="4.083" transform="translate(262.528 174.818)"/><rect class="l" width="6.777" height="4.083" transform="translate(212.872 203.722)"/><rect class="l" width="10.126" height="4.083" transform="translate(182.033 158.727)"/><rect class="l" width="10.126" height="4.083" transform="translate(133.446 156.682)"/><rect class="l" width="10.126" height="4.083" transform="translate(190.808 189.973)"/><path class="l" d="M128.044,214.692h2.639v4.083H120.556v-4.083h4.45"/><rect class="l" width="7.605" height="4.083" transform="translate(189.411 214.692)"/><path class="l" d="M100.569,216.206H94.752v-4.091h12.094v4.091h-3.318"/><path class="p" d="M45.674,267.767h0a12.885,12.885,0,0,1-12.882-12.882v-4H58.556v4A12.885,12.885,0,0,1,45.674,267.767Z"/><path class="p" d="M71.439,267.767h0a12.885,12.885,0,0,1-12.882-12.882v-4H84.321v4A12.885,12.885,0,0,1,71.439,267.767Z"/><path class="p" d="M97.2,267.767h0a12.885,12.885,0,0,1-12.882-12.882v-4h25.765v4A12.885,12.885,0,0,1,97.2,267.767Z"/><path class="p" d="M122.969,267.767h0a12.885,12.885,0,0,1-12.882-12.882v-4h25.765v4A12.885,12.885,0,0,1,122.969,267.767Z"/><path class="p" d="M148.733,267.767h0a12.885,12.885,0,0,1-12.882-12.882v-4h25.765v4A12.885,12.885,0,0,1,148.733,267.767Z"/><path class="p" d="M174.5,267.767h0a12.885,12.885,0,0,1-12.882-12.882v-4h25.765v4A12.885,12.885,0,0,1,174.5,267.767Z"/><path class="p" d="M200.263,267.767h0a12.885,12.885,0,0,1-12.882-12.882v-4h25.765v4A12.885,12.885,0,0,1,200.263,267.767Z"/><path class="p" d="M226.028,267.767h0a12.885,12.885,0,0,1-12.882-12.882v-4H238.91v4A12.885,12.885,0,0,1,226.028,267.767Z"/><path class="p" d="M251.793,267.767h0a12.885,12.885,0,0,1-12.882-12.882v-4h25.765v4A12.885,12.885,0,0,1,251.793,267.767Z"/><path class="p" d="M277.558,267.767h0a12.885,12.885,0,0,1-12.882-12.882v-4H290.44v4A12.885,12.885,0,0,1,277.558,267.767Z"/><path class="i" d="M58.556,250.887v4a12.881,12.881,0,0,1-24.391,5.785,12.717,12.717,0,0,1-1.374-5.785v-4Z"/><path class="z" d="M45.081,254.526a6.122,6.122,0,0,0-5.7,6.98,9.028,9.028,0,0,0,1.952,4.9c1.843,1.905-3.1-2.256-7.167-5.731a12.717,12.717,0,0,1-1.374-5.785v-4H58.08l-.351,2.865Z"/><path class="i" d="M71.439,267.767h0a12.885,12.885,0,0,1-12.882-12.882v-4H84.321v4A12.885,12.885,0,0,1,71.439,267.767Z"/><path class="z" d="M70.846,254.526a6.122,6.122,0,0,0-5.7,6.98,9.028,9.028,0,0,0,1.952,4.9c1.843,1.905-3.1-2.256-7.167-5.731a12.717,12.717,0,0,1-1.374-5.785v-4H83.845l-.351,2.865Z"/><path class="i" d="M97.2,267.767h0a12.885,12.885,0,0,1-12.882-12.882v-4h25.765v4A12.885,12.885,0,0,1,97.2,267.767Z"/><path class="z" d="M96.61,254.526a6.122,6.122,0,0,0-5.7,6.98,9.028,9.028,0,0,0,1.952,4.9c1.843,1.905-3.1-2.256-7.167-5.731a12.717,12.717,0,0,1-1.374-5.785v-4H109.61l-.351,2.865Z"/><path class="i" d="M122.969,267.767h0a12.885,12.885,0,0,1-12.882-12.882v-4h25.765v4A12.885,12.885,0,0,1,122.969,267.767Z"/><path class="z" d="M122.375,254.526a6.122,6.122,0,0,0-5.7,6.98,9.028,9.028,0,0,0,1.952,4.9c1.843,1.905-3.1-2.256-7.167-5.731a12.717,12.717,0,0,1-1.374-5.785v-4h25.289l-.351,2.865Z"/><path class="i" d="M148.733,267.767h0a12.885,12.885,0,0,1-12.882-12.882v-4h25.765v4A12.885,12.885,0,0,1,148.733,267.767Z"/><path class="z" d="M148.14,254.526a6.122,6.122,0,0,0-5.7,6.98,9.028,9.028,0,0,0,1.952,4.9c1.843,1.905-3.1-2.256-7.167-5.731a12.717,12.717,0,0,1-1.374-5.785v-4H161.14l-.351,2.865Z"/><path class="i" d="M174.5,267.767h0a12.885,12.885,0,0,1-12.882-12.882v-4h25.765v4A12.885,12.885,0,0,1,174.5,267.767Z"/><path class="z" d="M173.9,254.526a6.122,6.122,0,0,0-5.7,6.98,9.028,9.028,0,0,0,1.952,4.9c1.843,1.905-3.1-2.256-7.167-5.731a12.717,12.717,0,0,1-1.374-5.785v-4H186.9l-.351,2.865Z"/><path class="i" d="M200.263,267.767h0a12.885,12.885,0,0,1-12.882-12.882v-4h25.765v4A12.885,12.885,0,0,1,200.263,267.767Z"/><path class="z" d="M199.67,254.526a6.122,6.122,0,0,0-5.7,6.98,9.028,9.028,0,0,0,1.952,4.9c1.843,1.905-3.1-2.256-7.167-5.731a12.717,12.717,0,0,1-1.374-5.785v-4h25.289l-.351,2.865Z"/><path class="i" d="M226.028,267.767h0a12.885,12.885,0,0,1-12.882-12.882v-4H238.91v4A12.885,12.885,0,0,1,226.028,267.767Z"/><path class="z" d="M225.435,254.526a6.122,6.122,0,0,0-5.7,6.98,9.028,9.028,0,0,0,1.952,4.9c1.843,1.905-3.1-2.256-7.167-5.731a12.717,12.717,0,0,1-1.374-5.785v-4h25.289l-.351,2.865Z"/><path class="i" d="M251.793,267.767h0a12.885,12.885,0,0,1-12.882-12.882v-4h25.765v4A12.885,12.885,0,0,1,251.793,267.767Z"/><path class="z" d="M251.2,254.526a6.122,6.122,0,0,0-5.7,6.98,9.028,9.028,0,0,0,1.952,4.9c1.843,1.905-3.1-2.256-7.167-5.731a12.717,12.717,0,0,1-1.374-5.785v-4H264.2l-.351,2.865Z"/><path class="i" d="M277.558,267.767h0a12.885,12.885,0,0,1-12.882-12.882v-4H290.44v4A12.885,12.885,0,0,1,277.558,267.767Z"/><path class="z" d="M276.964,254.526a6.122,6.122,0,0,0-5.7,6.98,9.028,9.028,0,0,0,1.952,4.9c1.843,1.905-3.1-2.256-7.167-5.731a12.717,12.717,0,0,1-1.374-5.785v-4h25.289l-.351,2.865Z"/><path class="h" d="M42.848,267.455a12.886,12.886,0,0,1-10.056-12.57v-4H58.556v4a12.891,12.891,0,0,1-11.649,12.828"/><path class="h" d="M66.6,266.822a12.888,12.888,0,0,1-8.042-11.938v-4H84.321v4a12.794,12.794,0,0,1-2.826,8.05"/><path class="h" d="M79.364,265.042a12.81,12.81,0,0,1-7.925,2.725h0c-.429,0-.859-.023-1.28-.062"/><path class="h" d="M92.027,250.887h18.059v4A12.888,12.888,0,0,1,98.953,267.65"/><path class="h" d="M95.057,267.588a12.884,12.884,0,0,1-10.735-12.7v-4h3.919"/><path class="h" d="M129.48,265.995a12.85,12.85,0,0,1-2.764,1.21"/><path class="h" d="M123.554,267.752c-.2.008-.39.016-.586.016h0a12.885,12.885,0,0,1-12.882-12.882v-4h25.765v4a12.847,12.847,0,0,1-4.294,9.6"/><path class="h" d="M157.931,263.9a12.854,12.854,0,0,1-9.2,3.865h0a12.885,12.885,0,0,1-12.882-12.882v-4h8.807"/><path class="h" d="M147.789,250.887h13.827v4a12.8,12.8,0,0,1-2.147,7.12"/><path class="h" d="M174.5,267.767a12.885,12.885,0,0,1-12.882-12.882v-4h25.765v4a12.893,12.893,0,0,1-9.97,12.555"/><path class="h" d="M207.626,265.456a12.8,12.8,0,0,1-7.362,2.311h0a12.8,12.8,0,0,1-3.162-.39"/><path class="h" d="M201.5,250.887h11.641v4A12.865,12.865,0,0,1,209.375,264"/><path class="h" d="M194.767,266.534a12.883,12.883,0,0,1-7.386-11.657v-4h10.532"/><path class="h" d="M234.538,264.558a12.869,12.869,0,0,1-5.809,2.928"/><path class="h" d="M226.028,267.767a12.885,12.885,0,0,1-12.882-12.882v-4H238.91v4a12.812,12.812,0,0,1-2.046,6.972"/><path class="h" d="M246.46,266.612a12.893,12.893,0,0,1-7.55-11.727v-4h8.76"/><path class="h" d="M262.31,250.887h2.366v4a12.885,12.885,0,0,1-12.882,12.882h0a13.157,13.157,0,0,1-2.74-.289"/><line class="h" x2="8.12" transform="translate(251.043 250.887)"/><path class="h" d="M288.645,261.451a12.881,12.881,0,0,1-9.4,6.207"/><path class="h" d="M276.793,267.744a12.884,12.884,0,0,1-12.117-12.859v-4H290.44v4a13.13,13.13,0,0,1-.117,1.764"/><line class="h" x2="1.757" y2="16.201" transform="translate(262.919 234.687)"/><line class="h" x2="1.015" y2="9.392" transform="translate(261.599 222.491)"/><line class="h" x2="0.18" y2="28.396" transform="translate(238.731 222.491)"/><line class="h" x1="0.383" y2="4.458" transform="translate(58.556 246.429)"/><line class="h" x1="1.819" y2="21.112" transform="translate(59.181 222.491)"/><line class="h" x1="0.062" y2="18.067" transform="translate(84.321 232.821)"/><line class="h" x1="0.023" y2="6.418" transform="translate(84.399 222.491)"/><line class="h" y2="12.758" transform="translate(110.086 238.13)"/><line class="h" y2="12.18" transform="translate(110.086 222.491)"/><line class="h" y1="3.209" transform="translate(135.851 222.491)"/><line class="h" y1="21.978" transform="translate(135.851 228.909)"/><line class="h" y1="15.638" transform="translate(161.616 222.491)"/><line class="h" y1="9.033" transform="translate(161.616 241.854)"/><line class="h" y1="28.396" transform="translate(187.381 222.491)"/><line class="h" y1="10.322" transform="translate(213.146 222.491)"/><line class="h" y1="2.92" transform="translate(213.146 236.139)"/><line class="h" y1="7.667" transform="translate(213.146 243.22)"/><g transform="translate(192.836 294.26)"><rect class="m" width="41.826" height="2.271" transform="translate(21.96 9.883)"/><line class="aa" x1="32.261" transform="translate(25.537 12.166)"/><line class="aa" x1="0.469" transform="translate(58.978 12.166)"/><path class="aa" d="M233.063,293.77h-2.5v-2.284h41.813v2.284h-3.362" transform="translate(-208.605 -281.604)"/><path class="m" d="M245.386,298.779v8.8a3.855,3.855,0,0,1-3.857,3.857h-.6a2.7,2.7,0,0,0-2.7,2.7v.063h16.974v-.1a2.7,2.7,0,0,0-2.7-2.7h-.622a3.855,3.855,0,0,1-3.857-3.857v-8.766Z" transform="translate(-203.814 -277.047)"/><path class="o" d="M246.263,300.36v7.32a4.477,4.477,0,0,1-4.478,4.478h-.343a1.646,1.646,0,0,0-1.649,1.649h-1.56s-.19-2.372,1.928-2.487,5.315-.393,5.214-4.719c-.089-4.275,0-7.206,0-7.206Z" transform="translate(-203.815 -276.662)"/><path class="aa" d="M245.386,304.189a3.855,3.855,0,0,1-3.857,3.857h-.6a2.7,2.7,0,0,0-2.7,2.7v.063h7.358" transform="translate(-203.814 -273.666)"/><path class="aa" d="M245.286,302.242v-3.463h-2.651v7.942" transform="translate(-201.062 -277.047)"/><path class="aa" d="M243.533,312.456h8.373v-.1a2.7,2.7,0,0,0-2.7-2.7h-.622a3.855,3.855,0,0,1-3.857-3.857v-4.237" transform="translate(-200.501 -275.31)"/><g transform="translate(3.145 0.496)"><path class="p" d="M227.409,307.757a.827.827,0,0,1-.812-.685c-.964-5.569-2.956-16.594-3.628-18.471-.622-1.725-2.88-1.192-2.969-1.167a.821.821,0,0,1-.99-.6.812.812,0,0,1,.6-.99c1.307-.317,4.022-.279,4.91,2.207s3.578,18.091,3.692,18.75a.83.83,0,0,1-.672.951Z" transform="translate(-218.985 -285.709)"/><path class="m" d="M227.549,307.74a.569.569,0,0,1-.14.013.852.852,0,0,1-.545-.2.8.8,0,0,1-.266-.469c-.038-.228-.076-.469-.127-.71-1-5.747-2.854-15.959-3.5-17.761-.622-1.725-2.88-1.193-2.969-1.167a.823.823,0,0,1-.977-.546c0-.013-.013-.038-.013-.051a.8.8,0,0,1,.6-.99c1.307-.317,4.022-.279,4.91,2.207.761,2.144,2.867,14.031,3.514,17.7.1.584.165.964.178,1.053A.793.793,0,0,1,227.549,307.74Z" transform="translate(-218.985 -285.705)"/><path class="m" d="M238.248,314.656H236.9l-.584-6.508H224.674l-.419,6.508h-1.421l1.231-16,.051-.622H236.9Z" transform="translate(-216.579 -278.006)"/><path class="q" d="M227.1,306.07l-.089,1.1-1.193,14.8H225.4l1.231-16c-1-5.747-2.854-15.959-3.5-17.761-.622-1.725-2.88-1.193-2.969-1.167a.823.823,0,0,1-.977-.546c1.091-.241,3.26-.495,4.123.888,1.015,1.865,3.159,14.792,3.692,17.976C227.054,305.816,227.1,306.07,227.1,306.07Z" transform="translate(-218.858 -285.329)"/><path class="aa" d="M223.381,291.611c.622,3.235,1.256,6.787,1.662,9.071l.317,1.789" transform="translate(-216.238 -282.021)"/><path class="aa" d="M222.6,287.979a2.954,2.954,0,0,0-2.6-.546.821.821,0,0,1-.99-.6.812.812,0,0,1,.6-.99c1.307-.317,4.022-.279,4.91,2.207.292.825.787,3.108,1.319,5.8" transform="translate(-218.985 -285.709)"/><path class="aa" d="M224.934,305.2c-1-5.76-2.854-15.921-3.489-17.71" transform="translate(-217.448 -284.597)"/><path class="aa" d="M237.2,301.439l1.053,12.978H236.9l-.584-6.508H224.674l-.419,6.508h-1.421l1.231-16" transform="translate(-216.579 -277.767)"/><path class="aa" d="M224.841,298.037H235.65l.178,2.309" transform="translate(-215.326 -278.006)"/><path class="r" d="M237.394,299.224H224.8l-.431-2.4h13.029a1.2,1.2,0,0,1,1.205,1.205h0A1.219,1.219,0,0,1,237.394,299.224Z" transform="translate(-215.623 -278.763)"/><path class="s" d="M224.6,297.693h13.574s.266,1.091-2.055.99-11.392-.076-11.392-.076Z" transform="translate(-215.477 -278.221)"/><path class="aa" d="M232.123,296.832h-7.789l.419,2.4H237.4a1.2,1.2,0,0,0,1.205-1.205h0a1.2,1.2,0,0,0-1.205-1.205h-4.161" transform="translate(-215.643 -278.767)"/><path class="p" d="M235.41,305.7H224.068l.419-5.95h10.529Z" transform="translate(-215.809 -276.933)"/><line class="aa" x1="1.256" transform="translate(14.577 28.771)"/><path class="aa" d="M229.054,305.7h-4.986l.419-5.95h10.529l.393,5.95h-2.854" transform="translate(-215.809 -276.933)"/></g><g transform="translate(61.046 0.496)"><path class="p" d="M263.886,307.757a.827.827,0,0,0,.812-.685c.964-5.569,2.956-16.594,3.628-18.471.622-1.725,2.88-1.192,2.969-1.167a.821.821,0,0,0,.99-.6.812.812,0,0,0-.6-.99c-1.307-.317-4.022-.279-4.91,2.207s-3.578,18.091-3.692,18.75a.83.83,0,0,0,.672.951Z" transform="translate(-249.335 -285.709)"/><path class="m" d="M263.748,307.74a.569.569,0,0,0,.14.013.852.852,0,0,0,.546-.2.8.8,0,0,0,.266-.469c.038-.228.076-.469.127-.71,1-5.747,2.854-15.959,3.5-17.761.622-1.725,2.88-1.193,2.969-1.167a.823.823,0,0,0,.977-.546c0-.013.013-.038.013-.051a.8.8,0,0,0-.6-.99c-1.307-.317-4.022-.279-4.91,2.207-.761,2.144-2.867,14.031-3.514,17.7-.1.584-.165.964-.178,1.053A.793.793,0,0,0,263.748,307.74Z" transform="translate(-249.337 -285.705)"/><path class="m" d="M255.423,314.656h1.357l.571-6.508H269l.419,6.508h1.421l-1.231-16-.051-.622H256.781Z" transform="translate(-254.117 -278.006)"/><path class="q" d="M263.684,306.07l.089,1.1,1.193,14.8h.419l-1.231-16c1-5.747,2.854-15.959,3.5-17.761.622-1.725,2.88-1.193,2.969-1.167a.823.823,0,0,0,.977-.546c-1.091-.241-3.26-.495-4.123.888-1.015,1.865-3.159,14.792-3.692,17.976C263.735,305.816,263.684,306.07,263.684,306.07Z" transform="translate(-248.955 -285.329)"/><path class="aa" d="M264.5,293.641c-.406,2.169-.774,4.25-1.04,5.785l-.317,1.789" transform="translate(-249.292 -280.753)"/><path class="aa" d="M269.284,287.37a3.8,3.8,0,0,1,1.357.063.821.821,0,0,0,.99-.6.812.812,0,0,0-.6-.99c-1.307-.317-4.022-.279-4.91,2.207-.419,1.167-1.243,5.265-2,9.324" transform="translate(-248.682 -285.709)"/><path class="aa" d="M264.152,305.472c1-5.76,2.854-15.921,3.489-17.71a1.793,1.793,0,0,1,.444-.71" transform="translate(-248.662 -284.871)"/><path class="aa" d="M261.49,307.909h3.717l.419,6.508h1.421l-1.231-16" transform="translate(-250.326 -277.767)"/><path class="aa" d="M256.5,306.226l.178-1.966h6.571" transform="translate(-253.444 -274.118)"/><path class="aa" d="M267.577,298.037H256.768l-1.345,16.619h1.345l.33-3.565" transform="translate(-254.117 -278.006)"/><path class="r" d="M255.824,299.224h12.6l.431-2.4H255.824a1.2,1.2,0,0,0-1.205,1.205h0A1.219,1.219,0,0,0,255.824,299.224Z" transform="translate(-254.619 -278.763)"/><path class="s" d="M254.635,297.678h13.828l-.127.913-12.521.1S254.762,298.2,254.635,297.678Z" transform="translate(-254.609 -278.231)"/><path class="aa" d="M258.1,296.832h10.8l-.419,2.4H255.832a1.2,1.2,0,0,1-1.205-1.205h0a1.2,1.2,0,0,1,1.205-1.205h.964" transform="translate(-254.614 -278.767)"/><path class="p" d="M256.7,305.7h11.341l-.419-5.95h-10.53Z" transform="translate(-253.322 -276.933)"/><path class="aa" d="M263.623,299.755h-6.533l-.393,5.95h11.341l-.419-5.95h-3.133" transform="translate(-253.322 -276.933)"/></g><rect class="m" width="44.795" height="2.271" transform="translate(20.463 8.309)"/><rect class="aa" width="44.795" height="2.271" transform="translate(20.463 8.309)"/><path class="p" d="M234.538,290.518l14.373,15.756a.108.108,0,0,0,.165,0l14.691-15.756Z" transform="translate(-206.121 -282.209)"/><path class="c" d="M236.331,291.979,248.6,305.427a.116.116,0,0,0,.152,0L262.2,291H236.762A.584.584,0,0,0,236.331,291.979Z" transform="translate(-205.097 -281.906)"/><path class="aa" d="M245.512,302.545l3.4,3.73a.108.108,0,0,0,.165,0l14.691-15.756H234.538l8.424,9.236" transform="translate(-206.121 -282.209)"/><line class="aa" x2="1.002" y2="1.091" transform="translate(37.665 18.458)"/><path class="c" d="M230.707,289.827l.444.888H238.6l.533-.888c.013-.025,0-.051-.025-.051h-8.36C230.707,289.777,230.694,289.8,230.707,289.827Z" transform="translate(-208.519 -282.672)"/><path class="c" d="M251.108,289.845l.431.863h7.447l.52-.863a.047.047,0,0,0-.038-.076h-8.309C251.108,289.781,251.095,289.82,251.108,289.845Z" transform="translate(-195.771 -282.677)"/><path class="ab" d="M230.707,289.827l.444.888H238.6l.533-.888c.013-.025,0-.051-.025-.051h-8.36C230.707,289.777,230.694,289.8,230.707,289.827Z" transform="translate(-208.519 -282.672)"/><path class="ab" d="M251.108,289.845l.431.863h7.447l.52-.863a.047.047,0,0,0-.038-.076h-8.309C251.108,289.781,251.095,289.82,251.108,289.845Z" transform="translate(-195.771 -282.677)"/><path class="u" d="M247.671,286.06l1.142,1.827v4.669l-.99.748h2.626l-.939-.748V287.9l.875-1.5Z" transform="translate(-197.915 -284.995)"/><path class="ac" d="M247.257,285.412l1.814,2.88v4.669l-.99.748h2.626l-.939-.748V288.3l1.687-2.892Z" transform="translate(-198.174 -285.4)"/><path class="u" d="M237.185,286.453l.9,1.421v4.643a.1.1,0,0,1-.025.051l-.977.736h2.626l-.913-.736a.066.066,0,0,1-.025-.051v-4.631l1.066-1.827Z" transform="translate(-204.531 -284.995)"/><path class="ac" d="M237.334,286.622l1.04,1.649a.047.047,0,0,1,.013.038v4.605a.11.11,0,0,1-.038.076l-.951.723h2.626l-.9-.723a.09.09,0,0,1-.038-.076v-4.592a.047.047,0,0,1,.013-.038l1.637-2.829c.013-.025,0-.051-.025-.051h-4.072c-.025,0-.051.025-.025.051l.495.774" transform="translate(-204.832 -285.404)"/><line class="aa" x2="3.413" transform="translate(82.32 37.145)"/><line class="aa" x2="21.757" transform="translate(57.988 37.145)"/><line class="aa" x2="12.166" transform="translate(44.084 37.145)"/><line class="aa" x2="22.29" transform="translate(18.978 37.145)"/><line class="aa" x2="16.378" transform="translate(0 37.145)"/></g><g transform="translate(44.186 294.26)"><rect class="m" width="41.826" height="2.271" transform="translate(21.96 9.883)"/><line class="aa" x1="32.261" transform="translate(25.537 12.166)"/><line class="aa" x1="0.457" transform="translate(58.991 12.166)"/><path class="aa" d="M68.97,293.77H66.458v-2.284h41.826v2.284h-3.375" transform="translate(-44.498 -281.604)"/><path class="m" d="M81.287,298.779v8.8a3.855,3.855,0,0,1-3.857,3.857h-.6a2.7,2.7,0,0,0-2.7,2.7v.063H91.107v-.1a2.7,2.7,0,0,0-2.7-2.7h-.622a3.855,3.855,0,0,1-3.857-3.857v-8.766Z" transform="translate(-39.702 -277.047)"/><path class="o" d="M82.157,300.36v7.32a4.477,4.477,0,0,1-4.478,4.478h-.343a1.646,1.646,0,0,0-1.649,1.649h-1.56s-.19-2.372,1.928-2.487,5.315-.393,5.214-4.719c-.089-4.275,0-7.206,0-7.206Z" transform="translate(-39.709 -276.662)"/><path class="aa" d="M81.287,304.189a3.855,3.855,0,0,1-3.857,3.857h-.6a2.7,2.7,0,0,0-2.7,2.7v.063H81.49" transform="translate(-39.702 -273.666)"/><path class="aa" d="M81.175,302.242v-3.463H78.536v7.942" transform="translate(-36.951 -277.047)"/><path class="aa" d="M79.426,312.456H87.8v-.1a2.7,2.7,0,0,0-2.7-2.7h-.622a3.855,3.855,0,0,1-3.857-3.857v-4.237" transform="translate(-36.395 -275.31)"/><g transform="translate(3.145 0.496)"><path class="p" d="M63.3,307.757a.827.827,0,0,1-.812-.685c-.964-5.569-2.956-16.594-3.628-18.471-.622-1.725-2.88-1.192-2.969-1.167a.821.821,0,0,1-.99-.6.812.812,0,0,1,.6-.99c1.307-.317,4.022-.279,4.91,2.207s3.577,18.091,3.692,18.75a.83.83,0,0,1-.672.951Z" transform="translate(-54.878 -285.709)"/><path class="m" d="M63.443,307.74a.569.569,0,0,1-.14.013.852.852,0,0,1-.546-.2.8.8,0,0,1-.266-.469c-.038-.228-.076-.469-.127-.71-1-5.747-2.854-15.959-3.5-17.761-.622-1.725-2.88-1.193-2.969-1.167a.823.823,0,0,1-.977-.546c0-.013-.013-.038-.013-.051a.8.8,0,0,1,.6-.99c1.307-.317,4.022-.279,4.91,2.207.761,2.144,2.867,14.031,3.514,17.7.1.584.165.964.178,1.053A.793.793,0,0,1,63.443,307.74Z" transform="translate(-54.879 -285.705)"/><path class="m" d="M74.137,314.656H72.792l-.584-6.508H60.576l-.431,6.508H58.736l1.231-16,.038-.622H72.792Z" transform="translate(-52.468 -278.006)"/><path class="q" d="M63,306.07l-.089,1.1-1.192,14.8H61.3l1.231-16c-1-5.747-2.854-15.959-3.5-17.761-.622-1.725-2.88-1.193-2.969-1.167a.823.823,0,0,1-.977-.546c1.091-.241,3.26-.495,4.123.888,1.015,1.865,3.159,14.792,3.692,17.976C62.96,305.816,63,306.07,63,306.07Z" transform="translate(-54.751 -285.329)"/><path class="aa" d="M59.275,291.611c.622,3.235,1.256,6.787,1.662,9.071l.317,1.789" transform="translate(-52.131 -282.021)"/><path class="aa" d="M58.5,287.979a2.954,2.954,0,0,0-2.6-.546.821.821,0,0,1-.99-.6.812.812,0,0,1,.6-.99c1.307-.317,4.021-.279,4.91,2.207.292.825.787,3.108,1.319,5.8" transform="translate(-54.873 -285.709)"/><path class="aa" d="M60.827,305.2c-1-5.76-2.854-15.921-3.489-17.71" transform="translate(-53.341 -284.597)"/><path class="aa" d="M73.084,301.439l1.053,12.978H72.792l-.584-6.508H60.563l-.419,6.508H58.736l1.231-16" transform="translate(-52.468 -277.767)"/><path class="aa" d="M60.735,298.037H71.543l.19,2.309" transform="translate(-51.219 -278.006)"/><path class="r" d="M73.287,299.224H60.69l-.431-2.4H73.287a1.2,1.2,0,0,1,1.205,1.205h0A1.21,1.21,0,0,1,73.287,299.224Z" transform="translate(-51.517 -278.763)"/><path class="s" d="M60.493,297.693H74.067s.266,1.091-2.055.99-11.392-.089-11.392-.089Z" transform="translate(-51.37 -278.221)"/><path class="aa" d="M68.024,296.832H60.235l.419,2.4H73.3a1.2,1.2,0,0,0,1.205-1.205h0a1.2,1.2,0,0,0-1.205-1.205H69.141" transform="translate(-51.531 -278.767)"/><path class="p" d="M71.3,305.7H59.97l.406-5.95H70.905Z" transform="translate(-51.697 -276.933)"/><line class="aa" x1="1.256" transform="translate(14.577 28.771)"/><path class="aa" d="M64.955,305.7H59.97l.406-5.95H70.905l.393,5.95H68.457" transform="translate(-51.697 -276.933)"/></g><g transform="translate(61.058 0.496)"><path class="p" d="M99.788,307.757a.827.827,0,0,0,.812-.685c.964-5.569,2.956-16.594,3.628-18.471.622-1.725,2.88-1.192,2.969-1.167a.821.821,0,0,0,.99-.6.812.812,0,0,0-.6-.99c-1.307-.317-4.022-.279-4.91,2.207s-3.577,18.091-3.692,18.75a.83.83,0,0,0,.672.951Z" transform="translate(-85.237 -285.709)"/><path class="m" d="M99.65,307.74a.568.568,0,0,0,.14.013.852.852,0,0,0,.546-.2.8.8,0,0,0,.266-.469c.038-.228.076-.469.127-.71,1-5.747,2.854-15.959,3.5-17.761.622-1.725,2.88-1.193,2.969-1.167a.823.823,0,0,0,.977-.546c0-.013.013-.038.013-.051a.8.8,0,0,0-.6-.99c-1.307-.317-4.022-.279-4.91,2.207-.761,2.144-2.867,14.031-3.514,17.7-.1.584-.165.964-.178,1.053A.784.784,0,0,0,99.65,307.74Z" transform="translate(-85.238 -285.705)"/><path class="m" d="M91.317,314.656h1.357l.584-6.508h11.633l.419,6.508h1.421l-1.231-16-.051-.622H92.674Z" transform="translate(-90.023 -278.006)"/><path class="q" d="M99.585,306.07l.089,1.1,1.192,14.8h.419l-1.231-16c1-5.747,2.854-15.959,3.5-17.761.622-1.725,2.88-1.193,2.969-1.167a.823.823,0,0,0,.977-.546c-1.091-.241-3.26-.495-4.123.888-1.015,1.865-3.159,14.792-3.692,17.976C99.623,305.816,99.585,306.07,99.585,306.07Z" transform="translate(-84.856 -285.329)"/><path class="aa" d="M100.4,293.641c-.406,2.169-.774,4.25-1.04,5.785l-.317,1.789" transform="translate(-85.193 -280.753)"/><path class="aa" d="M105.178,287.37a3.8,3.8,0,0,1,1.357.063.821.821,0,0,0,.99-.6.812.812,0,0,0-.6-.99c-1.307-.317-4.021-.279-4.91,2.207-.419,1.167-1.243,5.265-2,9.324" transform="translate(-84.588 -285.709)"/><path class="aa" d="M100.054,305.472c1-5.76,2.854-15.921,3.489-17.71a1.794,1.794,0,0,1,.444-.71" transform="translate(-84.564 -284.871)"/><path class="aa" d="M97.391,307.909h3.7l.419,6.508h1.421l-1.231-16" transform="translate(-86.227 -277.767)"/><path class="aa" d="M92.4,306.226l.178-1.966h6.559" transform="translate(-89.345 -274.118)"/><path class="aa" d="M103.465,298.037h-10.8l-1.345,16.619h1.345l.317-3.565" transform="translate(-90.018 -278.006)"/><path class="r" d="M91.726,299.224h12.6l.431-2.4H91.726a1.2,1.2,0,0,0-1.205,1.205h0A1.2,1.2,0,0,0,91.726,299.224Z" transform="translate(-90.521 -278.763)"/><path class="s" d="M90.528,297.678h13.828l-.127.913-12.521.1C91.721,298.693,90.655,298.2,90.528,297.678Z" transform="translate(-90.516 -278.231)"/><path class="aa" d="M94,296.832h10.8l-.419,2.4H91.726a1.2,1.2,0,0,1-1.205-1.205h0a1.2,1.2,0,0,1,1.205-1.205h.964" transform="translate(-90.521 -278.767)"/><path class="p" d="M92.59,305.7h11.341l-.419-5.95H93Z" transform="translate(-89.228 -276.933)"/><path class="aa" d="M99.516,299.755H93l-.406,5.95h11.341l-.419-5.95h-3.121" transform="translate(-89.228 -276.933)"/></g><rect class="m" width="44.795" height="2.271" transform="translate(20.475 8.309)"/><rect class="aa" width="44.795" height="2.271" transform="translate(20.475 8.309)"/><path class="p" d="M70.432,290.518l14.373,15.756a.108.108,0,0,0,.165,0l14.691-15.756Z" transform="translate(-42.015 -282.209)"/><path class="c" d="M72.224,291.979l12.267,13.447a.116.116,0,0,0,.152,0L98.091,291H72.656A.584.584,0,0,0,72.224,291.979Z" transform="translate(-40.991 -281.906)"/><path class="aa" d="M81.405,302.545l3.4,3.73a.108.108,0,0,0,.165,0l14.691-15.756H70.432l8.424,9.236" transform="translate(-42.015 -282.209)"/><line class="aa" x2="1.002" y2="1.091" transform="translate(37.665 18.458)"/><path class="c" d="M66.6,289.827l.444.888H74.49l.533-.888c.013-.025,0-.051-.025-.051h-8.36C66.612,289.777,66.587,289.8,66.6,289.827Z" transform="translate(-44.411 -282.672)"/><path class="c" d="M87,289.845l.431.863h7.447l.52-.863a.047.047,0,0,0-.038-.076H87.051C87.013,289.781,86.988,289.82,87,289.845Z" transform="translate(-31.664 -282.677)"/><path class="ab" d="M66.6,289.827l.444.888H74.49l.533-.888c.013-.025,0-.051-.025-.051h-8.36C66.612,289.777,66.587,289.8,66.6,289.827Z" transform="translate(-44.411 -282.672)"/><path class="ab" d="M87,289.845l.431.863h7.447l.52-.863a.047.047,0,0,0-.038-.076H87.051C87.013,289.781,86.988,289.82,87,289.845Z" transform="translate(-31.664 -282.677)"/><path class="u" d="M83.564,286.06l1.154,1.827v4.669l-1,.748h2.639l-.939-.748V287.9l.863-1.5Z" transform="translate(-33.809 -284.995)"/><path class="ac" d="M83.15,285.412l1.827,2.88v4.669l-1,.748h2.639l-.939-.748V288.3l1.675-2.892Z" transform="translate(-34.068 -285.4)"/><path class="u" d="M73.078,286.453l.9,1.421v4.643a.1.1,0,0,1-.025.051l-.977.736H75.6l-.913-.736a.066.066,0,0,1-.025-.051v-4.631l1.066-1.827Z" transform="translate(-40.424 -284.995)"/><path class="ac" d="M73.236,286.622l1.04,1.649a.047.047,0,0,1,.013.038v4.605a.11.11,0,0,1-.038.076l-.951.723h2.626l-.9-.723a.09.09,0,0,1-.038-.076v-4.592a.047.047,0,0,1,.013-.038l1.637-2.829c.013-.025,0-.051-.025-.051H72.538c-.025,0-.051.025-.025.051l.495.774" transform="translate(-40.721 -285.404)"/><line class="aa" x2="3.413" transform="translate(82.32 37.145)"/><line class="aa" x2="21.744" transform="translate(58.001 37.145)"/><line class="aa" x2="12.153" transform="translate(44.097 37.145)"/><line class="aa" x2="22.29" transform="translate(18.978 37.145)"/><line class="aa" x2="16.378" transform="translate(0 37.145)"/></g></g></g></svg>