<svg xmlns="http://www.w3.org/2000/svg" xmlns:xlink="http://www.w3.org/1999/xlink" width="97" height="97" viewBox="0 0 97 97"><defs><style>.a{fill:#c44829;}.b{clip-path:url(#a);}</style><clipPath id="a"><rect class="a" width="97" height="97" transform="translate(159 274)"/></clipPath></defs><g class="b" transform="translate(-159 -274)"><g transform="translate(157.226 257.97)"><path class="a" d="M2.957,98.774H9.152a1.183,1.183,0,0,0,1.183-1.183V78.374H24.757V97.591a1.183,1.183,0,0,0,1.183,1.183h6.195a1.183,1.183,0,0,0,1.183-1.183v-21.8a5.982,5.982,0,0,0-5.974-5.974H10.335V47.453a7.386,7.386,0,0,0-7.378-7.378,1.183,1.183,0,0,0-1.183,1.183V97.591A1.183,1.183,0,0,0,2.957,98.774Zm5.012-2.366H4.14V78.374H7.969ZM4.14,42.582a5.022,5.022,0,0,1,3.829,4.871V71a1.183,1.183,0,0,0,1.183,1.183h18.19a3.613,3.613,0,0,1,3.608,3.608V96.409H27.123V77.191a1.183,1.183,0,0,0-1.183-1.183H4.14Z"/><path class="a" d="M97.591,40.075a7.386,7.386,0,0,0-7.378,7.378V69.813H73.206a5.982,5.982,0,0,0-5.975,5.974v21.8a1.183,1.183,0,0,0,1.183,1.183h6.195a1.183,1.183,0,0,0,1.183-1.183V78.374H90.214V97.591A1.183,1.183,0,0,0,91.4,98.774h6.195a1.183,1.183,0,0,0,1.183-1.183V41.258A1.183,1.183,0,0,0,97.591,40.075ZM74.609,76.007a1.183,1.183,0,0,0-1.183,1.183V96.409H69.6V75.788a3.614,3.614,0,0,1,3.609-3.608H91.4A1.183,1.183,0,0,0,92.579,71V47.453a5.022,5.022,0,0,1,3.829-4.871V76.008h-21.8Zm21.8,20.4H92.579V78.374h3.829Z"/><path class="a" d="M47.177,98.774h6.2a1.183,1.183,0,0,0,1.183-1.183v-41.7H73.944a1.183,1.183,0,0,0,1.183-1.183V48.51a1.183,1.183,0,0,0-1.183-1.183H26.6a1.183,1.183,0,0,0-1.183,1.183v6.195A1.183,1.183,0,0,0,26.6,55.888H45.994v41.7A1.183,1.183,0,0,0,47.177,98.774Zm5.013-2.366H48.36V55.888h3.83Zm-24.4-46.716H72.762v3.829H27.787Z"/><path class="a" d="M39.05,45.6l.08,0a1.183,1.183,0,0,0,1.179-1.1,10.04,10.04,0,0,1,6.226-8.59,1.183,1.183,0,0,0-.887-2.193,12.421,12.421,0,0,0-7.7,10.626A1.183,1.183,0,0,0,39.05,45.6Z"/><path class="a" d="M27.951,41.955v2.468a1.183,1.183,0,0,0,2.366,0V41.955A4.872,4.872,0,0,0,34,37.238V33.552a1.183,1.183,0,0,0-1.183-1.183H25.448a1.183,1.183,0,0,0-1.183,1.183v3.685a4.872,4.872,0,0,0,3.685,4.717Zm-1.32-7.219h5v2.5a2.5,2.5,0,0,1-5,0Z"/><path class="a" d="M70.232,41.955v2.468a1.183,1.183,0,0,0,2.366,0V41.955a4.872,4.872,0,0,0,3.685-4.717V33.552A1.183,1.183,0,0,0,75.1,32.369H67.73a1.183,1.183,0,0,0-1.183,1.183v3.685A4.872,4.872,0,0,0,70.232,41.955Zm-1.32-7.219h5v2.5a2.5,2.5,0,0,1-5,0Z"/><path class="a" d="M50.274,35.19A10.008,10.008,0,0,1,60.241,44.5a1.183,1.183,0,0,0,1.179,1.1c.026,0,.053,0,.08,0a1.183,1.183,0,0,0,1.1-1.259A12.384,12.384,0,0,0,51.457,32.881V31.468a1.183,1.183,0,1,0-2.366,0v2.539A1.183,1.183,0,0,0,50.274,35.19Z"/></g></g></svg>