<svg width="361" height="274" viewBox="0 0 361 274" fill="none" xmlns="http://www.w3.org/2000/svg">
<g id="table1">
<rect width="361" height="274" fill="white"/>
<g id="_x32__Chair">
<path id="Rectangle 940" d="M242.426 111.175H118.86V117.903H242.426V111.175Z" fill="#D2A176"/>
<path id="Line 204" d="M224.753 117.903H129.435" stroke="#1C1C1C" stroke-width="2" stroke-miterlimit="10" stroke-linecap="round" stroke-linejoin="round"/>
<path id="Line 205" d="M229.625 117.903H228.253" stroke="#1C1C1C" stroke-width="2" stroke-miterlimit="10" stroke-linecap="round" stroke-linejoin="round"/>
<path id="Path 1499" d="M126.273 117.903H118.86V111.175H242.426V117.903H232.472" stroke="#1C1C1C" stroke-width="2" stroke-miterlimit="10" stroke-linecap="round" stroke-linejoin="round"/>
<path id="Path 1500" d="M176.831 146.15V172.148C176.831 175.166 175.631 178.06 173.497 180.195C171.363 182.329 168.468 183.528 165.45 183.529H163.7C161.584 183.53 159.555 184.37 158.059 185.866C156.564 187.362 155.723 189.391 155.722 191.506V191.692H205.87V191.402C205.869 189.286 205.028 187.257 203.532 185.761C202.036 184.265 200.008 183.425 197.892 183.424H196.037C193.019 183.423 190.124 182.224 187.99 180.09C185.856 177.955 184.656 175.061 184.656 172.043V146.142H176.831V146.15Z" fill="#D2A176"/>
<path id="Path 1501" d="M179.405 151.966V173.608C179.405 175.343 179.064 177.061 178.4 178.664C177.736 180.268 176.763 181.724 175.536 182.951C174.309 184.178 172.852 185.152 171.249 185.815C169.646 186.479 167.928 186.82 166.192 186.82H165.2C163.908 186.82 162.669 187.334 161.755 188.247C160.842 189.161 160.328 190.4 160.328 191.692H155.731C155.731 191.692 155.182 184.69 161.425 184.344C167.668 183.997 177.114 183.182 176.84 170.413C176.565 157.774 176.84 149.135 176.84 149.135L179.405 151.966Z" fill="#B28766"/>
<path id="Path 1502" d="M176.831 172.148C176.831 175.166 175.631 178.06 173.497 180.195C171.363 182.329 168.468 183.528 165.45 183.529H163.7C161.584 183.53 159.555 184.37 158.059 185.866C156.564 187.362 155.723 189.391 155.722 191.506V191.692H177.452" stroke="#1C1C1C" stroke-width="2" stroke-miterlimit="10" stroke-linecap="round" stroke-linejoin="round"/>
<path id="Path 1503" d="M184.664 156.394V146.15H176.832V169.631" stroke="#1C1C1C" stroke-width="2" stroke-miterlimit="10" stroke-linecap="round" stroke-linejoin="round"/>
<path id="Path 1504" d="M181.123 191.7H205.87V191.41C205.869 189.294 205.029 187.265 203.533 185.769C202.037 184.274 200.008 183.433 197.893 183.432H196.037C193.019 183.431 190.125 182.232 187.991 180.098C185.856 177.963 184.657 175.069 184.656 172.051V159.54" stroke="#1C1C1C" stroke-width="2" stroke-miterlimit="10" stroke-linecap="round" stroke-linejoin="round"/>
<g id="Group 836">
<path id="Path 1505" d="M88.1688 148.57C87.5992 148.569 87.0483 148.367 86.6131 148C86.1778 147.632 85.8861 147.123 85.7893 146.562C82.95 130.107 77.0617 97.5194 75.0855 91.9779C73.2706 86.8882 66.5918 88.4691 66.3095 88.5336C65.6859 88.6854 65.0277 88.5838 64.4789 88.2512C63.9301 87.9186 63.5355 87.3821 63.3815 86.7591C63.3056 86.4503 63.2913 86.1296 63.3394 85.8153C63.3875 85.501 63.4971 85.1992 63.6619 84.9273C63.8267 84.6554 64.0435 84.4186 64.2999 84.2305C64.5562 84.0424 64.8472 83.9067 65.156 83.8311C69.0278 82.8793 77.0294 83.0164 79.6509 90.3405C82.2724 97.6646 90.2337 143.771 90.5725 145.731C90.6807 146.364 90.5334 147.014 90.1629 147.539C89.7925 148.063 89.2291 148.42 88.5963 148.53C88.4557 148.559 88.3123 148.572 88.1688 148.57V148.57Z" fill="white"/>
<path id="Path 1506" d="M88.5877 148.54C88.449 148.562 88.3087 148.573 88.1682 148.572C87.5803 148.569 87.0132 148.354 86.5711 147.967C86.1593 147.601 85.8836 147.106 85.7887 146.563C85.6677 145.886 85.5467 145.176 85.4257 144.45C82.4735 127.471 76.9804 97.2952 75.0849 91.9796C73.2619 86.8898 66.5912 88.4708 66.3089 88.5353C65.7116 88.6827 65.0807 88.5972 64.5443 88.296C64.0078 87.9948 63.6063 87.5007 63.4212 86.914C63.404 86.8667 63.3906 86.8182 63.3809 86.7688C63.3036 86.4605 63.2881 86.14 63.3352 85.8257C63.3823 85.5115 63.491 85.2095 63.6552 84.9374C63.8194 84.6653 64.0357 84.4283 64.2918 84.2401C64.5479 84.0519 64.8386 83.9162 65.1474 83.8408C69.0191 82.889 77.0208 83.018 79.6423 90.3502C81.8928 96.666 88.1279 131.794 90.0154 142.619C90.3219 144.353 90.5074 145.466 90.5558 145.741C90.6659 146.373 90.5204 147.023 90.1513 147.548C89.7822 148.073 89.2198 148.429 88.5877 148.54V148.54Z" fill="#D2A176"/>
<path id="Path 1507" d="M127.306 191.7H123.321L121.603 172.478H87.2166L85.9744 191.7H81.7881L85.4259 144.448L85.5631 142.617H123.321L127.306 191.7Z" fill="#D2A176"/>
<path id="Path 1508" d="M87.6441 144.706L87.378 147.965L83.8369 191.7H82.5947L86.2325 144.448C83.2803 127.469 77.7873 97.2935 75.8917 91.9779C74.0688 86.8882 67.398 88.4691 67.1157 88.5336C66.5185 88.6811 65.8875 88.5955 65.3511 88.2944C64.8147 87.9932 64.4131 87.499 64.228 86.9124C67.4626 86.2106 73.851 85.4443 76.416 89.5177C79.4005 95.0108 85.7647 133.212 87.3054 142.617C87.5232 143.948 87.6441 144.706 87.6441 144.706Z" fill="#A57D5E"/>
<path id="Path 1509" d="M84.3853 111.772C86.2243 121.331 88.1118 131.817 89.3056 138.584L90.2332 143.868" stroke="#1C1C1C" stroke-width="2" stroke-miterlimit="10" stroke-linecap="round" stroke-linejoin="round"/>
<path id="Path 1510" d="M73.9966 90.1307C71.4315 87.3237 66.5434 88.4772 66.3095 88.5336C65.6859 88.6854 65.0277 88.5838 64.4789 88.2512C63.9301 87.9186 63.5355 87.3821 63.3815 86.7591C63.3056 86.4503 63.2913 86.1296 63.3394 85.8153C63.3875 85.501 63.4971 85.1992 63.6619 84.9273C63.8267 84.6554 64.0435 84.4186 64.2999 84.2305C64.5562 84.0424 64.8472 83.9067 65.156 83.8311C69.0278 82.8793 77.0294 83.0164 79.6509 90.3405C80.5221 92.7765 81.9821 99.5117 83.563 107.481" stroke="#1C1C1C" stroke-width="2" stroke-miterlimit="10" stroke-linecap="round" stroke-linejoin="round"/>
<path id="Path 1511" d="M85.4016 144.295C82.4494 127.284 76.9805 97.2774 75.085 91.9779" stroke="#1C1C1C" stroke-width="2" stroke-miterlimit="10" stroke-linecap="round" stroke-linejoin="round"/>
<path id="Path 1512" d="M124.192 153.353L127.306 191.7H123.321L121.603 172.478H87.2166L85.9744 191.7H81.7881L85.4259 144.448" stroke="#1C1C1C" stroke-width="2" stroke-miterlimit="10" stroke-linecap="round" stroke-linejoin="round"/>
<path id="Path 1513" d="M91.4028 142.617H123.321L123.877 149.417" stroke="#1C1C1C" stroke-width="2" stroke-miterlimit="10" stroke-linecap="round" stroke-linejoin="round"/>
<path id="Path 1514" d="M127.604 143.868H90.3704L89.104 136.777H127.604C128.069 136.777 128.529 136.869 128.959 137.047C129.389 137.225 129.779 137.485 130.108 137.814C130.437 138.143 130.698 138.534 130.876 138.963C131.053 139.393 131.145 139.853 131.145 140.318V140.318C131.146 140.784 131.055 141.245 130.877 141.676C130.7 142.106 130.439 142.497 130.11 142.827C129.781 143.157 129.391 143.418 128.961 143.597C128.531 143.775 128.069 143.867 127.604 143.868Z" fill="#E54E61"/>
<path id="Path 1515" d="M90.2334 140.948H130.338C130.338 140.948 131.113 144.158 124.265 143.868C117.416 143.577 90.5964 143.626 90.5964 143.626L90.2334 140.948Z" fill="#B23F52"/>
<path id="Path 1516" d="M111.996 136.777H88.9912L90.2415 143.868H127.612C128.077 143.868 128.538 143.776 128.967 143.598C129.397 143.42 129.787 143.159 130.116 142.831C130.445 142.502 130.706 142.111 130.884 141.682C131.062 141.252 131.153 140.792 131.153 140.327V140.327C131.153 139.861 131.062 139.401 130.884 138.971C130.706 138.542 130.445 138.151 130.116 137.822C129.787 137.494 129.397 137.233 128.967 137.055C128.538 136.877 128.077 136.785 127.612 136.785H115.335" stroke="#1C1C1C" stroke-width="2" stroke-miterlimit="10" stroke-linecap="round" stroke-linejoin="round"/>
<path id="Path 1517" d="M121.2 168.429H87.709L88.927 150.853H120.03L121.2 168.429Z" fill="white"/>
<path id="Line 206" d="M110.068 168.429H106.35" stroke="#1C1C1C" stroke-width="2" stroke-miterlimit="10" stroke-linecap="round" stroke-linejoin="round"/>
<path id="Path 1518" d="M102.438 168.429H87.709L88.927 150.853H120.03L121.2 168.429H112.787" stroke="#1C1C1C" stroke-width="2" stroke-miterlimit="10" stroke-linecap="round" stroke-linejoin="round"/>
</g>
<g id="Group 837">
<path id="Path 1519" d="M277.352 148.57C277.922 148.569 278.473 148.367 278.908 147.999C279.343 147.632 279.635 147.123 279.732 146.562C282.571 130.107 288.46 97.5193 290.436 91.9779C292.251 86.8881 298.929 88.4691 299.212 88.5336C299.835 88.6853 300.494 88.5838 301.042 88.2512C301.591 87.9186 301.986 87.382 302.14 86.7591C302.216 86.4503 302.23 86.1296 302.182 85.8153C302.134 85.501 302.024 85.1992 301.859 84.9273C301.695 84.6554 301.478 84.4186 301.221 84.2305C300.965 84.0424 300.674 83.9066 300.365 83.831C296.493 82.8792 288.492 83.0164 285.87 90.3404C283.249 97.6645 275.287 143.771 274.949 145.731C274.841 146.364 274.988 147.014 275.358 147.539C275.729 148.063 276.292 148.42 276.925 148.53C277.066 148.558 277.209 148.572 277.352 148.57V148.57Z" fill="white"/>
<path id="Path 1520" d="M276.942 148.538C277.08 148.561 277.22 148.571 277.361 148.57C277.949 148.568 278.516 148.353 278.958 147.965C279.37 147.599 279.646 147.104 279.74 146.562C279.861 145.884 279.982 145.174 280.103 144.448C283.056 127.469 288.549 97.2935 290.444 91.9779C292.267 86.8881 298.938 88.4691 299.22 88.5336C299.818 88.6811 300.449 88.5955 300.985 88.2943C301.521 87.9932 301.923 87.499 302.108 86.9123C302.125 86.8651 302.139 86.8165 302.148 86.7671C302.226 86.4589 302.241 86.1384 302.194 85.8241C302.147 85.5098 302.038 85.2079 301.874 84.9358C301.71 84.6636 301.493 84.4267 301.237 84.2385C300.981 84.0503 300.691 83.9145 300.382 83.8391C296.51 82.8873 288.508 83.0164 285.887 90.3485C283.636 96.6643 277.401 131.793 275.514 142.617C275.207 144.352 275.022 145.465 274.973 145.739C274.863 146.371 275.009 147.021 275.378 147.546C275.747 148.071 276.309 148.428 276.942 148.538V148.538Z" fill="#D2A176"/>
<path id="Path 1521" d="M238.224 191.7H242.208L243.926 172.478H278.313L279.555 191.7H283.741L280.103 144.448L279.966 142.617H242.208L238.224 191.7Z" fill="#D2A176"/>
<path id="Path 1522" d="M277.885 144.706L278.151 147.965L281.692 191.7H282.934L279.296 144.448C282.249 127.469 287.742 97.2935 289.637 91.9779C291.46 86.8881 298.131 88.4691 298.413 88.5336C299.01 88.681 299.641 88.5955 300.178 88.2943C300.714 87.9932 301.116 87.499 301.301 86.9123C298.066 86.2106 291.678 85.4443 289.113 89.5177C286.128 95.0108 279.764 133.212 278.224 142.617C278.006 143.948 277.885 144.706 277.885 144.706Z" fill="#A57D5E"/>
<path id="Path 1523" d="M279.304 121.508C278.119 127.929 277.014 134.083 276.223 138.584L275.295 143.868" stroke="#1C1C1C" stroke-width="2" stroke-miterlimit="10" stroke-linecap="round" stroke-linejoin="round"/>
<path id="Path 1524" d="M295.219 88.3481C296.553 88.1824 297.906 88.2452 299.22 88.5336C299.843 88.6853 300.502 88.5838 301.05 88.2512C301.599 87.9186 301.994 87.382 302.148 86.7591C302.224 86.4503 302.238 86.1296 302.19 85.8153C302.142 85.501 302.032 85.1992 301.867 84.9273C301.703 84.6554 301.486 84.4186 301.229 84.2305C300.973 84.0424 300.682 83.9066 300.373 83.831C296.501 82.8792 288.5 83.0164 285.878 90.3404C284.644 93.7928 282.224 105.884 279.966 117.894" stroke="#1C1C1C" stroke-width="2" stroke-miterlimit="10" stroke-linecap="round" stroke-linejoin="round"/>
<path id="Path 1525" d="M280.127 144.295C283.08 127.284 288.549 97.2774 290.444 91.9779C290.717 91.1843 291.173 90.466 291.775 89.8807" stroke="#1C1C1C" stroke-width="2" stroke-miterlimit="10" stroke-linecap="round" stroke-linejoin="round"/>
<path id="Path 1526" d="M267.35 172.478H278.312L279.546 191.7H283.733L280.103 144.448" stroke="#1C1C1C" stroke-width="2" stroke-miterlimit="10" stroke-linecap="round" stroke-linejoin="round"/>
<path id="Path 1527" d="M243.402 178.278L243.919 172.478H263.334" stroke="#1C1C1C" stroke-width="2" stroke-miterlimit="10" stroke-linecap="round" stroke-linejoin="round"/>
<path id="Path 1528" d="M274.126 142.617H242.2L238.224 191.7H242.2L243.144 181.166" stroke="#1C1C1C" stroke-width="2" stroke-miterlimit="10" stroke-linecap="round" stroke-linejoin="round"/>
<path id="Path 1529" d="M237.925 143.868H275.158L276.425 136.777H237.925C237.46 136.777 236.999 136.869 236.57 137.047C236.14 137.225 235.75 137.485 235.421 137.814C235.092 138.143 234.831 138.534 234.653 138.963C234.475 139.393 234.384 139.853 234.384 140.318V140.318C234.382 140.784 234.473 141.246 234.65 141.677C234.827 142.107 235.088 142.499 235.417 142.829C235.746 143.159 236.137 143.42 236.567 143.598C236.998 143.777 237.459 143.868 237.925 143.868V143.868Z" fill="#E54E61"/>
<path id="Path 1530" d="M234.424 140.859H275.296L274.933 143.569L237.925 143.86C237.925 143.868 234.795 142.408 234.424 140.859Z" fill="#B23F52"/>
<path id="Path 1531" d="M244.644 136.777H276.538L275.288 143.868H237.917C237.452 143.868 236.991 143.776 236.562 143.598C236.132 143.42 235.742 143.159 235.413 142.831C235.084 142.502 234.823 142.111 234.645 141.682C234.467 141.252 234.376 140.792 234.376 140.327V140.327C234.376 139.861 234.467 139.401 234.645 138.971C234.823 138.542 235.084 138.151 235.413 137.822C235.742 137.494 236.132 137.233 236.562 137.055C236.991 136.877 237.452 136.785 237.917 136.785H240.772" stroke="#1C1C1C" stroke-width="2" stroke-miterlimit="10" stroke-linecap="round" stroke-linejoin="round"/>
<path id="Path 1532" d="M244.322 168.429H277.813L276.595 150.853H245.499L244.322 168.429Z" fill="white"/>
<path id="Path 1533" d="M264.77 150.853H245.499L244.322 168.429H277.813L276.595 150.853H267.351" stroke="#1C1C1C" stroke-width="2" stroke-miterlimit="10" stroke-linecap="round" stroke-linejoin="round"/>
</g>
<path id="Rectangle 941" d="M246.822 106.505H114.464V113.232H246.822V106.505Z" fill="#D2A176"/>
<path id="Rectangle 942" d="M246.822 106.505H114.464V113.232H246.822V106.505Z" stroke="#1C1C1C" stroke-width="2" stroke-miterlimit="10" stroke-linecap="round" stroke-linejoin="round"/>
<path id="Path 1534" d="M137.944 106.505L180.405 153.063C180.435 153.096 180.472 153.122 180.513 153.14C180.554 153.158 180.598 153.168 180.643 153.168C180.687 153.168 180.732 153.158 180.773 153.14C180.814 153.122 180.85 153.096 180.881 153.063L224.301 106.505H137.944Z" fill="white"/>
<path id="Path 1535" d="M146.261 111.716L182.51 151.458C182.538 151.488 182.571 151.513 182.609 151.529C182.646 151.546 182.687 151.555 182.728 151.555C182.769 151.555 182.81 151.546 182.847 151.529C182.885 151.513 182.918 151.488 182.946 151.458L222.688 108.836H147.527C147.195 108.839 146.87 108.937 146.592 109.12C146.315 109.302 146.096 109.562 145.962 109.866C145.828 110.17 145.785 110.507 145.838 110.835C145.891 111.163 146.038 111.469 146.261 111.716V111.716Z" fill="#F4F5F5"/>
<path id="Path 1536" d="M170.362 142.053L180.405 153.063C180.435 153.096 180.472 153.122 180.513 153.14C180.554 153.158 180.598 153.168 180.643 153.168C180.687 153.168 180.732 153.158 180.773 153.14C180.814 153.122 180.85 153.096 180.881 153.063L224.301 106.505H137.944L162.837 133.801" stroke="#1C1C1C" stroke-width="2" stroke-miterlimit="10" stroke-linecap="round" stroke-linejoin="round"/>
<path id="Line 207" d="M165.281 136.479L168.233 139.714" stroke="#1C1C1C" stroke-width="2" stroke-miterlimit="10" stroke-linecap="round" stroke-linejoin="round"/>
<path id="Path 1537" d="M119.554 103.085L120.869 105.698H142.857L144.438 103.093C144.447 103.078 144.452 103.061 144.453 103.044C144.453 103.026 144.449 103.009 144.441 102.994C144.433 102.979 144.421 102.965 144.406 102.956C144.392 102.947 144.375 102.941 144.358 102.94H119.643C119.626 102.94 119.609 102.944 119.594 102.953C119.579 102.961 119.567 102.973 119.558 102.988C119.549 103.002 119.544 103.019 119.544 103.036C119.543 103.053 119.547 103.07 119.554 103.085Z" fill="#F4F5F5"/>
<path id="Path 1538" d="M217.485 103.15L218.768 105.698H240.756L242.297 103.166C242.31 103.144 242.318 103.119 242.318 103.094C242.319 103.069 242.313 103.044 242.3 103.021C242.288 102.999 242.27 102.981 242.248 102.968C242.226 102.955 242.201 102.948 242.176 102.948H217.614C217.59 102.948 217.567 102.953 217.546 102.965C217.525 102.976 217.507 102.993 217.494 103.013C217.481 103.033 217.473 103.056 217.472 103.08C217.47 103.104 217.475 103.128 217.485 103.15V103.15Z" fill="#F4F5F5"/>
<path id="Path 1539" d="M119.554 103.085L120.869 105.698H142.857L144.438 103.093C144.447 103.078 144.452 103.061 144.453 103.044C144.453 103.026 144.449 103.009 144.441 102.994C144.433 102.979 144.421 102.965 144.406 102.956C144.392 102.947 144.375 102.941 144.358 102.94H119.643C119.626 102.94 119.609 102.944 119.594 102.953C119.579 102.961 119.567 102.973 119.558 102.988C119.549 103.002 119.544 103.019 119.544 103.036C119.543 103.053 119.547 103.07 119.554 103.085Z" stroke="#1C1C1C" stroke-width="1.25" stroke-miterlimit="10"/>
<path id="Path 1540" d="M217.485 103.15L218.768 105.698H240.756L242.297 103.166C242.31 103.144 242.318 103.119 242.318 103.094C242.319 103.069 242.313 103.044 242.3 103.021C242.288 102.999 242.27 102.981 242.248 102.968C242.226 102.955 242.201 102.948 242.176 102.948H217.614C217.59 102.948 217.567 102.953 217.546 102.965C217.525 102.976 217.507 102.993 217.494 103.013C217.481 103.033 217.473 103.056 217.472 103.08C217.47 103.104 217.475 103.128 217.485 103.15V103.15Z" stroke="#1C1C1C" stroke-width="1.25" stroke-miterlimit="10"/>
<path id="Path 1541" d="M200.982 85.1217L204.378 90.4937V104.295L201.442 106.505H209.217L206.443 104.295V90.5421L209.016 86.1138L200.982 85.1217Z" fill="#4285F4"/>
<path id="Path 1542" d="M198.998 82L204.378 90.4937V104.295L201.442 106.505H209.217L206.443 104.295V90.5421L211.403 82H198.998Z" stroke="#1C1C1C" stroke-width="1.25" stroke-miterlimit="10" stroke-linecap="round" stroke-linejoin="round"/>
<path id="Path 1543" d="M150.479 86.267L153.141 90.4695C153.15 90.4842 153.156 90.5008 153.157 90.5179V104.206C153.158 104.232 153.152 104.258 153.141 104.282C153.13 104.306 153.113 104.327 153.093 104.343L150.221 106.505H157.997L155.279 104.343C155.259 104.328 155.243 104.308 155.232 104.286C155.221 104.264 155.215 104.239 155.214 104.214V90.5744C155.216 90.5608 155.219 90.5473 155.222 90.534L158.36 85.1297L150.479 86.267Z" fill="#4285F4"/>
<path id="Path 1544" d="M150.036 85.5734L153.118 90.4453C153.137 90.4771 153.148 90.5131 153.15 90.5502V104.158C153.151 104.201 153.141 104.243 153.121 104.281C153.101 104.319 153.072 104.352 153.037 104.376L150.214 106.505H157.99L155.312 104.376C155.279 104.35 155.252 104.317 155.234 104.279C155.215 104.241 155.206 104.2 155.207 104.158V90.5986C155.207 90.5648 155.215 90.5317 155.231 90.5018L160.079 82.1613C160.088 82.1454 160.094 82.1272 160.094 82.1085C160.094 82.0899 160.09 82.0715 160.081 82.0552C160.072 82.0388 160.059 82.0252 160.043 82.0155C160.027 82.0058 160.009 82.0005 159.99 82H147.963C147.944 81.9997 147.926 82.0045 147.909 82.014C147.893 82.0235 147.879 82.0373 147.87 82.0539C147.861 82.0705 147.857 82.0893 147.858 82.1082C147.858 82.1272 147.864 82.1455 147.875 82.1613L149.318 84.4441" stroke="#1C1C1C" stroke-width="1.25" stroke-miterlimit="10" stroke-linecap="round" stroke-linejoin="round"/>
<path id="Line 208" d="M297.211 191.7H307.278" stroke="#1C1C1C" stroke-width="2" stroke-miterlimit="10" stroke-linecap="round" stroke-linejoin="round"/>
<path id="Line 209" d="M225.334 191.7H289.589" stroke="#1C1C1C" stroke-width="2" stroke-miterlimit="10" stroke-linecap="round" stroke-linejoin="round"/>
<path id="Line 210" d="M184.252 191.7H220.187" stroke="#1C1C1C" stroke-width="2" stroke-miterlimit="10" stroke-linecap="round" stroke-linejoin="round"/>
<path id="Line 211" d="M110.068 191.7H175.904" stroke="#1C1C1C" stroke-width="2" stroke-miterlimit="10" stroke-linecap="round" stroke-linejoin="round"/>
<path id="Line 212" d="M54 191.7H102.389" stroke="#1C1C1C" stroke-width="2" stroke-miterlimit="10" stroke-linecap="round" stroke-linejoin="round"/>
</g>
</g>
</svg>
