<svg width="361" height="274" viewBox="0 0 361 274" fill="none" xmlns="http://www.w3.org/2000/svg">
<g id="table3">
<rect width="361" height="274" fill="white"/>
<g id="_x35__Chair">
<g id="Group 848">
<g id="Group 843">
<path id="Rectangle 947" d="M131.195 138.336H84.7417V145.242H131.195V138.336Z" fill="#E54E61"/>
<path id="Line 221" d="M98.6904 138.336H107.139" stroke="#1C1C1C" stroke-width="1.738" stroke-miterlimit="10" stroke-linecap="round" stroke-linejoin="round"/>
<path id="Path 1607" d="M109.88 138.336H131.195V145.233H84.7417V138.336H94.9665" stroke="#1C1C1C" stroke-width="1.738" stroke-miterlimit="10" stroke-linecap="round" stroke-linejoin="round"/>
<path id="Path 1608" d="M129.176 145.233L131.412 191.687H125.362L123.558 152.005H93.1546L91.5947 191.687H84.8232L86.7618 145.233H129.176Z" fill="#D2A176"/>
<path id="Path 1609" d="M123.702 155.224L123.558 152.005H100.259" stroke="#1C1C1C" stroke-width="1.738" stroke-miterlimit="10" stroke-linecap="round" stroke-linejoin="round"/>
<path id="Path 1610" d="M92.0906 179.091L91.5947 191.687H84.8232L86.7618 145.233H129.176L131.412 191.687H125.362L123.802 157.505" stroke="#1C1C1C" stroke-width="1.738" stroke-miterlimit="10" stroke-linecap="round" stroke-linejoin="round"/>
<path id="Path 1611" d="M97.7436 152.005H93.1542L92.1895 176.53" stroke="#1C1C1C" stroke-width="1.738" stroke-miterlimit="10" stroke-linecap="round" stroke-linejoin="round"/>
<path id="Path 1612" d="M129.212 138.336C129.212 138.336 128.95 91.1699 132.818 85.1107H83.0649C86.9331 91.1609 86.6716 138.336 86.6716 138.336H92.4963C92.4963 138.336 92.6856 96.9946 89.8093 91.6838H126.913C124.027 96.9946 124.226 138.336 124.226 138.336H129.212Z" fill="#D2A176"/>
<path id="Path 1613" d="M89.8544 85.1107H83.0649C86.9331 91.1609 86.6716 138.336 86.6716 138.336H92.4963C92.4963 138.336 92.6856 96.9946 89.8093 91.6838H102.207" stroke="#1C1C1C" stroke-width="1.738" stroke-miterlimit="10" stroke-linecap="round" stroke-linejoin="round"/>
<path id="Path 1614" d="M104.777 91.6838H126.913C124.027 96.9946 124.226 138.336 124.226 138.336H129.212C129.212 138.336 128.95 91.1699 132.818 85.1107H92.4331" stroke="#1C1C1C" stroke-width="1.738" stroke-miterlimit="10" stroke-linecap="round" stroke-linejoin="round"/>
</g>
<g id="Group 844">
<path id="Rectangle 948" d="M276.344 137.623H229.278V144.62H276.344V137.623Z" fill="#E54E61"/>
<path id="Path 1615" d="M243.975 137.623H276.344V144.62H229.278V137.623H241.324" stroke="#1C1C1C" stroke-width="1.761" stroke-miterlimit="10" stroke-linecap="round" stroke-linejoin="round"/>
<path id="Path 1616" d="M274.298 144.62L276.57 191.687H270.429L268.608 151.473H237.798L236.22 191.687H229.359L231.315 144.62H274.298Z" fill="#D2A176"/>
<path id="Path 1617" d="M262.603 151.473H237.798L237.456 160.129" stroke="#1C1C1C" stroke-width="1.761" stroke-miterlimit="10" stroke-linecap="round" stroke-linejoin="round"/>
<path id="Path 1618" d="M254.975 144.62H274.298L276.57 191.687H270.43L268.608 151.473H265.47" stroke="#1C1C1C" stroke-width="1.761" stroke-miterlimit="10" stroke-linecap="round" stroke-linejoin="round"/>
<path id="Path 1619" d="M237.357 162.698L236.22 191.687H229.359L231.315 144.62H251.413" stroke="#1C1C1C" stroke-width="1.761" stroke-miterlimit="10" stroke-linecap="round" stroke-linejoin="round"/>
<path id="Path 1620" d="M274.334 137.624C274.334 137.624 274.072 89.8274 277.985 83.6961H227.574C231.487 89.8274 231.225 137.624 231.225 137.624H237.131C237.131 137.624 237.33 95.7242 234.408 90.3504H272.007C269.086 95.7242 269.284 137.624 269.284 137.624H274.334Z" fill="#D2A176"/>
<path id="Path 1621" d="M275.668 95.7142C276.2 89.8805 276.949 85.3181 277.985 83.6861H227.574C231.487 89.8174 231.225 137.614 231.225 137.614H237.131C237.131 137.614 237.33 95.7142 234.408 90.3403H272.007C269.086 95.7142 269.284 137.614 269.284 137.614H274.343C274.343 137.614 274.216 114.09 275.488 97.9323" stroke="#1C1C1C" stroke-width="1.761" stroke-miterlimit="10" stroke-linecap="round" stroke-linejoin="round"/>
</g>
<g id="Group 845">
<path id="Rectangle 949" d="M201.895 137.623H154.828V144.62H201.895V137.623Z" fill="#E54E61"/>
<path id="Path 1622" d="M169.525 137.623H201.895V144.62H154.828V137.623H166.883" stroke="#1C1C1C" stroke-width="1.761" stroke-miterlimit="10" stroke-linecap="round" stroke-linejoin="round"/>
<path id="Path 1623" d="M199.857 144.62L202.12 191.687H195.989L194.158 151.473H163.349L161.771 191.687H154.909L156.875 144.62H199.857Z" fill="#D2A176"/>
<path id="Path 1624" d="M188.153 151.473H163.349L163.015 160.129" stroke="#1C1C1C" stroke-width="1.761" stroke-miterlimit="10" stroke-linecap="round" stroke-linejoin="round"/>
<path id="Path 1625" d="M180.525 144.62H199.857L202.12 191.687H195.989L194.158 151.473H191.021" stroke="#1C1C1C" stroke-width="1.761" stroke-miterlimit="10" stroke-linecap="round" stroke-linejoin="round"/>
<path id="Path 1626" d="M162.916 162.698L161.771 191.687H154.909L156.875 144.62H176.973" stroke="#1C1C1C" stroke-width="1.761" stroke-miterlimit="10" stroke-linecap="round" stroke-linejoin="round"/>
<path id="Path 1627" d="M199.884 137.624C199.884 137.624 199.623 89.8274 203.536 83.6961H153.124C157.037 89.8274 156.776 137.624 156.776 137.624H162.682C162.682 137.624 162.88 95.7242 159.959 90.3504H197.558C194.636 95.7242 194.835 137.624 194.835 137.624H199.884Z" fill="#D2A176"/>
<path id="Path 1628" d="M201.218 95.7142C201.75 89.8805 202.499 85.3181 203.536 83.6861H153.124C157.037 89.8174 156.776 137.614 156.776 137.614H162.682C162.682 137.614 162.88 95.7142 159.959 90.3403H197.558C194.636 95.7142 194.835 137.614 194.835 137.614H199.884C199.884 137.614 199.758 114.09 201.029 97.9323" stroke="#1C1C1C" stroke-width="1.761" stroke-miterlimit="10" stroke-linecap="round" stroke-linejoin="round"/>
</g>
<path id="Rectangle 950" d="M276.552 111.187H80.1348V117.913H276.552V111.187Z" fill="#D2A176"/>
<path id="Line 222" d="M130.609 117.913H102.811" stroke="#1C1C1C" stroke-width="2.255" stroke-miterlimit="10" stroke-linecap="round" stroke-linejoin="round"/>
<path id="Line 223" d="M230.865 117.913H133.197" stroke="#1C1C1C" stroke-width="2.255" stroke-miterlimit="10" stroke-linecap="round" stroke-linejoin="round"/>
<path id="Line 224" d="M270.177 117.913H234.607" stroke="#1C1C1C" stroke-width="2.255" stroke-miterlimit="10" stroke-linecap="round" stroke-linejoin="round"/>
<path id="Path 1629" d="M99.4122 117.913H80.1348V111.187H276.543V117.913H273.396" stroke="#1C1C1C" stroke-width="2.255" stroke-miterlimit="10" stroke-linecap="round" stroke-linejoin="round"/>
<path id="Path 1630" d="M174.53 146.153V172.148C174.53 175.166 173.331 178.06 171.197 180.194C169.063 182.328 166.169 183.527 163.151 183.527H161.402C160.354 183.526 159.316 183.733 158.347 184.133C157.379 184.534 156.499 185.122 155.758 185.863C155.017 186.604 154.43 187.484 154.029 188.452C153.628 189.421 153.422 190.458 153.422 191.506V191.696H203.554V191.407C203.554 190.359 203.348 189.321 202.947 188.353C202.547 187.385 201.959 186.505 201.218 185.764C200.477 185.023 199.597 184.435 198.629 184.034C197.66 183.633 196.622 183.427 195.574 183.428H193.726C190.708 183.428 187.814 182.229 185.68 180.095C183.546 177.961 182.347 175.067 182.347 172.049V146.162H174.53V146.153Z" fill="#D2A176"/>
<path id="Path 1631" d="M177.108 151.969V173.599C177.108 177.103 175.716 180.462 173.239 182.94C170.762 185.417 167.402 186.809 163.899 186.809H162.907C161.616 186.809 160.377 187.322 159.464 188.235C158.551 189.148 158.038 190.386 158.038 191.678H153.44C153.44 191.678 152.89 184.681 159.138 184.338C165.387 183.996 174.818 183.175 174.547 170.417C174.277 157.784 174.547 149.147 174.547 149.147L177.108 151.969Z" fill="#B28766"/>
<path id="Path 1632" d="M185.584 179.983C183.505 177.862 182.343 175.009 182.347 172.04V146.153H174.521V168.352" stroke="#1C1C1C" stroke-width="1.789" stroke-miterlimit="10" stroke-linecap="round" stroke-linejoin="round"/>
<path id="Path 1633" d="M174.53 171.778V172.148C174.53 175.166 173.331 178.06 171.197 180.194C169.063 182.328 166.169 183.527 163.151 183.527H161.402C160.354 183.526 159.316 183.733 158.347 184.133C157.379 184.534 156.499 185.122 155.758 185.863C155.017 186.604 154.43 187.484 154.029 188.452C153.628 189.421 153.422 190.458 153.422 191.506V191.696H203.554V191.407C203.554 190.359 203.348 189.321 202.947 188.353C202.547 187.385 201.959 186.505 201.218 185.764C200.477 185.023 199.597 184.435 198.629 184.034C197.66 183.633 196.622 183.427 195.574 183.428H193.726C191.965 183.428 190.227 183.021 188.65 182.237" stroke="#1C1C1C" stroke-width="1.789" stroke-miterlimit="10" stroke-linecap="round" stroke-linejoin="round"/>
<g id="Group 846">
<path id="Path 1634" d="M30.8411 148.569C30.2709 148.569 29.7191 148.367 29.2834 147.999C28.8478 147.631 28.5564 147.121 28.4608 146.559C25.6205 130.113 19.7417 97.5356 17.7581 91.9904C15.9367 86.9051 9.26445 88.483 8.98494 88.5461C8.36602 88.689 7.71574 88.5828 7.17441 88.2504C6.63309 87.9181 6.24412 87.3863 6.09145 86.7697C5.93878 86.1531 6.03466 85.5012 6.35839 84.9547C6.68211 84.4082 7.20771 84.0108 7.82179 83.8484C11.6899 82.9017 19.6966 83.0279 22.3115 90.3584C24.9263 97.6889 32.8879 143.773 33.2215 145.729C33.3301 146.362 33.183 147.011 32.8127 147.536C32.4425 148.06 31.8793 148.415 31.2469 148.524C31.1142 148.557 30.9778 148.572 30.8411 148.569V148.569Z" fill="white"/>
<path id="Path 1635" d="M31.2557 148.543C31.119 148.568 30.9801 148.58 30.841 148.579C30.2708 148.578 29.7193 148.376 29.2838 148.008C28.8482 147.64 28.5567 147.13 28.4606 146.568C28.3434 145.892 28.2171 145.18 28.0999 144.458C25.1515 127.48 19.6604 97.3197 17.7669 92.0089C15.9456 86.9236 9.2733 88.5015 8.99378 88.5646C8.39657 88.7132 7.76511 88.628 7.22871 88.3263C6.69232 88.0245 6.29155 87.5292 6.10846 86.9416C6.08805 86.896 6.07583 86.8472 6.07239 86.7973C5.99507 86.4889 5.97951 86.1681 6.02658 85.8536C6.07364 85.5391 6.18241 85.237 6.34665 84.9647C6.51088 84.6923 6.72735 84.4551 6.98357 84.2668C7.23979 84.0784 7.53074 83.9425 7.83966 83.8669C11.7078 82.9112 19.7055 83.0464 22.3293 90.3769C24.5834 96.6885 30.8139 131.808 32.6984 142.628C33.0049 144.359 33.1943 145.477 33.2394 145.748C33.3416 146.381 33.1909 147.029 32.8198 147.551C32.4487 148.074 31.887 148.43 31.2557 148.543V148.543Z" fill="#D2A176"/>
<path id="Path 1636" d="M69.9637 191.687H65.9784L64.2563 172.472H29.885L28.6407 191.687H24.457L28.0907 144.449L28.235 142.619H65.9784L69.9637 191.687Z" fill="#D2A176"/>
<path id="Path 1637" d="M30.3087 144.71L30.0382 147.965L26.4947 191.687H25.2504L28.884 144.449C25.9356 127.471 20.4445 97.3102 18.551 91.9994C16.7297 86.9141 10.0574 88.492 9.7779 88.5551C9.18069 88.7038 8.54922 88.6185 8.01283 88.3168C7.47643 88.015 7.07567 87.5197 6.89258 86.9321C10.1295 86.2288 16.5133 85.4624 19.074 89.5379C22.0585 95.029 28.4152 133.214 29.957 142.619C30.1915 143.953 30.3087 144.71 30.3087 144.71Z" fill="#A57D5E"/>
<path id="Path 1638" d="M18.3532 94.0102C18.1278 93.1536 17.9294 92.4774 17.7581 91.9995C15.9367 86.9141 9.26445 88.4921 8.98494 88.5552C8.36602 88.6981 7.71574 88.5919 7.17441 88.2596C6.63309 87.9272 6.24412 87.3954 6.09145 86.7788C5.93878 86.1622 6.03466 85.5103 6.35839 84.9638C6.68211 84.4173 7.20771 84.0199 7.82179 83.8575C11.6899 82.9108 19.6966 83.037 22.3115 90.3675C24.3312 96.0299 29.5608 124.901 31.9772 138.588L32.9059 143.872" stroke="#1C1C1C" stroke-width="1.789" stroke-miterlimit="10" stroke-linecap="round" stroke-linejoin="round"/>
<path id="Path 1639" d="M26.2871 134.197C23.9158 120.925 20.9403 105.01 19.0288 96.7602" stroke="#1C1C1C" stroke-width="1.789" stroke-miterlimit="10" stroke-linecap="round" stroke-linejoin="round"/>
<path id="Path 1640" d="M28.0636 144.305C27.6398 141.852 27.1619 139.12 26.6479 136.235" stroke="#1C1C1C" stroke-width="1.789" stroke-miterlimit="10" stroke-linecap="round" stroke-linejoin="round"/>
<path id="Path 1641" d="M29.4162 179.767L28.6497 191.687H24.457L28.0907 144.458" stroke="#1C1C1C" stroke-width="1.789" stroke-miterlimit="10" stroke-linecap="round" stroke-linejoin="round"/>
<path id="Path 1642" d="M41.7692 172.472H29.8853L29.6509 176.115" stroke="#1C1C1C" stroke-width="1.789" stroke-miterlimit="10" stroke-linecap="round" stroke-linejoin="round"/>
<path id="Path 1643" d="M34.0688 142.619H65.9785L69.9638 191.687H65.9785L64.2654 172.472H45.9888" stroke="#1C1C1C" stroke-width="1.789" stroke-miterlimit="10" stroke-linecap="round" stroke-linejoin="round"/>
<path id="Path 1644" d="M70.2609 143.872H33.0404L31.769 136.785H70.2609C71.2006 136.785 72.1017 137.158 72.7662 137.823C73.4307 138.487 73.8041 139.389 73.8044 140.328C73.8041 141.268 73.4307 142.169 72.7662 142.834C72.1017 143.498 71.2006 143.872 70.2609 143.872V143.872Z" fill="#E54E61"/>
<path id="Path 1645" d="M32.9058 140.96H73.0026C73.0026 140.96 73.7779 144.169 66.9253 143.872C60.0727 143.574 33.2664 143.628 33.2664 143.628L32.9058 140.96Z" fill="#B23F52"/>
<path id="Path 1646" d="M60.9472 136.785H31.6523L32.8966 143.872H70.2523C71.192 143.872 72.0933 143.498 72.7577 142.834C73.4222 142.169 73.7956 141.268 73.7958 140.328V140.328C73.7956 139.389 73.4222 138.487 72.7577 137.823C72.0933 137.158 71.192 136.785 70.2523 136.785H65.6268" stroke="#1C1C1C" stroke-width="1.789" stroke-miterlimit="10" stroke-linecap="round" stroke-linejoin="round"/>
<path id="Path 1647" d="M63.8599 168.424H30.3813L31.5986 150.851H62.6878L63.8599 168.424Z" fill="white"/>
<path id="Path 1648" d="M33.2576 168.424H30.3813L31.5986 150.851H62.6878L63.8599 168.424H58.7295" stroke="#1C1C1C" stroke-width="1.789" stroke-miterlimit="10" stroke-linecap="round" stroke-linejoin="round"/>
<path id="Line 225" d="M55.9607 168.424H35.7095" stroke="#1C1C1C" stroke-width="1.789" stroke-miterlimit="10" stroke-linecap="round" stroke-linejoin="round"/>
</g>
<g id="Group 847">
<path id="Path 1649" d="M330.074 148.569C330.645 148.569 331.197 148.367 331.632 147.999C332.068 147.631 332.359 147.121 332.455 146.559C335.295 130.113 341.174 97.5356 343.158 91.9904C344.979 86.9051 351.651 88.483 351.931 88.5461C352.241 88.6281 352.565 88.6477 352.883 88.6035C353.201 88.5593 353.507 88.4523 353.783 88.2886C354.059 88.125 354.3 87.9081 354.491 87.6505C354.683 87.3929 354.821 87.0997 354.899 86.7881C354.976 86.4765 354.99 86.1526 354.941 85.8354C354.892 85.5182 354.78 85.2139 354.612 84.9403C354.444 84.6667 354.223 84.4293 353.963 84.2418C353.702 84.0544 353.407 83.9206 353.094 83.8484C349.226 82.9017 341.219 83.0279 338.604 90.3584C335.989 97.6889 328.028 143.773 327.694 145.729C327.586 146.362 327.733 147.011 328.103 147.536C328.473 148.06 329.036 148.415 329.669 148.524C329.801 148.557 329.938 148.572 330.074 148.569V148.569Z" fill="white"/>
<path id="Path 1650" d="M329.659 148.542C329.796 148.568 329.935 148.58 330.074 148.578C330.644 148.578 331.196 148.376 331.631 148.008C332.067 147.64 332.359 147.13 332.455 146.568C332.572 145.892 332.698 145.179 332.815 144.458C335.764 127.48 341.255 97.3192 343.148 92.0084C344.97 86.9231 351.642 88.501 351.921 88.5641C352.519 88.7127 353.15 88.6275 353.686 88.3258C354.223 88.024 354.624 87.5287 354.807 86.9411C354.827 86.8955 354.839 86.8467 354.843 86.7968C354.92 86.4884 354.936 86.1676 354.889 85.8531C354.842 85.5386 354.733 85.2365 354.569 84.9642C354.404 84.6918 354.188 84.4547 353.932 84.2663C353.675 84.0779 353.384 83.942 353.076 83.8665C349.207 82.9107 341.21 83.0459 338.586 90.3764C336.332 96.688 330.101 131.808 328.217 142.628C327.91 144.359 327.721 145.477 327.676 145.747C327.574 146.38 327.724 147.028 328.095 147.551C328.466 148.074 329.028 148.43 329.659 148.542V148.542Z" fill="#D2A176"/>
<path id="Path 1651" d="M290.951 191.687H294.936L296.659 172.472H331.03L332.274 191.687H336.458L332.824 144.449L332.68 142.619H294.936L290.951 191.687Z" fill="#D2A176"/>
<path id="Path 1652" d="M330.606 144.71L330.877 147.965L334.42 191.687H335.665L332.031 144.449C334.98 127.471 340.471 97.3102 342.364 91.9994C344.185 86.9141 350.858 88.492 351.137 88.5551C351.734 88.7038 352.366 88.6185 352.902 88.3168C353.439 88.015 353.839 87.5197 354.023 86.9321C350.786 86.2288 344.402 85.4624 341.841 89.5379C338.857 95.029 332.5 133.214 330.958 142.619C330.724 143.953 330.606 144.71 330.606 144.71Z" fill="#A57D5E"/>
<path id="Path 1653" d="M333.248 114.974C331.607 123.612 330.002 132.574 328.938 138.597L328.009 143.881" stroke="#1C1C1C" stroke-width="1.789" stroke-miterlimit="10" stroke-linecap="round" stroke-linejoin="round"/>
<path id="Path 1654" d="M342.626 93.7667C342.824 93.0273 343.004 92.4322 343.158 91.9994C344.979 86.9141 351.651 88.492 351.931 88.5551C352.241 88.6372 352.565 88.6567 352.883 88.6125C353.201 88.5683 353.507 88.4613 353.783 88.2977C354.059 88.134 354.3 87.9171 354.491 87.6595C354.683 87.4019 354.821 87.1087 354.899 86.7971C354.976 86.4855 354.99 86.1616 354.941 85.8444C354.892 85.5272 354.78 85.2229 354.612 84.9493C354.444 84.6757 354.223 84.4383 353.963 84.2508C353.702 84.0634 353.407 83.9296 353.094 83.8574C349.226 82.9107 341.219 83.0369 338.604 90.3674C337.567 93.2617 335.701 102.197 333.798 112.079" stroke="#1C1C1C" stroke-width="1.789" stroke-miterlimit="10" stroke-linecap="round" stroke-linejoin="round"/>
<path id="Path 1655" d="M332.852 144.305C335.214 130.717 339.181 108.824 341.643 97.8782" stroke="#1C1C1C" stroke-width="1.789" stroke-miterlimit="10" stroke-linecap="round" stroke-linejoin="round"/>
<path id="Path 1656" d="M306.162 172.472H331.03L332.265 191.687H336.458L332.824 144.458" stroke="#1C1C1C" stroke-width="1.789" stroke-miterlimit="10" stroke-linecap="round" stroke-linejoin="round"/>
<path id="Path 1657" d="M293.557 159.642L290.96 191.687H294.937L296.65 172.472H302.862" stroke="#1C1C1C" stroke-width="1.789" stroke-miterlimit="10" stroke-linecap="round" stroke-linejoin="round"/>
<path id="Path 1658" d="M326.847 142.619H294.937L293.819 156.423" stroke="#1C1C1C" stroke-width="1.789" stroke-miterlimit="10" stroke-linecap="round" stroke-linejoin="round"/>
<path id="Path 1659" d="M290.654 143.872H327.874L329.146 136.785H290.654C289.714 136.785 288.813 137.158 288.148 137.823C287.484 138.487 287.111 139.389 287.11 140.328V140.328C287.111 141.268 287.484 142.169 288.148 142.834C288.813 143.498 289.714 143.872 290.654 143.872V143.872Z" fill="#E54E61"/>
<path id="Path 1660" d="M287.155 140.869H328.009L327.649 143.583L290.654 143.872C290.654 143.872 287.525 142.411 287.155 140.869Z" fill="#B23F52"/>
<path id="Path 1661" d="M309.237 136.785H329.263L328.018 143.872H290.663C289.723 143.872 288.822 143.498 288.157 142.834C287.493 142.169 287.119 141.268 287.119 140.328V140.328C287.119 139.389 287.493 138.487 288.157 137.823C288.822 137.158 289.723 136.785 290.663 136.785H306.171" stroke="#1C1C1C" stroke-width="1.789" stroke-miterlimit="10" stroke-linecap="round" stroke-linejoin="round"/>
<path id="Path 1662" d="M297.056 168.424H330.535L329.317 150.851H298.228L297.056 168.424Z" fill="white"/>
<path id="Path 1663" d="M297.056 168.424H330.535L329.317 150.851H298.228L297.056 168.424Z" stroke="#1C1C1C" stroke-width="1.789" stroke-miterlimit="10"/>
</g>
<path id="Rectangle 951" d="M297.957 106.525H58.7202V113.251H297.957V106.525Z" fill="#D2A176"/>
<path id="Path 1664" d="M274.776 106.525H297.957V113.251H58.7202V106.525H95.8866" stroke="#1C1C1C" stroke-width="2.255" stroke-miterlimit="10" stroke-linecap="round" stroke-linejoin="round"/>
<path id="Line 226" d="M252.216 106.525H271.214" stroke="#1C1C1C" stroke-width="2.255" stroke-miterlimit="10" stroke-linecap="round" stroke-linejoin="round"/>
<path id="Line 227" d="M100.413 106.525H249.394" stroke="#1C1C1C" stroke-width="2.255" stroke-miterlimit="10" stroke-linecap="round" stroke-linejoin="round"/>
<path id="Path 1665" d="M135.65 106.525L178.1 153.069C178.13 153.103 178.167 153.13 178.208 153.149C178.249 153.167 178.294 153.177 178.339 153.177C178.384 153.177 178.429 153.167 178.47 153.149C178.511 153.13 178.548 153.103 178.578 153.069L221.984 106.525H135.65Z" fill="white"/>
<path id="Path 1666" d="M143.972 111.728L180.21 151.455C180.238 151.485 180.272 151.509 180.31 151.525C180.348 151.541 180.389 151.55 180.43 151.55C180.472 151.55 180.513 151.541 180.551 151.525C180.589 151.509 180.623 151.485 180.651 151.455L220.378 108.851H145.243C144.91 108.851 144.584 108.948 144.305 109.13C144.025 109.311 143.805 109.57 143.67 109.875C143.535 110.18 143.492 110.517 143.546 110.846C143.599 111.175 143.747 111.481 143.972 111.728V111.728Z" fill="#F4F5F5"/>
<path id="Path 1667" d="M135.65 106.525L178.1 153.069C178.13 153.103 178.167 153.13 178.208 153.149C178.249 153.167 178.294 153.177 178.339 153.177C178.384 153.177 178.429 153.167 178.47 153.149C178.511 153.13 178.548 153.103 178.578 153.069L221.984 106.525H135.65Z" stroke="#1C1C1C" stroke-width="1.789" stroke-miterlimit="10"/>
<path id="Path 1668" d="M117.265 103.108L118.581 105.723H140.555L142.133 103.117C142.141 103.102 142.145 103.085 142.146 103.068C142.146 103.05 142.142 103.033 142.134 103.018C142.126 103.003 142.114 102.99 142.1 102.981C142.085 102.971 142.069 102.965 142.052 102.964H117.346C117.33 102.964 117.313 102.969 117.299 102.978C117.285 102.987 117.274 102.999 117.265 103.013C117.257 103.028 117.253 103.044 117.253 103.06C117.253 103.077 117.257 103.093 117.265 103.108Z" fill="#F4F5F5"/>
<path id="Path 1669" d="M215.167 103.171L216.447 105.714H238.421L239.962 103.18C239.976 103.158 239.983 103.133 239.983 103.107C239.983 103.082 239.977 103.056 239.964 103.034C239.951 103.012 239.932 102.994 239.91 102.981C239.887 102.969 239.862 102.963 239.836 102.964H215.284C215.26 102.965 215.237 102.972 215.217 102.984C215.197 102.997 215.18 103.014 215.168 103.035C215.156 103.056 215.15 103.079 215.15 103.103C215.15 103.127 215.155 103.15 215.167 103.171V103.171Z" fill="#F4F5F5"/>
<path id="Path 1670" d="M117.265 103.108L118.581 105.723H140.555L142.133 103.117C142.141 103.102 142.145 103.085 142.146 103.068C142.146 103.05 142.142 103.033 142.134 103.018C142.126 103.003 142.114 102.99 142.1 102.981C142.085 102.971 142.069 102.965 142.052 102.964H117.346C117.33 102.964 117.313 102.969 117.299 102.978C117.285 102.987 117.274 102.999 117.265 103.013C117.257 103.028 117.253 103.044 117.253 103.06C117.253 103.077 117.257 103.093 117.265 103.108Z" stroke="#1C1C1C" stroke-width="1.118" stroke-miterlimit="10"/>
<path id="Path 1671" d="M215.167 103.171L216.447 105.714H238.421L239.962 103.18C239.976 103.158 239.983 103.133 239.983 103.107C239.983 103.082 239.977 103.056 239.964 103.034C239.951 103.012 239.932 102.994 239.91 102.981C239.887 102.969 239.862 102.963 239.836 102.964H215.284C215.26 102.965 215.237 102.972 215.217 102.984C215.197 102.997 215.18 103.014 215.168 103.035C215.156 103.056 215.15 103.079 215.15 103.103C215.15 103.127 215.155 103.15 215.167 103.171V103.171Z" stroke="#1C1C1C" stroke-width="1.118" stroke-miterlimit="10"/>
<path id="Path 1672" d="M207.683 85.1468L211.082 90.5117V104.307L208.152 106.525H215.924L213.138 104.307V90.5658L215.717 86.1386L207.683 85.1468Z" fill="#4285F4"/>
<path id="Path 1673" d="M205.708 82.027L211.082 90.5117V104.307L208.152 106.525H215.924L213.138 104.307V90.5657L218.106 82.027H205.708Z" stroke="#1C1C1C" stroke-width="1.118" stroke-miterlimit="10" stroke-linecap="round" stroke-linejoin="round"/>
<path id="Path 1674" d="M139.166 86.2919L141.826 90.4936C141.833 90.5075 141.837 90.5231 141.835 90.5387V104.226C141.834 104.252 141.828 104.277 141.817 104.3C141.806 104.323 141.791 104.344 141.772 104.361L138.905 106.525H146.677L143.963 104.361C143.944 104.344 143.929 104.323 143.918 104.3C143.907 104.277 143.901 104.252 143.9 104.226V90.5838C143.899 90.5682 143.902 90.5526 143.909 90.5387L147.047 85.1378L139.166 86.2919Z" fill="#4285F4"/>
<path id="Path 1678" d="M67.0334 86.2919L69.6933 90.4936C69.7006 90.5075 69.7038 90.5231 69.7024 90.5387V104.226C69.7014 104.252 69.6953 104.277 69.6845 104.3C69.6736 104.323 69.6583 104.344 69.6392 104.361L66.772 106.525H74.5443L71.8303 104.361C71.8113 104.344 71.7959 104.323 71.785 104.3C71.7742 104.277 71.7681 104.252 71.7671 104.226V90.5838C71.7657 90.5682 71.7689 90.5526 71.7762 90.5387L74.914 85.1378L67.0334 86.2919Z" fill="#4285F4"/>
<path id="Path 1680" d="M287.038 86.2919L289.698 90.4936C289.706 90.5075 289.709 90.5231 289.707 90.5387V104.226C289.706 104.252 289.7 104.277 289.689 104.3C289.679 104.323 289.663 104.344 289.644 104.361L286.777 106.525H294.549L291.835 104.361C291.816 104.344 291.801 104.323 291.79 104.3C291.779 104.277 291.773 104.252 291.772 104.226V90.5838C291.771 90.5682 291.774 90.5526 291.781 90.5387L294.919 85.1378L287.038 86.2919Z" fill="#4285F4"/>
<path id="Path 1675" d="M136.56 82.1894L141.808 90.4666C141.827 90.4963 141.836 90.5308 141.835 90.5658V104.163C141.837 104.205 141.828 104.247 141.809 104.285C141.791 104.323 141.762 104.355 141.727 104.379L138.905 106.507H146.677L143.999 104.379C143.968 104.352 143.943 104.319 143.926 104.282C143.909 104.244 143.9 104.204 143.9 104.163V90.6018C143.9 90.567 143.91 90.5329 143.927 90.5027L148.778 82.1623C148.788 82.1462 148.793 82.1278 148.794 82.1089C148.794 82.0899 148.79 82.0713 148.78 82.0547C148.771 82.0382 148.758 82.0244 148.742 82.0148C148.725 82.0052 148.707 82.0001 148.688 82H136.66C136.639 82.0035 136.62 82.0116 136.603 82.0238C136.586 82.0359 136.573 82.0518 136.563 82.0701C136.554 82.0884 136.548 82.1087 136.548 82.1294C136.547 82.1501 136.552 82.1706 136.56 82.1894V82.1894Z" stroke="#1C1C1C" stroke-width="1.118" stroke-miterlimit="10"/>
<path id="Path 1679" d="M64.4277 82.1894L69.6753 90.4666C69.6938 90.4963 69.7032 90.5308 69.7024 90.5658V104.163C69.7045 104.205 69.6956 104.247 69.6767 104.285C69.6577 104.323 69.6293 104.355 69.5942 104.379L66.772 106.507H74.5443L71.8664 104.379C71.8353 104.352 71.8104 104.319 71.7933 104.282C71.7762 104.244 71.7673 104.204 71.7671 104.163V90.6018C71.7676 90.567 71.7769 90.5329 71.7942 90.5027L76.6451 82.1623C76.6551 82.1462 76.6606 82.1278 76.661 82.1089C76.6614 82.0899 76.6568 82.0713 76.6476 82.0547C76.6384 82.0382 76.625 82.0244 76.6087 82.0148C76.5924 82.0052 76.5739 82.0001 76.5549 82H64.5268C64.5064 82.0035 64.4871 82.0116 64.4704 82.0238C64.4536 82.0359 64.44 82.0518 64.4304 82.0701C64.4208 82.0884 64.4155 82.1087 64.4151 82.1294C64.4146 82.1501 64.4189 82.1706 64.4277 82.1894V82.1894Z" stroke="#1C1C1C" stroke-width="1.118" stroke-miterlimit="10"/>
<path id="Path 1681" d="M284.433 82.1894L289.68 90.4666C289.699 90.4963 289.708 90.5308 289.707 90.5658V104.163C289.709 104.205 289.7 104.247 289.682 104.285C289.663 104.323 289.634 104.355 289.599 104.379L286.777 106.507H294.549L291.871 104.379C291.84 104.352 291.815 104.319 291.798 104.282C291.781 104.244 291.772 104.204 291.772 104.163V90.6018C291.772 90.567 291.782 90.5329 291.799 90.5027L296.65 82.1623C296.66 82.1462 296.665 82.1278 296.666 82.1089C296.666 82.0899 296.662 82.0713 296.652 82.0547C296.643 82.0382 296.63 82.0244 296.614 82.0148C296.597 82.0052 296.579 82.0001 296.56 82H284.532C284.511 82.0035 284.492 82.0116 284.475 82.0238C284.459 82.0359 284.445 82.0518 284.435 82.0701C284.426 82.0884 284.42 82.1087 284.42 82.1294C284.419 82.1501 284.424 82.1706 284.433 82.1894V82.1894Z" stroke="#1C1C1C" stroke-width="1.118" stroke-miterlimit="10"/>
<path id="Line 228" d="M7.00977 191.687H349.658" stroke="#1C1C1C" stroke-width="2.08" stroke-miterlimit="10" stroke-linecap="round" stroke-linejoin="round"/>
</g>
</g>
</g>
</svg>
