<svg width="361" height="274" viewBox="0 0 361 274" fill="none" xmlns="http://www.w3.org/2000/svg">
<g id="table2">
<rect width="361" height="274" fill="white"/>
<g id="_x34__Chair">
<g id="Group 842">
<g id="Group 838">
<path id="Rectangle 943" d="M164.209 136.787H116.41V143.892H164.209V136.787Z" fill="#E54E61"/>
<path id="Line 213" d="M130.765 136.787H139.457" stroke="#1C1C1C" stroke-width="1.788" stroke-miterlimit="10" stroke-linecap="round" stroke-linejoin="round"/>
<path id="Path 1545" d="M142.271 136.787H164.209V143.892H116.41V136.787H126.924" stroke="#1C1C1C" stroke-width="1.788" stroke-miterlimit="10" stroke-linecap="round" stroke-linejoin="round"/>
<path id="Path 1546" d="M162.126 143.892L164.434 191.691H158.204L156.346 150.853H125.066L123.461 191.691H116.491L118.484 143.892H162.126Z" fill="#D2A176"/>
<path id="Path 1547" d="M156.5 154.163L156.347 150.853H132.371" stroke="#1C1C1C" stroke-width="1.788" stroke-miterlimit="10" stroke-linecap="round" stroke-linejoin="round"/>
<path id="Path 1548" d="M123.966 178.734L123.461 191.691H116.491L118.484 143.892H162.126L164.434 191.691H158.204L156.599 156.516" stroke="#1C1C1C" stroke-width="1.788" stroke-miterlimit="10" stroke-linecap="round" stroke-linejoin="round"/>
<path id="Path 1549" d="M129.782 150.853H125.066L124.074 176.092" stroke="#1C1C1C" stroke-width="1.788" stroke-miterlimit="10" stroke-linecap="round" stroke-linejoin="round"/>
<path id="Path 1550" d="M162.162 136.787C162.162 136.787 161.9 88.2488 165.877 82.0181H114.679C118.655 88.2488 118.394 136.787 118.394 136.787H124.39C124.39 136.787 124.588 94.245 121.622 88.7808H159.799C156.833 94.245 157.031 136.787 157.031 136.787H162.162Z" fill="#D2A176"/>
<path id="Path 1551" d="M121.667 82.028H114.679C118.655 88.2587 118.394 136.797 118.394 136.797H124.39C124.39 136.797 124.588 94.255 121.622 88.7907H134.372" stroke="#1C1C1C" stroke-width="1.788" stroke-miterlimit="10" stroke-linecap="round" stroke-linejoin="round"/>
<path id="Path 1552" d="M137.014 88.7808H159.791C156.825 94.245 157.023 136.787 157.023 136.787H162.154C162.154 136.787 161.892 88.2488 165.869 82.0181H124.31" stroke="#1C1C1C" stroke-width="1.788" stroke-miterlimit="10" stroke-linecap="round" stroke-linejoin="round"/>
</g>
<g id="Group 839">
<path id="Rectangle 944" d="M251.276 136.787H203.478V143.892H251.276V136.787Z" fill="#E54E61"/>
<path id="Path 1553" d="M218.401 136.787H251.276V143.892H203.478V136.787H215.714" stroke="#1C1C1C" stroke-width="1.788" stroke-miterlimit="10" stroke-linecap="round" stroke-linejoin="round"/>
<path id="Path 1554" d="M249.193 143.892L251.501 191.691H245.27L243.413 150.853H212.133L210.528 191.691H203.558L205.551 143.892H249.193Z" fill="#D2A176"/>
<path id="Path 1555" d="M237.317 150.853H212.133L211.791 159.645" stroke="#1C1C1C" stroke-width="1.788" stroke-miterlimit="10" stroke-linecap="round" stroke-linejoin="round"/>
<path id="Path 1556" d="M229.572 143.892H249.193L251.501 191.691H245.271L243.413 150.853H240.23" stroke="#1C1C1C" stroke-width="1.788" stroke-miterlimit="10" stroke-linecap="round" stroke-linejoin="round"/>
<path id="Path 1557" d="M211.682 162.251L210.528 191.691H203.558L205.551 143.892H225.956" stroke="#1C1C1C" stroke-width="1.788" stroke-miterlimit="10" stroke-linecap="round" stroke-linejoin="round"/>
<path id="Path 1558" d="M249.23 136.787C249.23 136.787 248.969 88.2488 252.945 82.0181H201.747C205.724 88.2488 205.462 136.787 205.462 136.787H211.458C211.458 136.787 211.657 94.245 208.69 88.7808H246.868C243.901 94.245 244.1 136.787 244.1 136.787H249.23Z" fill="#D2A176"/>
<path id="Path 1559" d="M250.582 94.236C251.123 88.3119 251.88 83.6772 252.935 82.0181H201.737C205.713 88.2488 205.452 136.787 205.452 136.787H211.448C211.448 136.787 211.646 94.245 208.68 88.7808H246.858C243.891 94.245 244.089 136.787 244.089 136.787H249.22C249.22 136.787 249.094 112.901 250.383 96.4902" stroke="#1C1C1C" stroke-width="1.788" stroke-miterlimit="10" stroke-linecap="round" stroke-linejoin="round"/>
</g>
<path id="Rectangle 945" d="M278.552 111.188H82.1274V117.914H278.552V111.188Z" fill="#D2A176"/>
<path id="Line 214" d="M132.604 117.914H104.805" stroke="#1C1C1C" stroke-width="2.255" stroke-miterlimit="10" stroke-linecap="round" stroke-linejoin="round"/>
<path id="Line 215" d="M232.863 117.914H135.192" stroke="#1C1C1C" stroke-width="2.255" stroke-miterlimit="10" stroke-linecap="round" stroke-linejoin="round"/>
<path id="Line 216" d="M272.177 117.914H236.605" stroke="#1C1C1C" stroke-width="2.255" stroke-miterlimit="10" stroke-linecap="round" stroke-linejoin="round"/>
<path id="Path 1560" d="M101.406 117.914H82.1274V111.188H278.543V117.914H275.396" stroke="#1C1C1C" stroke-width="2.255" stroke-miterlimit="10" stroke-linecap="round" stroke-linejoin="round"/>
<path id="Path 1561" d="M176.526 146.155V172.151C176.526 173.646 176.231 175.125 175.659 176.506C175.088 177.887 174.249 179.141 173.193 180.198C172.136 181.254 170.882 182.093 169.501 182.664C168.12 183.236 166.641 183.531 165.146 183.531H163.397C162.349 183.53 161.311 183.736 160.343 184.137C159.374 184.538 158.495 185.126 157.753 185.867C157.012 186.608 156.425 187.488 156.024 188.456C155.623 189.425 155.417 190.463 155.417 191.511V191.7H205.551V191.411C205.551 190.363 205.345 189.326 204.944 188.357C204.544 187.389 203.956 186.509 203.215 185.768C202.474 185.027 201.594 184.439 200.625 184.038C199.657 183.637 198.619 183.431 197.571 183.431H195.723C192.705 183.431 189.81 182.233 187.676 180.099C185.542 177.964 184.343 175.07 184.343 172.052V146.164H176.526V146.155Z" fill="#D2A176"/>
<path id="Path 1562" d="M179.104 151.971V173.603C179.104 177.106 177.712 180.466 175.235 182.944C172.758 185.421 169.398 186.813 165.894 186.813H164.902C163.611 186.813 162.373 187.326 161.459 188.239C160.546 189.152 160.033 190.391 160.033 191.682H155.435C155.435 191.682 154.885 184.685 161.133 184.342C167.382 184 176.814 183.179 176.543 170.42C176.273 157.787 176.543 149.149 176.543 149.149L179.104 151.971Z" fill="#B28766"/>
<path id="Path 1563" d="M187.58 179.987C185.502 177.866 184.339 175.013 184.343 172.043V146.155H176.517V168.355" stroke="#1C1C1C" stroke-width="1.789" stroke-miterlimit="10" stroke-linecap="round" stroke-linejoin="round"/>
<path id="Path 1564" d="M176.526 171.782V172.151C176.526 173.646 176.231 175.125 175.659 176.506C175.088 177.887 174.249 179.141 173.193 180.198C172.136 181.254 170.882 182.093 169.501 182.664C168.12 183.236 166.641 183.531 165.146 183.531H163.397C162.349 183.53 161.311 183.736 160.343 184.137C159.374 184.538 158.495 185.126 157.753 185.867C157.012 186.608 156.425 187.488 156.024 188.456C155.623 189.425 155.417 190.463 155.417 191.511V191.7H205.551V191.411C205.551 190.363 205.345 189.326 204.944 188.357C204.544 187.389 203.956 186.509 203.215 185.768C202.474 185.027 201.594 184.439 200.625 184.038C199.657 183.637 198.619 183.431 197.571 183.431H195.723C193.961 183.432 192.224 183.025 190.646 182.241" stroke="#1C1C1C" stroke-width="1.789" stroke-miterlimit="10" stroke-linecap="round" stroke-linejoin="round"/>
<g id="Group 840">
<path id="Path 1565" d="M46.3574 148.572C45.7871 148.572 45.2353 148.37 44.7996 148.002C44.3639 147.634 44.0725 147.123 43.9769 146.561C41.1366 130.114 35.2576 97.5362 33.2738 91.9908C31.4524 86.9052 24.7799 88.4832 24.5004 88.5463C24.19 88.6284 23.8664 88.6479 23.5484 88.6037C23.2304 88.5595 22.9244 88.4525 22.6482 88.2889C22.372 88.1253 22.131 87.9083 21.9395 87.6507C21.7479 87.3931 21.6095 87.0999 21.5324 86.7883C21.4552 86.4766 21.4408 86.1528 21.49 85.8355C21.5393 85.5183 21.6511 85.214 21.8191 84.9404C21.9871 84.6668 22.2078 84.4293 22.4684 84.2419C22.729 84.0544 23.0244 83.9207 23.3372 83.8485C27.2054 82.9017 35.2125 83.0279 37.8274 90.3587C40.4423 97.6895 48.4042 143.775 48.7379 145.732C48.8464 146.364 48.6994 147.014 48.3291 147.538C47.9588 148.062 47.3956 148.418 46.7632 148.527C46.6305 148.56 46.494 148.575 46.3574 148.572V148.572Z" fill="white"/>
<path id="Path 1566" d="M46.7718 148.545C46.6351 148.57 46.4962 148.582 46.3571 148.581C45.7869 148.58 45.2354 148.378 44.7998 148.01C44.3642 147.642 44.0727 147.132 43.9766 146.57C43.8594 145.894 43.7331 145.182 43.6159 144.46C40.6674 127.481 35.1761 97.3198 33.2825 92.0088C31.4611 86.9232 24.7885 88.5012 24.509 88.5643C23.9118 88.713 23.2803 88.6277 22.7439 88.326C22.2075 88.0242 21.8067 87.5289 21.6236 86.9413C21.6032 86.8957 21.591 86.8468 21.5875 86.797C21.5102 86.4885 21.4946 86.1678 21.5417 85.8532C21.5888 85.5387 21.6976 85.2366 21.8618 84.9643C22.0261 84.6919 22.2425 84.4547 22.4987 84.2663C22.755 84.0779 23.0459 83.9421 23.3549 83.8665C27.2231 82.9107 35.2211 83.046 37.8451 90.3767C40.0993 96.6886 46.33 131.81 48.2145 142.63C48.5211 144.361 48.7105 145.479 48.7556 145.75C48.8578 146.383 48.7071 147.031 48.336 147.553C47.9649 148.076 47.4031 148.432 46.7718 148.545V148.545Z" fill="#D2A176"/>
<path id="Path 1567" d="M85.4816 191.691H81.4961L79.7739 172.476H45.4013L44.157 191.691H39.9731L43.607 144.451L43.7512 142.621H81.4961L85.4816 191.691Z" fill="#D2A176"/>
<path id="Path 1568" d="M45.8252 144.713L45.5547 147.968L42.011 191.691H40.7667L44.4005 144.451C41.452 127.472 35.9607 97.3108 34.0671 91.9998C32.2457 86.9142 25.5731 88.4922 25.2936 88.5553C24.6964 88.704 24.0649 88.6187 23.5285 88.317C22.9921 88.0153 22.5913 87.5199 22.4082 86.9323C25.6453 86.229 32.0293 85.4625 34.5901 89.5382C37.5747 95.0295 43.9316 133.216 45.4735 142.621C45.708 143.955 45.8252 144.713 45.8252 144.713Z" fill="#A57D5E"/>
<path id="Path 1569" d="M33.869 94.0115C33.6435 93.1549 33.4452 92.4786 33.2738 92.0007C31.4524 86.9152 24.7799 88.4932 24.5004 88.5563C24.19 88.6384 23.8664 88.6579 23.5484 88.6137C23.2304 88.5695 22.9244 88.4625 22.6482 88.2988C22.372 88.1352 22.131 87.9183 21.9395 87.6607C21.7479 87.4031 21.6095 87.1099 21.5324 86.7983C21.4552 86.4866 21.4408 86.1627 21.49 85.8455C21.5393 85.5282 21.6511 85.224 21.8191 84.9504C21.9871 84.6768 22.2078 84.4393 22.4684 84.2519C22.729 84.0644 23.0244 83.9307 23.3372 83.8585C27.2054 82.9117 35.2125 83.0379 37.8274 90.3687C39.8472 96.0313 45.077 124.904 47.4935 138.591L48.4223 143.875" stroke="#1C1C1C" stroke-width="1.789" stroke-miterlimit="10" stroke-linecap="round" stroke-linejoin="round"/>
<path id="Path 1570" d="M41.8036 134.199C39.4321 120.926 36.4565 105.011 34.5449 96.7607" stroke="#1C1C1C" stroke-width="1.789" stroke-miterlimit="10" stroke-linecap="round" stroke-linejoin="round"/>
<path id="Path 1571" d="M43.5797 144.307C43.1559 141.854 42.678 139.122 42.1641 136.237" stroke="#1C1C1C" stroke-width="1.789" stroke-miterlimit="10" stroke-linecap="round" stroke-linejoin="round"/>
<path id="Path 1572" d="M44.9325 179.771L44.166 191.691H39.9731L43.607 144.46" stroke="#1C1C1C" stroke-width="1.789" stroke-miterlimit="10" stroke-linecap="round" stroke-linejoin="round"/>
<path id="Path 1573" d="M57.2853 172.476H45.4009L45.1665 176.119" stroke="#1C1C1C" stroke-width="1.789" stroke-miterlimit="10" stroke-linecap="round" stroke-linejoin="round"/>
<path id="Path 1574" d="M49.5854 142.621H81.4964L85.4819 191.691H81.4964L79.7832 172.476H61.5058" stroke="#1C1C1C" stroke-width="1.789" stroke-miterlimit="10" stroke-linecap="round" stroke-linejoin="round"/>
<path id="Path 1575" d="M85.7789 143.874H48.557L47.2856 136.787H85.7789C86.7187 136.787 87.6199 137.161 88.2844 137.825C88.9489 138.49 89.3223 139.391 89.3226 140.331V140.331C89.3223 141.27 88.9489 142.172 88.2844 142.836C87.6199 143.501 86.7187 143.874 85.7789 143.874V143.874Z" fill="#E54E61"/>
<path id="Path 1576" d="M48.4224 140.962H88.5207C88.5207 140.962 89.2961 144.172 82.4432 143.874C75.5904 143.577 48.783 143.631 48.783 143.631L48.4224 140.962Z" fill="#B23F52"/>
<path id="Path 1577" d="M76.465 136.787H47.1689L48.4133 143.874H85.7704C86.7102 143.874 87.6114 143.501 88.2759 142.836C88.9404 142.172 89.3139 141.27 89.3141 140.331C89.3139 139.391 88.9404 138.49 88.2759 137.825C87.6114 137.161 86.7102 136.787 85.7704 136.787H81.1447" stroke="#1C1C1C" stroke-width="1.789" stroke-miterlimit="10" stroke-linecap="round" stroke-linejoin="round"/>
<path id="Path 1578" d="M79.3768 168.427H45.897L47.1143 150.853H78.2046L79.3768 168.427Z" fill="white"/>
<path id="Path 1579" d="M48.7734 168.427H45.897L47.1143 150.853H78.2046L79.3768 168.427H74.2462" stroke="#1C1C1C" stroke-width="1.789" stroke-miterlimit="10" stroke-linecap="round" stroke-linejoin="round"/>
<path id="Line 217" d="M71.4786 168.427H51.2266" stroke="#1C1C1C" stroke-width="1.789" stroke-miterlimit="10" stroke-linecap="round" stroke-linejoin="round"/>
</g>
<g id="Group 841">
<path id="Path 1580" d="M318.551 148.572C319.121 148.572 319.673 148.37 320.108 148.002C320.544 147.634 320.835 147.123 320.931 146.561C323.771 130.114 329.65 97.5362 331.634 91.9908C333.456 86.9052 340.128 88.4832 340.408 88.5463C341.027 88.6892 341.677 88.583 342.218 88.2506C342.76 87.9183 343.149 87.3865 343.301 86.7698C343.454 86.1532 343.358 85.5013 343.034 84.9548C342.711 84.4082 342.185 84.0109 341.571 83.8485C337.703 82.9017 329.696 83.0279 327.081 90.3587C324.466 97.6895 316.504 143.775 316.17 145.732C316.062 146.364 316.209 147.014 316.579 147.538C316.949 148.062 317.512 148.418 318.145 148.527C318.278 148.56 318.414 148.575 318.551 148.572V148.572Z" fill="white"/>
<path id="Path 1581" d="M318.137 148.545C318.273 148.57 318.412 148.582 318.551 148.581C319.122 148.58 319.673 148.378 320.109 148.01C320.544 147.642 320.836 147.132 320.932 146.57C321.049 145.894 321.175 145.182 321.292 144.46C324.241 127.481 329.732 97.3198 331.626 92.0088C333.447 86.9232 340.12 88.5012 340.399 88.5643C340.997 88.713 341.628 88.6277 342.164 88.326C342.701 88.0242 343.102 87.5289 343.285 86.9413C343.305 86.8957 343.317 86.8468 343.321 86.797C343.398 86.4885 343.414 86.1678 343.367 85.8532C343.32 85.5387 343.211 85.2366 343.047 84.9643C342.882 84.6919 342.666 84.4547 342.41 84.2663C342.153 84.0779 341.862 83.9421 341.554 83.8665C337.685 82.9107 329.687 83.046 327.063 90.3767C324.809 96.6886 318.578 131.81 316.694 142.63C316.387 144.361 316.198 145.479 316.153 145.75C316.051 146.383 316.201 147.031 316.572 147.553C316.944 148.076 317.505 148.432 318.137 148.545V148.545Z" fill="#D2A176"/>
<path id="Path 1582" d="M279.427 191.691H283.413L285.135 172.476H319.508L320.752 191.691H324.936L321.302 144.451L321.158 142.621H283.413L279.427 191.691Z" fill="#D2A176"/>
<path id="Path 1583" d="M319.083 144.713L319.354 147.968L322.898 191.691H324.142L320.508 144.451C323.457 127.472 328.948 97.3108 330.842 91.9998C332.663 86.9142 339.336 88.4922 339.615 88.5553C340.212 88.704 340.844 88.6187 341.38 88.317C341.917 88.0153 342.317 87.5199 342.5 86.9323C339.263 86.229 332.879 85.4625 330.319 89.5382C327.334 95.0295 320.977 133.216 319.435 142.621C319.201 143.955 319.083 144.713 319.083 144.713Z" fill="#A57D5E"/>
<path id="Path 1584" d="M321.725 114.975C320.084 123.613 318.479 132.576 317.415 138.599L316.486 143.883" stroke="#1C1C1C" stroke-width="1.789" stroke-miterlimit="10" stroke-linecap="round" stroke-linejoin="round"/>
<path id="Path 1585" d="M331.102 93.7671C331.301 93.0277 331.481 92.4326 331.634 91.9998C333.456 86.9142 340.128 88.4922 340.408 88.5553C341.027 88.6982 341.677 88.592 342.219 88.2597C342.76 87.9273 343.149 87.3955 343.302 86.7788C343.454 86.1622 343.358 85.5103 343.035 84.9638C342.711 84.4173 342.185 84.0199 341.571 83.8575C337.703 82.9107 329.696 83.0369 327.081 90.3677C326.044 93.2621 324.177 102.198 322.275 112.08" stroke="#1C1C1C" stroke-width="1.789" stroke-miterlimit="10" stroke-linecap="round" stroke-linejoin="round"/>
<path id="Path 1586" d="M321.328 144.307C323.691 130.718 327.658 108.825 330.12 97.8788" stroke="#1C1C1C" stroke-width="1.789" stroke-miterlimit="10" stroke-linecap="round" stroke-linejoin="round"/>
<path id="Path 1587" d="M294.638 172.476H319.507L320.742 191.691H324.935L321.301 144.46" stroke="#1C1C1C" stroke-width="1.789" stroke-miterlimit="10" stroke-linecap="round" stroke-linejoin="round"/>
<path id="Path 1588" d="M282.032 159.645L279.436 191.691H283.412L285.125 172.476H291.338" stroke="#1C1C1C" stroke-width="1.789" stroke-miterlimit="10" stroke-linecap="round" stroke-linejoin="round"/>
<path id="Path 1589" d="M315.323 142.621H283.412L282.294 156.426" stroke="#1C1C1C" stroke-width="1.789" stroke-miterlimit="10" stroke-linecap="round" stroke-linejoin="round"/>
<path id="Path 1590" d="M279.129 143.874H316.351L317.622 136.787H279.129C278.189 136.787 277.288 137.161 276.624 137.825C275.959 138.49 275.586 139.391 275.585 140.331C275.586 141.27 275.959 142.172 276.624 142.836C277.288 143.501 278.189 143.874 279.129 143.874V143.874Z" fill="#E54E61"/>
<path id="Path 1591" d="M275.63 140.872H316.486L316.125 143.586L279.129 143.874C279.129 143.874 276 142.413 275.63 140.872Z" fill="#B23F52"/>
<path id="Path 1592" d="M297.713 136.787H317.74L316.496 143.874H279.138C278.199 143.874 277.297 143.501 276.633 142.836C275.968 142.172 275.595 141.27 275.595 140.331C275.595 139.391 275.968 138.49 276.633 137.825C277.297 137.161 278.199 136.787 279.138 136.787H294.648" stroke="#1C1C1C" stroke-width="1.789" stroke-miterlimit="10" stroke-linecap="round" stroke-linejoin="round"/>
<path id="Path 1593" d="M285.531 168.427H319.011L317.794 150.853H286.703L285.531 168.427Z" fill="white"/>
<path id="Path 1594" d="M285.531 168.427H319.011L317.794 150.853H286.703L285.531 168.427Z" stroke="#1C1C1C" stroke-width="1.789" stroke-miterlimit="10"/>
</g>
<path id="Rectangle 946" d="M285.531 106.526H75.1392V113.253H285.531V106.526Z" fill="#D2A176"/>
<path id="Path 1595" d="M276.776 106.526H285.531V113.253H75.1392V106.526H97.8799" stroke="#1C1C1C" stroke-width="2.255" stroke-miterlimit="10" stroke-linecap="round" stroke-linejoin="round"/>
<path id="Line 218" d="M254.215 106.526H273.214" stroke="#1C1C1C" stroke-width="2.255" stroke-miterlimit="10" stroke-linecap="round" stroke-linejoin="round"/>
<path id="Line 219" d="M102.406 106.526H251.393" stroke="#1C1C1C" stroke-width="2.255" stroke-miterlimit="10" stroke-linecap="round" stroke-linejoin="round"/>
<path id="Path 1596" d="M137.645 106.526L180.096 153.071C180.126 153.105 180.163 153.133 180.204 153.151C180.245 153.17 180.29 153.179 180.335 153.179C180.38 153.179 180.425 153.17 180.466 153.151C180.508 153.133 180.544 153.105 180.574 153.071L223.982 106.526H137.645Z" fill="white"/>
<path id="Path 1597" d="M145.967 111.729L182.206 151.457C182.235 151.487 182.269 151.511 182.307 151.528C182.345 151.544 182.386 151.552 182.427 151.552C182.468 151.552 182.509 151.544 182.547 151.528C182.585 151.511 182.619 151.487 182.648 151.457L222.377 108.852H147.238C146.905 108.852 146.579 108.949 146.3 109.131C146.02 109.312 145.8 109.571 145.665 109.876C145.531 110.181 145.487 110.518 145.541 110.847C145.594 111.176 145.743 111.483 145.967 111.729V111.729Z" fill="#F4F5F5"/>
<path id="Path 1598" d="M137.645 106.526L180.096 153.071C180.126 153.105 180.163 153.133 180.204 153.151C180.245 153.17 180.29 153.179 180.335 153.179C180.38 153.179 180.425 153.17 180.466 153.151C180.508 153.133 180.544 153.105 180.574 153.071L223.982 106.526H137.645Z" stroke="#1C1C1C" stroke-width="1.789" stroke-miterlimit="10"/>
<path id="Path 1599" d="M119.259 103.109L120.575 105.724H142.549L144.127 103.118C144.136 103.103 144.14 103.086 144.14 103.069C144.14 103.051 144.136 103.034 144.128 103.019C144.12 103.004 144.108 102.991 144.094 102.981C144.08 102.972 144.063 102.966 144.046 102.964H119.34C119.323 102.965 119.307 102.97 119.293 102.979C119.279 102.987 119.267 102.999 119.259 103.014C119.251 103.028 119.247 103.045 119.247 103.061C119.247 103.078 119.251 103.094 119.259 103.109Z" fill="#F4F5F5"/>
<path id="Path 1600" d="M217.165 103.172L218.445 105.715H240.42L241.961 103.181C241.975 103.159 241.982 103.134 241.982 103.108C241.982 103.082 241.976 103.057 241.963 103.035C241.95 103.013 241.931 102.995 241.909 102.982C241.886 102.97 241.861 102.964 241.835 102.964H217.282C217.258 102.965 217.235 102.973 217.215 102.985C217.195 102.998 217.178 103.015 217.166 103.036C217.154 103.056 217.148 103.08 217.148 103.104C217.148 103.127 217.154 103.151 217.165 103.172V103.172Z" fill="#F4F5F5"/>
<path id="Path 1601" d="M119.259 103.109L120.575 105.724H142.549L144.127 103.118C144.136 103.103 144.14 103.086 144.14 103.069C144.14 103.051 144.136 103.034 144.128 103.019C144.12 103.004 144.108 102.991 144.094 102.981C144.08 102.972 144.063 102.966 144.046 102.964H119.34C119.323 102.965 119.307 102.97 119.293 102.979C119.279 102.987 119.267 102.999 119.259 103.014C119.251 103.028 119.247 103.045 119.247 103.061C119.247 103.078 119.251 103.094 119.259 103.109Z" stroke="#1C1C1C" stroke-width="1.118" stroke-miterlimit="10"/>
<path id="Path 1602" d="M217.165 103.172L218.445 105.715H240.42L241.961 103.181C241.975 103.159 241.982 103.134 241.982 103.108C241.982 103.082 241.976 103.057 241.963 103.035C241.95 103.013 241.931 102.995 241.909 102.982C241.886 102.97 241.861 102.964 241.835 102.964H217.282C217.258 102.965 217.235 102.973 217.215 102.985C217.195 102.998 217.178 103.015 217.166 103.036C217.154 103.056 217.148 103.08 217.148 103.104C217.148 103.127 217.154 103.151 217.165 103.172V103.172Z" stroke="#1C1C1C" stroke-width="1.118" stroke-miterlimit="10"/>
<path id="Path 1603" d="M180.827 85.1469L184.226 90.512V104.308L181.296 106.526H189.068L186.282 104.308V90.5661L188.861 86.1388L180.827 85.1469Z" fill="#4285F4"/>
<path id="Path 1676" d="M262.881 85.1469L266.28 90.512V104.308L263.35 106.526H271.122L268.336 104.308V90.5661L270.915 86.1388L262.881 85.1469Z" fill="#4285F4"/>
<path id="Path 1604" d="M178.852 82.0271L184.226 90.512V104.308L181.296 106.526H189.068L186.282 104.308V90.5661L191.25 82.0271H178.852Z" stroke="#1C1C1C" stroke-width="1.118" stroke-miterlimit="10" stroke-linecap="round" stroke-linejoin="round"/>
<path id="Path 1677" d="M260.906 82.0271L266.28 90.512V104.308L263.349 106.526H271.122L268.336 104.308V90.5661L273.304 82.0271H260.906Z" stroke="#1C1C1C" stroke-width="1.118" stroke-miterlimit="10" stroke-linecap="round" stroke-linejoin="round"/>
<path id="Path 1605" d="M96.0759 86.2921L98.7359 90.494C98.7432 90.5078 98.7464 90.5235 98.745 90.539V104.227C98.744 104.252 98.7379 104.278 98.7271 104.301C98.7162 104.324 98.7009 104.345 98.6818 104.362L95.8145 106.526H103.587L100.873 104.362C100.854 104.345 100.839 104.324 100.828 104.301C100.817 104.278 100.811 104.252 100.81 104.227V90.5841C100.808 90.5686 100.812 90.5529 100.819 90.539L103.957 85.1379L96.0759 86.2921Z" fill="#4285F4"/>
<path id="Path 1606" d="M93.4707 82.1894L98.7185 90.4669C98.737 90.4966 98.7464 90.5311 98.7456 90.5661V104.164C98.7477 104.206 98.7388 104.248 98.7199 104.286C98.7009 104.324 98.6725 104.356 98.6374 104.38L95.8151 106.508H103.588L100.91 104.38C100.879 104.353 100.854 104.32 100.837 104.283C100.819 104.245 100.811 104.205 100.81 104.164V90.6022C100.811 90.5673 100.82 90.5332 100.837 90.503L105.689 82.1623C105.699 82.1462 105.704 82.1278 105.704 82.1089C105.705 82.09 105.7 82.0713 105.691 82.0547C105.682 82.0382 105.668 82.0244 105.652 82.0148C105.636 82.0052 105.617 82.0001 105.598 82H93.5698C93.5494 82.0035 93.5301 82.0116 93.5134 82.0238C93.4966 82.0359 93.4829 82.0518 93.4733 82.0701C93.4637 82.0884 93.4585 82.1087 93.458 82.1294C93.4576 82.1501 93.4619 82.1706 93.4707 82.1894V82.1894Z" stroke="#1C1C1C" stroke-width="1.118" stroke-miterlimit="10"/>
<path id="Line 220" d="M9 191.691H351.661" stroke="#1C1C1C" stroke-width="2.08" stroke-miterlimit="10" stroke-linecap="round" stroke-linejoin="round"/>
</g>
</g>
</g>
</svg>
