<svg xmlns="http://www.w3.org/2000/svg" xmlns:xlink="http://www.w3.org/1999/xlink" width="46" height="46" viewBox="0 0 46 46"><defs><style>.a,.d{fill:#1aae29;}.a{stroke:#707070;}.b{clip-path:url(#a);}.c{fill:none;}</style><clipPath id="a"><rect class="a" width="46" height="46" transform="translate(-0.127 0.171)"/></clipPath></defs><g class="b" transform="translate(0.127 -0.171)"><g transform="translate(0)"><path class="c" d="M0,0H46.342V46.342H0Z"/><path class="d" d="M21.643,2.333A19.309,19.309,0,1,0,40.952,21.643,19.316,19.316,0,0,0,21.643,2.333ZM16.41,29.926,9.478,22.994A1.925,1.925,0,0,1,12.2,20.272l5.58,5.561L31.066,12.548a1.925,1.925,0,0,1,2.723,2.723L19.132,29.926a1.923,1.923,0,0,1-2.723,0Z" transform="translate(1.529 1.529)"/></g></g></svg>