<svg xmlns="http://www.w3.org/2000/svg" xmlns:xlink="http://www.w3.org/1999/xlink" width="260" height="260" viewBox="0 0 260 260"><defs><style>.a,.x{fill:#fff;}.a{stroke:#707070;}.b{clip-path:url(#a);}.c{opacity:0.35;}.d{fill:#5eff56;opacity:0.32;}.e{fill:#0f9d58;}.f{fill:#b5ebb3;}.g{fill:#ffd77d;}.h{fill:#f24840;}.i{fill:#4285f4;}.j{fill:#1c1c1c;}.k{fill:#fbb040;}.l{fill:#db4437;}.m{fill:#000100;}.n{fill:#f96;}.o{fill:#d87e56;}.p{fill:#27aae1;}.q{fill:#259ebf;}.r{fill:#f4b400;}.s{fill:#d89500;}.t{fill:#f4f5f5;}.u{fill:#bf3932;}.v{fill:#ffc183;}.w{fill:#d8a271;}.y{fill:none;}.z{fill:#f15a29;}</style><clipPath id="a"><rect class="a" width="260" height="260" transform="translate(77 138)"/></clipPath></defs><g class="b" transform="translate(-77 -138)"><g transform="translate(78.372 127.685)"><g class="c"><path class="d" d="M115.3,13.926c-33.52.006-50.776,33.5-56.582,89.947S26.735,179.85,28.962,214.038c1.272,19.545,24.659,46.492,70.8,31.307,32.236-10.608,39.595-9.585,52.809-11.762s31.974,1.422,52.772-12.111c19.794-12.878,40.836-76.2,10.446-106.243-14.543-14.381-23.835-27.683-39-50.159C167.908,51.911,152.46,13.92,115.3,13.926Z"/></g><circle class="e" cx="2.513" cy="2.513" r="2.513" transform="translate(229.236 110.876)"/><path class="f" d="M195.472,159.869a.95.95,0,0,1-.318-.056.935.935,0,0,1-.561-1.2,73.72,73.72,0,0,0,3.237-12.049.935.935,0,1,1,1.84.331,75.49,75.49,0,0,1-3.324,12.36A.926.926,0,0,1,195.472,159.869Z"/><circle class="g" cx="2.987" cy="2.987" r="2.987" transform="translate(127.303 240.58)"/><path class="f" d="M199.775,139.414h-.062a.937.937,0,0,1-.873-1c.112-1.665.168-3.368.168-5.045,0-1.59-.056-3.23-.162-4.864a.934.934,0,1,1,1.865-.118c.106,1.678.162,3.355.162,4.989,0,1.721-.056,3.461-.168,5.17A.933.933,0,0,1,199.775,139.414Z"/><path class="f" d="M197.244,114.325a.945.945,0,0,1-.9-.686,73.463,73.463,0,0,0-7.5-17.73.934.934,0,0,1,1.609-.948,75.464,75.464,0,0,1,7.683,18.179.932.932,0,0,1-.655,1.147A.754.754,0,0,1,197.244,114.325Z"/><path class="f" d="M143.062,61.484a.918.918,0,0,1-.225-.025,75.285,75.285,0,0,0-32.878-.686.936.936,0,1,1-.374-1.833,77.025,77.025,0,0,1,33.7.7.937.937,0,0,1-.225,1.846Z"/><path class="f" d="M139.645,80.742a.918.918,0,0,1-.225-.025,75.285,75.285,0,0,0-32.878-.686.936.936,0,0,1-.374-1.833,77.025,77.025,0,0,1,33.7.7.937.937,0,0,1-.225,1.846Z"/><path class="f" d="M51.88,151.674a.937.937,0,0,1-.911-.717,76.743,76.743,0,0,1-.412-33.352.937.937,0,1,1,1.833.387,74.774,74.774,0,0,0,.4,32.529.942.942,0,0,1-.692,1.129A.9.9,0,0,1,51.88,151.674Z"/><path class="f" d="M124.9,242.058a.935.935,0,0,1,0-1.871,105.666,105.666,0,0,0,37.044-6.654.935.935,0,0,1,.655,1.752A107.6,107.6,0,0,1,124.9,242.058Z"/><path class="f" d="M215.784,191.419a.9.9,0,0,1-.493-.143.938.938,0,0,1-.3-1.291,104.854,104.854,0,0,0,11.674-26.268.938.938,0,1,1,1.8.518,107.265,107.265,0,0,1-11.886,26.735A.934.934,0,0,1,215.784,191.419Z"/><path class="f" d="M230.2,153.408a1.534,1.534,0,0,1-.162-.012.933.933,0,0,1-.761-1.079c.349-2.027.642-4.072.867-6.08a.935.935,0,1,1,1.858.212c-.231,2.046-.524,4.128-.879,6.193A.936.936,0,0,1,230.2,153.408Z"/><path class="f" d="M231.681,139.277h-.037a.933.933,0,0,1-.9-.967c.05-1.335.075-2.694.075-4.041a106.027,106.027,0,0,0-13.489-51.762.934.934,0,1,1,1.628-.917,107.88,107.88,0,0,1,13.726,52.672c0,1.366-.025,2.75-.075,4.11A.931.931,0,0,1,231.681,139.277Z"/><circle class="h" cx="2.987" cy="2.987" r="2.987" transform="translate(37.381 160.056)"/><path class="i" d="M184.79,141.459a2.413,2.413,0,1,1,2.413-2.413A2.419,2.419,0,0,1,184.79,141.459Zm0-3.58a1.166,1.166,0,1,0,1.166,1.166A1.168,1.168,0,0,0,184.79,137.88Z"/><circle class="g" cx="2.345" cy="2.345" r="2.345" transform="translate(116.738 12.223)"/><path class="j" d="M119.083,17.537a3.611,3.611,0,1,1,3.611-3.611A3.617,3.617,0,0,1,119.083,17.537Zm0-5.974a2.364,2.364,0,1,0,2.364,2.364A2.366,2.366,0,0,0,119.083,11.562Z"/><path class="k" d="M194.119,193.209c-4.185,2.875-7.421,3.037-9.922,1.671a5.606,5.606,0,0,0-6.268.636l-28.687,24.16a5.125,5.125,0,0,1-8.4-4.453,4.707,4.707,0,0,1,.112-.649,5.114,5.114,0,0,1,2.507-3.312l32.828-18.135a5.573,5.573,0,0,0,2.831-5.625c-.374-2.825.935-5.787,5.12-8.669,6.355-4.365,17.481-5.987,19.607-2.9a3.409,3.409,0,0,1,.505,2.021C204.259,182.158,199.451,189.548,194.119,193.209Z"/><path class="l" d="M204.347,177.961a7.021,7.021,0,0,1-.524.574s-15.472-5.1-23.879,10.577c0,0-.331,3.318-12.148,10.521-8.637,5.27-20.954,12.236-26.954,15.6a4.7,4.7,0,0,1,.112-.649,5.114,5.114,0,0,1,2.507-3.311l32.828-18.135a5.573,5.573,0,0,0,2.831-5.625c-.374-2.825.935-5.787,5.12-8.669,6.355-4.365,17.481-5.987,19.607-2.9A3.375,3.375,0,0,1,204.347,177.961Z"/><path class="m" d="M145.937,221.815a5.815,5.815,0,0,1-.8-.056,6.065,6.065,0,0,1-5.1-7.4.935.935,0,0,1,1.821.424,4.2,4.2,0,0,0,6.785,4.178l17.587-14.811a.934.934,0,1,1,1.2,1.428l-17.587,14.811A6.07,6.07,0,0,1,145.937,221.815Z"/><path class="m" d="M148.132,209.616a.933.933,0,0,1-.449-1.752l28.151-15.553a4.627,4.627,0,0,0,2.389-3.667.936.936,0,1,1,1.865.156,6.484,6.484,0,0,1-3.349,5.145L148.587,209.5A.919.919,0,0,1,148.132,209.616Z"/><path class="m" d="M179.114,186.629a.92.92,0,0,1-.131-.006.935.935,0,0,1-.8-1.054c.374-2.713,2.233-5.232,5.519-7.5a29.248,29.248,0,0,1,11.78-4.4c2.164-.318,7.39-.786,9.124,1.74.948,1.372.886,3.548-.187,6.286a.934.934,0,0,1-1.74-.68c.811-2.077.948-3.736.387-4.546-.63-.917-3.137-1.565-7.315-.948a27.323,27.323,0,0,0-10.995,4.091c-2.838,1.952-4.422,4.041-4.721,6.211A.928.928,0,0,1,179.114,186.629Z"/><path class="m" d="M169.885,203.237a.933.933,0,0,1-.6-1.646l8.045-6.779a6.488,6.488,0,0,1,7.315-.742c2.438,1.328,5.451.78,8.943-1.628a27.621,27.621,0,0,0,7.608-8.413.934.934,0,1,1,1.609.948,29.508,29.508,0,0,1-8.157,9c-4.122,2.838-7.789,3.418-10.9,1.727a4.639,4.639,0,0,0-5.22.53l-8.045,6.779A.878.878,0,0,1,169.885,203.237Z"/><path class="n" d="M175.66,269.523a5.056,5.056,0,0,1-5.968-2.881,4.941,4.941,0,0,1-.349-1.166,5.081,5.081,0,0,1,1.01-3.973l22.906-29.074a5.5,5.5,0,0,0,.424-6.205c-1.422-2.426-1.366-5.625,1.335-9.841.274-.43,6.773-10.564,8.849-13.8a1.169,1.169,0,0,1,1.615-.355,1.237,1.237,0,0,1,.374,1.7l-8.2,12.8a1.228,1.228,0,0,0,.374,1.709.156.156,0,0,0,.044.025,1.232,1.232,0,0,0,1.671-.4l8.2-12.8a1.234,1.234,0,0,1,1.7-.374l.012.012a1.236,1.236,0,0,1,.368,1.709L201.833,219.4a1.258,1.258,0,0,0,.368,1.721,1.245,1.245,0,0,0,1.715-.374l8.2-12.8a1.237,1.237,0,0,1,1.7-.374l.012.006a1.234,1.234,0,0,1,.374,1.7l-8.2,12.8a1.241,1.241,0,0,0,2.089,1.341l8.2-12.8a1.221,1.221,0,0,1,1.7-.374,1.168,1.168,0,0,1,.355,1.609c-2.07,3.237-8.569,13.377-8.843,13.807-2.7,4.222-5.582,5.606-8.382,5.326a5.536,5.536,0,0,0-5.457,2.987L178.84,266.947A5.046,5.046,0,0,1,175.66,269.523Z"/><path class="o" d="M169.7,266.642a4.94,4.94,0,0,1-.349-1.166,5.082,5.082,0,0,1,1.01-3.973l22.906-29.074a5.5,5.5,0,0,0,.424-6.205c-1.422-2.426-1.366-5.625,1.335-9.841.274-.43,6.773-10.564,8.849-13.8a1.169,1.169,0,0,1,1.615-.355,1.237,1.237,0,0,1,.374,1.7l-8.2,12.8a1.228,1.228,0,0,0,.374,1.709.156.156,0,0,0,.044.025,21.038,21.038,0,0,0-2.3,5.164c-.848,4.565,1.939,5.363-6.486,16.015C182.663,248.032,173.527,261.278,169.7,266.642Z"/><path class="m" d="M185.382,243.068a.643.643,0,0,1-.387-.131.624.624,0,0,1-.106-.873l7.889-10.016a4.867,4.867,0,0,0,.374-5.507,7.463,7.463,0,0,1-.842-2.152.623.623,0,1,1,1.216-.268,6.122,6.122,0,0,0,.7,1.79,6.112,6.112,0,0,1-.474,6.9l-7.889,10.016A.614.614,0,0,1,185.382,243.068Z"/><path class="m" d="M180.281,264.746a.642.642,0,0,1-.281-.069.628.628,0,0,1-.274-.842l15.4-30.153a6.113,6.113,0,0,1,6.074-3.318c2.862.287,5.476-1.409,7.8-5.039l1.79-2.788c2.152-3.355,5.638-8.806,7.053-11.02a.541.541,0,0,0-.168-.755.6.6,0,0,0-.836.187l-8.2,12.8a1.874,1.874,0,0,1-2.576.568,1.867,1.867,0,0,1-.568-2.576l8.2-12.8a.617.617,0,0,0-.168-.836.087.087,0,0,1-.025-.019.608.608,0,0,0-.842.187l-8.195,12.8a1.874,1.874,0,0,1-2.576.568,1.837,1.837,0,0,1-.817-1.172,1.879,1.879,0,0,1,.249-1.4l8.2-12.8a.6.6,0,0,0,.081-.461.6.6,0,0,0-.243-.368.136.136,0,0,1-.031-.019.608.608,0,0,0-.842.187l-8.2,12.8a1.867,1.867,0,0,1-2.576.561,1.863,1.863,0,0,1-.561-2.582l8.2-12.8a.6.6,0,0,0,.081-.461.615.615,0,0,0-.268-.387.551.551,0,0,0-.755.162c-2.077,3.237-8.569,13.377-8.843,13.807a14.161,14.161,0,0,0-1.9,4.147.621.621,0,0,1-1.2-.306,15.583,15.583,0,0,1,2.064-4.509c.274-.43,6.766-10.571,8.843-13.807a1.793,1.793,0,0,1,2.476-.536,1.863,1.863,0,0,1,.561,2.569l-8.2,12.8a.6.6,0,0,0-.087.468.632.632,0,0,0,.268.387.615.615,0,0,0,.854-.181l8.2-12.8a1.862,1.862,0,0,1,2.538-.58l.037.019a1.841,1.841,0,0,1,.817,1.16,1.871,1.871,0,0,1-.249,1.409l-8.2,12.8a.615.615,0,0,0-.081.468.6.6,0,0,0,.268.38.615.615,0,0,0,.854-.181l8.195-12.8a1.866,1.866,0,0,1,2.544-.58l.037.019a1.863,1.863,0,0,1,.561,2.569l-8.2,12.8a.615.615,0,0,0-.081.468.581.581,0,0,0,.268.38.613.613,0,0,0,.854-.181l8.182-12.809a1.858,1.858,0,0,1,2.563-.561,1.807,1.807,0,0,1,.786,1.123,1.759,1.759,0,0,1-.243,1.353c-1.416,2.214-4.9,7.658-7.053,11.013l-1.79,2.788c-2.594,4.06-5.619,5.949-8.968,5.613a4.864,4.864,0,0,0-4.839,2.644l-15.4,30.153A.626.626,0,0,1,180.281,264.746Z"/><path class="m" d="M174.337,270.315a5.69,5.69,0,0,1-4.471-9.211L182.8,244.69a.622.622,0,1,1,.979.767l-12.934,16.414a4.44,4.44,0,1,0,7.44,4.771.625.625,0,1,1,1.11.574,5.724,5.724,0,0,1-3.58,2.9A5.38,5.38,0,0,1,174.337,270.315Z"/><circle class="e" cx="1.584" cy="1.584" r="1.584" transform="translate(40.736 57.231)"/><path class="p" d="M84.908,72.516l8.569,27.92-23.58,9.23L50.72,69.741l-1.971-4.1,30.4-11.893L80.418,57.9,84.2,70.228"/><path class="q" d="M79.146,53.745,80.418,57.9,50.72,69.741l-1.971-4.1Z"/><path class="j" d="M62.869,104.353a.935.935,0,0,1-.842-.524l-7.309-14.98a.937.937,0,0,1,1.684-.823l7.309,14.98a.945.945,0,0,1-.43,1.254A.966.966,0,0,1,62.869,104.353Z"/><path class="j" d="M66.561,111.905a.935.935,0,0,1-.842-.524l-2.058-4.216a.937.937,0,1,1,1.684-.823l1.678,3.442,19.071-7.465a.934.934,0,0,1,.68,1.74L66.9,111.837A.8.8,0,0,1,66.561,111.905Z"/><path class="j" d="M89.436,102.956a.933.933,0,0,1-.343-1.8l2.806-1.1L83.611,72.385a.937.937,0,1,1,1.8-.536l8.538,28.488a.939.939,0,0,1-.555,1.141l-3.611,1.416A.951.951,0,0,1,89.436,102.956Z"/><path class="j" d="M83.686,70.3a.939.939,0,0,1-.9-.667L77.618,52.41a.937.937,0,1,1,1.8-.536L84.584,69.1a.936.936,0,0,1-.63,1.166A.994.994,0,0,1,83.686,70.3Z"/><path class="j" d="M53.963,86.118a.935.935,0,0,1-.842-.524l-9.6-19.669A.937.937,0,1,1,45.2,65.1l9.6,19.669a.945.945,0,0,1-.43,1.254A.966.966,0,0,1,53.963,86.118Z"/><path class="r" d="M79.383,46.8l.636,1.609,1.06,2.725L46.168,64.8l-1.085-2.769-.611-1.565Z"/><path class="s" d="M79.383,46.8l.636,1.609L45.083,62.033l-.611-1.565Z"/><path class="j" d="M41.8,67.446a.861.861,0,0,1-.374-.081.965.965,0,0,1-.5-.518l-2.17-5.55a.935.935,0,0,1,.53-1.21L78.566,44.715a.923.923,0,0,1,.717.012.965.965,0,0,1,.5.518l2.17,5.55a.935.935,0,0,1-.53,1.21L66.978,57.661a.934.934,0,1,1-.68-1.74l13.57-5.313-1.49-3.81L40.836,61.49l1.49,3.81,15.491-6.062a.934.934,0,0,1,.68,1.74l-16.364,6.4A.874.874,0,0,1,41.8,67.446Z"/><path class="j" d="M61.621,59.688a.937.937,0,0,1-.343-1.809l2.563-1a.934.934,0,1,1,.68,1.74l-2.563,1A.8.8,0,0,1,61.621,59.688Z"/><path class="e" d="M73.483,43.087,45.251,54.138l.106,4.577,30.988-12.13Z"/><path class="j" d="M49.136,51.768a.933.933,0,0,1-.343-1.8l2.563-1a.934.934,0,1,1,.68,1.74l-2.563,1A.9.9,0,0,1,49.136,51.768Z"/><path class="j" d="M42.189,60.892a1,1,0,0,1-.493-.137.955.955,0,0,1-.443-.711l-.561-6.186a.932.932,0,0,1,.592-.954l4.939-1.933a.934.934,0,1,1,.68,1.74l-4.284,1.678.387,4.247L74.88,46.155l-2.47-3.43L54,49.935a.934.934,0,1,1-.68-1.74L72.41,40.723a.928.928,0,0,1,1.1.324l3.6,5a.935.935,0,0,1-.418,1.416L42.532,60.829A.951.951,0,0,1,42.189,60.892Z"/><path class="j" d="M55.4,49.317a.942.942,0,0,1-.842-.524l-7-14.231-1.1-.437a.938.938,0,1,1,.686-1.746l1.441.568a.962.962,0,0,1,.5.455l7.159,14.556a.937.937,0,0,1-.424,1.254A.867.867,0,0,1,55.4,49.317Z"/><path class="j" d="M44.565,33.315a.951.951,0,0,1-.343-.062l-9.86-3.873a.934.934,0,1,1,.68-1.74l9.86,3.873a.933.933,0,0,1-.337,1.8Z"/><path class="j" d="M59.27,46.7a.942.942,0,0,1-.842-.524L54.9,39a.936.936,0,0,1,1.678-.829l3.53,7.178a.937.937,0,0,1-.424,1.254A.89.89,0,0,1,59.27,46.7Z"/><path class="j" d="M54.556,37.113a.942.942,0,0,1-.842-.524l-2.283-4.64-13.2-5.189a.934.934,0,1,1,.68-1.74l13.533,5.32a.962.962,0,0,1,.5.455l2.445,4.964a.937.937,0,0,1-.424,1.254A.89.89,0,0,1,54.556,37.113Z"/><path class="e" d="M189.4,65.575s12.816-3.43,18.372-5.488,7.546-5.7,6.23-8.076-6.729-3.767-9.592.225-5.07,2.9-7.552,2.544a7.542,7.542,0,0,0-8.619,6.261Z"/><path class="j" d="M189.411,66.511a.955.955,0,0,1-.468-.125.93.93,0,0,1-.437-.586l-1.416-5.769a1.1,1.1,0,0,1-.019-.349c.449-3.255,1.721-5.631,3.773-7.072a7.9,7.9,0,0,1,6.055-1.216c.355.075.711.168,1.06.262,2.1.555,3.617.948,5.694-2.675a6.25,6.25,0,0,1,5.75-3.424,6.967,6.967,0,0,1,5.893,3.636,6.3,6.3,0,0,1,.1,5.027c-.992,2.594-3.38,4.777-6.717,6.149C203,62.7,190.209,66.33,189.666,66.486A1.775,1.775,0,0,1,189.411,66.511Zm-.461-6.748,1.141,4.646c3.106-.9,13.171-3.848,17.886-5.781,2.856-1.172,4.871-2.975,5.681-5.083A4.466,4.466,0,0,0,213.62,50a5.2,5.2,0,0,0-4.272-2.582,4.371,4.371,0,0,0-4.066,2.482c-2.788,4.871-5.563,4.141-7.789,3.555-.324-.087-.649-.168-.979-.243a6.035,6.035,0,0,0-4.59.923C190.34,55.242,189.342,57.131,188.949,59.763Z"/><path class="e" d="M187.078,58.3s9.8-8.363,13.782-12.523,4.1-8.35,1.852-10.034-7.664-.792-8.388,4.079-3.174,4.746-5.532,5.413-6.342,3.436-4.79,9.3Z"/><path class="j" d="M187.091,59.22a.356.356,0,0,1-.081-.006.943.943,0,0,1-.649-.343l-3.742-4.615a1.009,1.009,0,0,1-.168-.312c-.979-3.131-.848-5.825.393-8a7.868,7.868,0,0,1,4.958-3.686c.355-.081.711-.15,1.066-.212,2.133-.393,3.679-.68,4.01-4.846a6.257,6.257,0,0,1,3.748-5.557,6.956,6.956,0,0,1,6.872.78,6.249,6.249,0,0,1,2.233,4.5c.212,2.775-1.017,5.762-3.455,8.425-4.147,4.534-14.163,13.271-14.587,13.645A.866.866,0,0,1,187.091,59.22Zm-2.9-6,3.012,3.717c2.426-2.139,10.265-9.1,13.708-12.859,2.083-2.276,3.137-4.771,2.969-7.022a4.439,4.439,0,0,0-1.54-3.181,5.176,5.176,0,0,0-4.964-.518,4.361,4.361,0,0,0-2.626,3.985c-.449,5.6-3.268,6.124-5.538,6.542-.324.062-.655.118-.985.2a6.047,6.047,0,0,0-3.761,2.794C183.517,48.55,183.424,50.683,184.191,53.221Z"/><path class="t" d="M149.6,85.781h0a5.2,5.2,0,0,1,.848-6.879l26.137-24.5a5.316,5.316,0,0,1,7.9.374l5.918,7.958a5.344,5.344,0,0,1-2.17,7.814L156.183,87.1A5.187,5.187,0,0,1,149.6,85.781Z"/><path class="l" d="M186.473,71.862l-29.878,16.2c-2.183,1.185-4.652.867-5.868-.755q-.1-.14-.187-.281c-1.01-1.684-.468-4.085,1.347-5.744l24.989-22.769c2.289-2.077,5.619-2.139,7.116-.125l.231.306,4.659,6.261C190.427,67.041,189.28,70.346,186.473,71.862Z"/><path class="u" d="M184.222,58.7c-2.557,1.821-6.916,5.051-12.816,9.835-7.39,5.993-16.676,14.568-20.873,18.5-1.01-1.684-.468-4.085,1.347-5.744l24.989-22.769c2.289-2.077,5.619-2.139,7.116-.125Z"/><path class="t" d="M174.019,70.5a1.551,1.551,0,0,1-1.441-.967,13.225,13.225,0,0,0-4.347-5.6,1.559,1.559,0,0,1,1.7-2.613,16.178,16.178,0,0,1,5.525,7.028,1.551,1.551,0,0,1-.848,2.033A1.522,1.522,0,0,1,174.019,70.5Z"/><path class="j" d="M153.589,88.669a5.86,5.86,0,0,1-4.746-2.326,6.137,6.137,0,0,1,.96-8.12l26.137-24.5a6.653,6.653,0,0,1,5.12-1.8,5.769,5.769,0,0,1,4.172,2.3l5.918,7.958a5.843,5.843,0,0,1,.967,4.808,6.66,6.66,0,0,1-3.455,4.4L156.614,87.933A6.714,6.714,0,0,1,153.589,88.669Zm26.9-34.9a4.773,4.773,0,0,0-3.268,1.322l-26.137,24.5a4.267,4.267,0,0,0-.736,5.638h0a4.249,4.249,0,0,0,5.407,1.041L187.8,69.722a4.782,4.782,0,0,0,2.495-3.156,3.909,3.909,0,0,0-.642-3.268l-5.918-7.958a3.907,3.907,0,0,0-2.838-1.553C180.761,53.776,180.624,53.77,180.493,53.77Z"/><path class="j" d="M173.5,69.161a.938.938,0,0,1-.867-.58,13.792,13.792,0,0,0-4.577-5.881.933.933,0,0,1,1.017-1.565,15.527,15.527,0,0,1,5.288,6.742.934.934,0,0,1-.511,1.222A1.113,1.113,0,0,1,173.5,69.161Z"/><path class="o" d="M168.076,106.816c.237.1.374.156.374.156h-.493S168,106.916,168.076,106.816Z"/><circle class="e" cx="1.671" cy="1.671" r="1.671" transform="translate(123 172.042)"/><path class="v" d="M169.367,153.277c-.748,4.939-1.135,10.558-3.106,15.8-3.648,9.735-12.772,18.16-39.819,18.5-15.647.193-25.195-3.667-31.026-8.563a26.93,26.93,0,0,1-2.2-2.064l-.006-.006a25.211,25.211,0,0,1-6.885-16.115c-.019-.561-.006-.879-.006-.879s9.217-4.191,12.017-6.667,9.061-5.07,25.033-3.561S171.5,139.146,169.367,153.277Z"/><path class="w" d="M166.268,169.074c-3.648,9.735-12.772,18.16-39.819,18.5-17.8.218-27.708-4.8-33.221-10.621,7.7,2.65,28.388,8.506,48.806,3.187C153.732,177.088,161.4,172.822,166.268,169.074Z"/><path class="x" d="M168.606,159.439s-5.363,13.745-35.529,16.158c-29.754,2.376-41.441-5.351-41.759-5.563.087.212,2.108,4.64,4.627,8.968a26.927,26.927,0,0,1-2.2-2.064l-.006-.006a25.211,25.211,0,0,1-6.885-16.115Z"/><path class="j" d="M125.32,188.357c-23.274,0-32.909-9.105-36.894-16.807a.787.787,0,1,1,1.4-.723c3.779,7.315,13.009,15.959,35.491,15.959.368,0,.742,0,1.116-.006a.8.8,0,0,1,.8.78.788.788,0,0,1-.78.8Z"/><path class="j" d="M150.19,184.839a.787.787,0,0,1-.268-1.528c15.41-5.569,16.9-16.869,18.21-26.841.15-1.129.293-2.233.455-3.312a4.464,4.464,0,0,0-.992-4.079c-3.28-3.287-13.7-1.746-23.773-.249-7.315,1.085-14.88,2.2-20.511,1.671-12.373-1.179-20.592-.044-24.434,3.368-2.532,2.245-9.835,5.7-11.762,6.592a23.406,23.406,0,0,0,1.378,7.272.787.787,0,0,1-1.484.524,23.654,23.654,0,0,1-1.459-8.35.776.776,0,0,1,.461-.674c.094-.044,9.143-4.166,11.824-6.548,4.185-3.711,12.809-4.97,25.631-3.754,5.438.518,12.9-.592,20.131-1.659,10.945-1.621,21.278-3.156,25.12.7a6.01,6.01,0,0,1,1.434,5.426c-.162,1.066-.306,2.164-.455,3.28-1.3,9.9-2.925,22.226-19.233,28.12A.868.868,0,0,1,150.19,184.839Z"/><path class="j" d="M135.279,187.908a.791.791,0,0,1-.075-1.578,65.791,65.791,0,0,0,11.681-2.058.788.788,0,0,1,.43,1.515,67.334,67.334,0,0,1-11.968,2.108A.123.123,0,0,1,135.279,187.908Z"/><path class="g" d="M121.659,127.6c-19.682.9-37.979,12.03-35.822,29.916s31.5,17.593,48.656,15.8,34.206-7.29,34.849-22.451S157.044,125.974,121.659,127.6Z"/><path class="j" d="M99.482,172.279a.823.823,0,0,1-.243-.037c-8.575-2.788-13.346-7.714-14.181-14.637a22.5,22.5,0,0,1,5.332-17.636c6.473-7.646,18.148-12.566,31.238-13.159a.787.787,0,1,1,.075,1.572c-12.66.58-23.916,5.288-30.109,12.6a20.717,20.717,0,0,0-4.97,16.427c.755,6.261,5.164,10.745,13.109,13.327a.788.788,0,0,1,.505.992A.8.8,0,0,1,99.482,172.279Z"/><path class="j" d="M119.963,174.9a81.829,81.829,0,0,1-15.5-1.322.788.788,0,0,1,.306-1.547c9.86,1.946,21.565,1.341,29.641.493,22.145-2.32,33.633-9.623,34.144-21.7.231-5.444-1.384-9.966-4.808-13.433-6.542-6.623-19.751-9.691-39.258-9.105a.789.789,0,0,1-.044-1.578c19.963-.6,33.564,2.626,40.424,9.573,3.742,3.792,5.513,8.706,5.263,14.606-.549,12.984-12.51,20.786-35.553,23.2A138.477,138.477,0,0,1,119.963,174.9Z"/><path class="k" d="M175.89,128.644c0,1.441-24.646,11.257-27.284,13.969s-2.183,8.693-4.34,11.419l-13.845-2.9-1.746-.368s-1.684-8.319,9.822-9.392,27.44-15.747,30.982-18.485a2.464,2.464,0,0,1,3.112-.137C174.549,124.072,175.89,127.658,175.89,128.644Z"/><path class="j" d="M152.816,155.323a.8.8,0,0,1-.761-.58.783.783,0,0,1,.549-.967,15.183,15.183,0,0,0,5.775-3.012.788.788,0,1,1,1.079,1.147,16.558,16.558,0,0,1-6.43,3.38A.648.648,0,0,1,152.816,155.323Z"/><path class="j" d="M148.6,155.9a18.877,18.877,0,0,1-7.615-1.815,20.718,20.718,0,0,0-8.594-1.952,15.33,15.33,0,0,0-6.6,1.522.787.787,0,1,1-.674-1.422,16.891,16.891,0,0,1,7.278-1.671,22.071,22.071,0,0,1,9.186,2.07,17.353,17.353,0,0,0,7.022,1.7c.193,0,.374-.006.561-.012a.786.786,0,1,1,.05,1.572C149.012,155.89,148.806,155.9,148.6,155.9Z"/><path class="j" d="M120.218,157.505a.789.789,0,0,1-.6-1.3,16.094,16.094,0,0,1,2.657-2.314.792.792,0,0,1,1.1.181.783.783,0,0,1-.187,1.1,14.755,14.755,0,0,0-2.382,2.064A.74.74,0,0,1,120.218,157.505Z"/><path class="j" d="M144.528,155.316a.794.794,0,0,1-.486-.168.785.785,0,0,1-.131-1.1c.892-1.123,1.247-3.1,1.628-5.182.462-2.544.935-5.182,2.507-6.8,1.335-1.372,6.829-3.948,15.055-7.714,2.694-1.235,5.232-2.395,7.353-3.418a.789.789,0,0,1,.686,1.422c-2.133,1.029-4.684,2.2-7.378,3.43-5.949,2.725-13.352,6.112-14.581,7.378s-1.665,3.667-2.083,5.981c-.412,2.289-.8,4.447-1.94,5.881A.835.835,0,0,1,144.528,155.316Z"/><path class="l" d="M172.585,122.75c-4.821,4.241-20.929,17.911-29.972,19.669-10.72,2.083-11.126,8.344-11.126,8.344l-1.066.368-1.746-.368s-1.684-8.319,9.822-9.392,27.44-15.747,30.982-18.485A2.455,2.455,0,0,1,172.585,122.75Z"/><path class="j" d="M148.918,138.566a.789.789,0,0,1-.374-1.484c7.253-3.848,14.418-9.828,18.266-13.04.929-.78,1.665-1.391,2.17-1.784a3.189,3.189,0,0,1,3.555-.437c2.513,1.235,4.141,5.588,4.141,6.816,0,.642-.474,1.154-3.4,2.644a.788.788,0,1,1-.717-1.4,16.476,16.476,0,0,0,2.519-1.453c-.181-1.1-1.5-4.334-3.237-5.189a1.653,1.653,0,0,0-1.9.274c-.48.368-1.2.979-2.127,1.746-3.891,3.249-11.138,9.292-18.534,13.221A.779.779,0,0,1,148.918,138.566Z"/><path class="j" d="M128.026,152.747a.783.783,0,0,1-.78-.7,10.676,10.676,0,0,1,2.251-7.334c1.933-2.37,4.933-3.761,8.918-4.135a24.342,24.342,0,0,0,7.5-2.2.787.787,0,1,1,.649,1.434,25.889,25.889,0,0,1-8,2.339c-3.555.331-6.193,1.534-7.845,3.561a9.1,9.1,0,0,0-1.9,6.162.781.781,0,0,1-.7.867A.539.539,0,0,1,128.026,152.747Z"/><path class="e" d="M92.741,160.842s-17.468-.193-7.078-28.425a22.037,22.037,0,0,1,10.964,16.651A12.328,12.328,0,0,1,92.741,160.842Z"/><path class="j" d="M92.735,161.628h-.006a11.408,11.408,0,0,1-8.737-4.827c-3.524-5.114-3.212-13.408.929-24.659a.805.805,0,0,1,.443-.462.78.78,0,0,1,.636.025,17.215,17.215,0,0,1,3.212,2.189.788.788,0,1,1-1.01,1.21,18.391,18.391,0,0,0-2.12-1.54c-3.6,10.159-3.879,17.873-.792,22.345a9.913,9.913,0,0,0,7.166,4.128,11.419,11.419,0,0,0,3.405-10.77l-.019-.094A21.574,21.574,0,0,0,90.39,137.2a.786.786,0,1,1,1.16-1.06,23.116,23.116,0,0,1,5.843,12.785,13,13,0,0,1-4.141,12.51A.783.783,0,0,1,92.735,161.628Z"/><path class="e" d="M92.479,161.235s-14.73,9.379-21.466-19.938a22.029,22.029,0,0,1,18.279,7.951A12.34,12.34,0,0,1,92.479,161.235Z"/><path class="j" d="M73.57,150.608a.793.793,0,0,1-.736-.505,63.246,63.246,0,0,1-2.588-8.631.783.783,0,0,1,.125-.63.8.8,0,0,1,.549-.331,22.293,22.293,0,0,1,15.229,4.659.788.788,0,0,1-.954,1.254,21.34,21.34,0,0,0-13.19-4.4,60.354,60.354,0,0,0,2.307,7.509.785.785,0,0,1-.449,1.017A.719.719,0,0,1,73.57,150.608Z"/><path class="j" d="M74.961,153.776a.792.792,0,0,1-.7-.437c-.175-.343-.337-.7-.505-1.066a.784.784,0,1,1,1.428-.649c.156.349.318.686.48,1.017a.787.787,0,0,1-.349,1.054A.774.774,0,0,1,74.961,153.776Z"/><path class="j" d="M87.1,163.461a10.994,10.994,0,0,1-2.619-.318c-3.623-.892-6.766-3.617-9.336-8.1a.786.786,0,0,1,1.366-.78c2.339,4.085,5.139,6.554,8.326,7.346a10.142,10.142,0,0,0,6.954-.886,11.622,11.622,0,0,0-3.031-10.882.712.712,0,0,1-.069-.069c-.5-.586-1.01-1.129-1.509-1.609a.789.789,0,1,1,1.1-1.135c.524.505,1.054,1.073,1.584,1.684a13.006,13.006,0,0,1,3.368,12.741.8.8,0,0,1-.337.455A11.662,11.662,0,0,1,87.1,163.461Zm5.369-2.22Z"/><path class="e" d="M88.089,162.582s-9.136-12.591,16.564-20.162a19.64,19.64,0,0,1-6.08,16.682A10.987,10.987,0,0,1,88.089,162.582Z"/><path class="j" d="M90.421,163.617a12.3,12.3,0,0,1-2.5-.262.792.792,0,0,1-.474-.306,10.315,10.315,0,0,1-1.322-8.513c1.36-4.565,5.949-8.369,13.645-11.307a.788.788,0,1,1,.561,1.472c-7.2,2.75-11.469,6.205-12.691,10.265a8.828,8.828,0,0,0,.923,6.916,10.043,10.043,0,0,0,4.185-.112.787.787,0,1,1,.38,1.528A11.6,11.6,0,0,1,90.421,163.617Z"/><path class="j" d="M94.88,162.625a.787.787,0,0,1-.331-1.5,10.386,10.386,0,0,0,3.411-2.513.748.748,0,0,1,.069-.075,19.225,19.225,0,0,0,5.949-15.092c-.412.125-.8.249-1.179.38a.789.789,0,1,1-.5-1.5c.661-.218,1.378-.443,2.139-.661a.772.772,0,0,1,.63.087.806.806,0,0,1,.362.524,20.257,20.257,0,0,1-6.274,17.362,12.032,12.032,0,0,1-3.941,2.919A.814.814,0,0,1,94.88,162.625Z"/><path class="l" d="M116.994,140.019a1.8,1.8,0,0,1-.486.069h-.879a1.734,1.734,0,0,1-1.734-1.734v-.025a1.734,1.734,0,0,1,1.734-1.734h.879a1.734,1.734,0,0,1,1.734,1.734v.025a1.725,1.725,0,0,1-1.247,1.665"/><path class="j" d="M115.341,140.48h-.162a2.4,2.4,0,0,1-1.534-4.253.394.394,0,0,1,.505.6,1.616,1.616,0,0,0,1.035,2.856h.162a.391.391,0,0,1,.393.393A.4.4,0,0,1,115.341,140.48Z"/><path class="j" d="M116.857,140.38a.4.4,0,0,1-.374-.268.4.4,0,0,1,.249-.5,1.618,1.618,0,0,0-.5-3.156h-1.054a.393.393,0,1,1,0-.786h1.054a2.405,2.405,0,0,1,.748,4.69A.432.432,0,0,1,116.857,140.38Z"/><path class="e" d="M132.4,162.95a1.8,1.8,0,0,1-.486.069h-.879a1.734,1.734,0,0,1-1.734-1.734v-.025a1.734,1.734,0,0,1,1.734-1.734h.879a1.734,1.734,0,0,1,1.734,1.734v.025a1.718,1.718,0,0,1-1.247,1.665"/><path class="j" d="M130.751,163.411h-.162a2.4,2.4,0,0,1-1.534-4.247.389.389,0,0,1,.555.05.4.4,0,0,1-.05.555,1.616,1.616,0,0,0,1.035,2.856h.162a.391.391,0,0,1,.393.393A.4.4,0,0,1,130.751,163.411Z"/><path class="j" d="M132.267,163.311a.4.4,0,0,1-.374-.268.4.4,0,0,1,.249-.5,1.618,1.618,0,0,0-.5-3.156h-1.054a.393.393,0,0,1,0-.786h1.054a2.405,2.405,0,0,1,.748,4.69A.433.433,0,0,1,132.267,163.311Z"/><path class="r" d="M107.484,167.926a1.8,1.8,0,0,1-.486.069h-.879a1.734,1.734,0,0,1-1.734-1.734v-.025a1.734,1.734,0,0,1,1.734-1.734H107a1.734,1.734,0,0,1,1.734,1.734v.025a1.729,1.729,0,0,1-1.247,1.665"/><path class="j" d="M105.837,168.388h-.162a2.4,2.4,0,0,1-1.534-4.253.394.394,0,1,1,.505.6,1.62,1.62,0,0,0,1.035,2.862h.162a.391.391,0,0,1,.393.393A.4.4,0,0,1,105.837,168.388Z"/><path class="j" d="M107.346,168.288a.4.4,0,0,1-.374-.268.4.4,0,0,1,.249-.5,1.618,1.618,0,0,0-.5-3.156h-1.054a.393.393,0,0,1,0-.786h1.054a2.405,2.405,0,0,1,.748,4.69A.433.433,0,0,1,107.346,168.288Z"/><path class="l" d="M158.416,162.046a1.8,1.8,0,0,1-.486.069h-.879a1.734,1.734,0,0,1-1.734-1.734v-.025a1.734,1.734,0,0,1,1.734-1.734h.879a1.734,1.734,0,0,1,1.734,1.734v.025a1.729,1.729,0,0,1-1.247,1.665"/><path class="j" d="M156.763,162.507H156.6a2.4,2.4,0,0,1-1.534-4.253.394.394,0,0,1,.505.6,1.62,1.62,0,0,0,1.035,2.862h.162a.391.391,0,0,1,.393.393A.4.4,0,0,1,156.763,162.507Z"/><path class="j" d="M158.279,162.407a.4.4,0,0,1-.374-.268.4.4,0,0,1,.249-.5,1.618,1.618,0,0,0-.5-3.156H156.6a.393.393,0,0,1,0-.786h1.054a2.405,2.405,0,0,1,.748,4.69A.433.433,0,0,1,158.279,162.407Z"/><path class="r" d="M134.381,135.2a1.8,1.8,0,0,1-.486.069h-.879a1.734,1.734,0,0,1-1.734-1.734v-.025a1.734,1.734,0,0,1,1.734-1.734h.879a1.734,1.734,0,0,1,1.734,1.734v.025a1.736,1.736,0,0,1-1.247,1.665"/><path class="j" d="M132.728,135.659h-.162a2.4,2.4,0,0,1-1.534-4.253.394.394,0,0,1,.505.6,1.616,1.616,0,0,0,1.035,2.856h.162a.391.391,0,0,1,.393.393A.4.4,0,0,1,132.728,135.659Z"/><path class="j" d="M134.244,135.56a.4.4,0,0,1-.374-.268.4.4,0,0,1,.249-.5,1.618,1.618,0,0,0-.5-3.156h-1.054a.393.393,0,1,1,0-.786h1.054a2.405,2.405,0,0,1,.748,4.69A.432.432,0,0,1,134.244,135.56Z"/><path class="t" d="M70.739,254.119l3.1-.6s-23.9-18.354-29.448-24.459S28.238,210.67,28.238,210.67l-3.324,8.974,37.78,36.04,5.557-1.079"/><line class="y" y1="0.48" x2="2.482" transform="translate(68.257 254.119)"/><path class="e" d="M90.583,246.511c6.947,3.7,8,9.9,2.27,11.662-2.077.636-5.058.692-8.974-.175a31,31,0,0,1-9.891-4.378,29.177,29.177,0,0,1-3.056-2.3s-22.463-15.628-32.94-29.367-11.506-15.3-11.506-15.3-.044-.405-.094-1.091c-.324-4.409-.879-20.4,8.457-14.487a19.14,19.14,0,0,1,4.465,5.943c1.154,2.763-.206,3.274,3.4,3.262a2.713,2.713,0,0,0,1.147-.256c4.228-1.983,4.378-14.624,11.082-13.165,7.259,1.578,6.929,6.2,9.317,12.679s3.985,14.749,12.217,8.781c6.6-4.783,13.271-6.1,14.867-.355a14.39,14.39,0,0,1,.187,5.569c-1.266,9.941-7,10.053.231,12.142,1.3.38,3.025.817,5.276,1.4,10.147.923,10.022,6.286,5.837,9.143a11.053,11.053,0,0,1-6.9,1.759C88.531,239.22,81.1,241.472,90.583,246.511Z"/><path class="t" d="M39.314,197.031c-1.241-1.017-2.569-2.164-4.047-3.28-7.677-5.806-7.989,12.622-7.989,12.622l-.886-.8c-.324-4.409-.879-20.4,8.457-14.487A19.068,19.068,0,0,1,39.314,197.031Z"/><path class="t" d="M78.672,209.061c-12.423,7.989-13.34.661-17.655-11.313s-7.253-6.355-7.253-6.355c-3.929,8.138-6.823,9.779-9.9,8.644,4.228-1.983,4.378-14.624,11.082-13.165,7.259,1.578,6.929,6.2,9.317,12.679s3.985,14.749,12.217,8.781c6.6-4.783,13.271-6.1,14.867-.355C89.13,205.825,85.189,204.871,78.672,209.061Z"/><path class="t" d="M102.862,236.227c1.94-3.093,1.416-6.324-6.3-7.877-2.5-.5-3.991-1.459-4.808-2.663,1.3.38,3.025.817,5.276,1.4C107.172,228.007,107.053,233.371,102.862,236.227Z"/><path class="j" d="M25.775,206.492a.928.928,0,0,1-.929-.867c-.094-1.3-.767-12.76,3.5-16.146a.936.936,0,1,1,1.166,1.466c-2.962,2.357-3.025,11.3-2.8,14.549a.931.931,0,0,1-.867,1Z"/><path class="j" d="M41.94,200.985c-2.432,0-3.754-2.582-4.952-4.921-1.353-2.638-2.75-5.363-5.594-5.65a.934.934,0,0,1,.187-1.858c3.86.387,5.644,3.86,7.078,6.654,1.709,3.343,2.544,4.515,4.521,3.561,2.183-1.048,3.23-3.9,4.241-6.654,1.416-3.854,3.025-8.22,8.145-7.1a9.2,9.2,0,0,1,4.939,3.081.937.937,0,0,1-1.4,1.241,7.415,7.415,0,0,0-3.941-2.495c-3.361-.73-4.465,1.777-5.993,5.925-1.141,3.106-2.326,6.317-5.189,7.7A4.746,4.746,0,0,1,41.94,200.985Z"/><path class="j" d="M71.126,212.061a2.669,2.669,0,0,1-.505-.05c-3.985-.867-6.149-9.242-6.386-10.2-.006-.025-.012-.05-.019-.081a33.682,33.682,0,0,0-3.249-9.7.935.935,0,1,1,1.634-.911A35.181,35.181,0,0,1,66.056,201.4c.786,3.162,2.813,8.313,4.958,8.775.842.193,3.212-1.441,5.114-2.744a35.38,35.38,0,0,1,6.929-4.022.938.938,0,1,1,.667,1.752,34.538,34.538,0,0,0-6.536,3.817C74.705,210.683,72.691,212.061,71.126,212.061Z"/><path class="j" d="M90.234,217.9a.908.908,0,0,1-.38-.081.931.931,0,0,1-.468-1.235c1.484-3.3,2.725-6.8.293-10.172a3.889,3.889,0,0,0-3.723-1.79.935.935,0,0,1-.143-1.865,5.747,5.747,0,0,1,5.394,2.563c3.268,4.528,1.073,9.411-.106,12.03A.973.973,0,0,1,90.234,217.9Z"/><path class="j" d="M99.264,227.459a.583.583,0,0,1-.143-.012c-1.166-.175-2.42-.262-3.63-.349-3.006-.212-5.843-.418-7.328-1.927-1.671-1.7-.8-4.11.137-6.236a.935.935,0,1,1,1.709.761c-1.041,2.357-1.185,3.486-.511,4.166.992,1,3.6,1.191,6.13,1.372,1.247.087,2.538.181,3.779.368a.934.934,0,0,1-.143,1.858Z"/><path class="j" d="M95.79,250.876a.932.932,0,0,1-.736-.355c-1.129-1.416-3.143-2.357-5.089-3.262-2.233-1.041-4.347-2.021-4.97-3.761a3.479,3.479,0,0,1,.243-2.738c1.36-2.844,5.476-3.149,9.828-3.474,5.943-.443,9.835-1.017,9.754-4.839a4.232,4.232,0,0,0-2.894-4.278.937.937,0,0,1,.711-1.734,6.117,6.117,0,0,1,4.054,5.974c.125,5.887-6.311,6.361-11.487,6.748-3.636.268-7.39.549-8.282,2.413a1.719,1.719,0,0,0-.175,1.3c.362,1.01,2.208,1.865,4,2.7,2.046.954,4.365,2.033,5.769,3.792a.934.934,0,0,1-.15,1.316A.949.949,0,0,1,95.79,250.876Z"/><path class="j" d="M89.217,259.632A24.807,24.807,0,0,1,79.2,257.306a.933.933,0,1,1,.792-1.69c5.176,2.42,11.238,2.856,14.107,1.023a3.932,3.932,0,0,0,1.852-3.617.934.934,0,0,1,.929-.942h.006a.941.941,0,0,1,.935.929,5.814,5.814,0,0,1-2.713,5.2A11.007,11.007,0,0,1,89.217,259.632Z"/><path class="z" d="M55.017,233.564h0a7.635,7.635,0,0,1-5.837-9.086h0a7.635,7.635,0,0,1,9.086-5.837h0a7.635,7.635,0,0,1,5.837,9.086h0A7.635,7.635,0,0,1,55.017,233.564Z"/><path class="z" d="M61.746,214.774h0a7.455,7.455,0,0,1-5.7-8.874l.331-1.528a7.455,7.455,0,0,1,8.874-5.7h0a7.455,7.455,0,0,1,5.7,8.874l-.331,1.528A7.465,7.465,0,0,1,61.746,214.774Z"/><path class="z" d="M37.281,209.442h0a7.764,7.764,0,0,1-5.937-9.242l.2-.923a7.764,7.764,0,0,1,9.242-5.937h0a7.764,7.764,0,0,1,5.937,9.242l-.2.923A7.761,7.761,0,0,1,37.281,209.442Z"/><path class="j" d="M56.657,234.674a8.79,8.79,0,0,1-1.84-.2,8.571,8.571,0,1,1,9.024-13.009.934.934,0,1,1-1.572,1.01,6.695,6.695,0,1,0,.917,5.045,6.8,6.8,0,0,0,.131-2.014.936.936,0,0,1,1.865-.156,8.655,8.655,0,0,1-.168,2.569,8.586,8.586,0,0,1-8.357,6.754Z"/><path class="j" d="M68.531,213.346a.939.939,0,0,1-.661-1.6,7.3,7.3,0,1,0-10.533-10.109.936.936,0,0,1-1.384-1.26,9.179,9.179,0,1,1,13.24,12.71A.966.966,0,0,1,68.531,213.346Z"/><path class="j" d="M62.738,215.734a9.177,9.177,0,0,1-8.974-11.126,8.833,8.833,0,0,1,.349-1.2.935.935,0,0,1,1.752.655,6.863,6.863,0,0,0-.274.948,7.3,7.3,0,0,0,9.741,8.375.936.936,0,1,1,.674,1.746A9.192,9.192,0,0,1,62.738,215.734Z"/><path class="j" d="M46.374,204.9a.839.839,0,0,1-.3-.05.935.935,0,0,1-.592-1.185c.094-.287.168-.555.231-.823a7.313,7.313,0,0,0-5.582-8.687,7.24,7.24,0,0,0-6.211,1.509.935.935,0,0,1-1.191-1.441,9.179,9.179,0,0,1,14.824,9.018,10.46,10.46,0,0,1-.281,1.017A.961.961,0,0,1,46.374,204.9Z"/><path class="j" d="M38.584,210.471a9.038,9.038,0,0,1-1.952-.212,9.185,9.185,0,0,1-7.016-10.914,9.306,9.306,0,0,1,.848-2.326.933.933,0,0,1,1.653.867,7.3,7.3,0,0,0,11.6,8.6.935.935,0,0,1,1.316,1.328A9.147,9.147,0,0,1,38.584,210.471Z"/><path class="k" d="M48.319,232.1l27.06,2.008s1.709,14.425-4.808,16.271c0,0-12.011-7.877-13.957-9.772S48.319,232.1,48.319,232.1Z"/><path class="k" d="M27.87,207.4,54.119,215s-1.216,13.957-7.945,15.154c0,0-13.271-12.46-15.192-16.084A71.827,71.827,0,0,1,27.87,207.4Z"/><path class="j" d="M84.54,260.05a.89.89,0,0,1-.412-.1c-39.775-19.676-60.811-56.607-61.017-56.975a.933.933,0,1,1,1.628-.911c.206.368,20.979,36.8,60.218,56.215a.937.937,0,0,1,.424,1.254A.954.954,0,0,1,84.54,260.05Z"/><path class="j" d="M71.338,255.385a.937.937,0,0,1-.131-1.865l3.729-.53a.936.936,0,0,1,.268,1.852l-3.729.53A1.119,1.119,0,0,1,71.338,255.385Z"/><path class="j" d="M62.7,256.62a.977.977,0,0,1-.649-.256L44.259,239.4a.935.935,0,1,1,1.291-1.353L63.012,254.7l5.045-.723a.936.936,0,0,1,.268,1.852l-5.494.786A.923.923,0,0,1,62.7,256.62Z"/><path class="j" d="M41.4,236.308a.937.937,0,0,1-.649-.262l-12.585-12a.935.935,0,1,1,1.291-1.353l12.585,12a.936.936,0,0,1,.031,1.322A.917.917,0,0,1,41.4,236.308Z"/><path class="j" d="M26.735,222.314a.944.944,0,0,1-.642-.256l-1.821-1.734a.94.94,0,0,1-.231-1l3.667-9.885a.935.935,0,0,1,1.752.655l-3.455,9.3,1.372,1.31a.932.932,0,0,1-.642,1.609Z"/><path class="j" d="M70.876,251.637a.92.92,0,0,1-.655-.268.935.935,0,0,1-.012-1.322c6.511-6.6,5.226-13.633,4.684-15.61L69,233.963a.938.938,0,0,1,.15-1.871l6.523.524a.946.946,0,0,1,.8.6c.15.387,3.542,9.548-4.927,18.142A.935.935,0,0,1,70.876,251.637Z"/><path class="j" d="M65.114,233.645h-.075l-18.572-1.491a.938.938,0,1,1,.15-1.871l18.572,1.49a.937.937,0,0,1-.075,1.871Z"/><path class="j" d="M45.781,231.35a.936.936,0,0,1-.511-1.721c7.777-5.045,8.039-12.186,7.939-14.231l-2.594-.792a.935.935,0,0,1,.543-1.79l3.2.979a.93.93,0,0,1,.649.755c.062.412,1.4,10.09-8.725,16.651A.9.9,0,0,1,45.781,231.35Z"/><path class="j" d="M46.423,213.271a.841.841,0,0,1-.274-.044l-20.206-6.193a.936.936,0,0,1,.549-1.79L46.7,211.437a.938.938,0,0,1-.274,1.833Z"/><path class="j" d="M92.853,258.179c-2.077.636-5.058.692-8.974-.175a31,31,0,0,1-9.891-4.378l-3.411-3.237s2.37,1.085,8.257,3.586C82.944,255.722,88.294,257.78,92.853,258.179Z"/></g></g></svg>