<svg id="Capa_1" enable-background="new 0 0 512 512" height="512" viewBox="0 0 512 512" width="512" xmlns="http://www.w3.org/2000/svg"><path d="m163 221.89h25" style="fill:none;stroke:#000;stroke-width:15;stroke-linecap:round;stroke-linejoin:round;stroke-miterlimit:10"/><path d="m107.5 157.057 259.171-93.059c8.258-2.965 17.287 1.76 19.558 10.235l13.271 51.267z" fill="#6daa71"/><path d="m399.5 125.5-29.55 3.19-13.72-54.46c-.56-2.07-1.52-3.92-2.77-5.49l13.21-4.74c8.26-2.97 17.29 1.76 19.56 10.23z" fill="#568456"/><path d="m107.5 158.724 307.282-59.319c7.728-1.492 15.295 3.243 17.332 10.846l12.254 45.733z" fill="#91ce96"/><path d="m444.37 155.98h-30l-12.26-45.73c-.81-3.02-2.49-5.59-4.71-7.49l17.38-3.36c7.73-1.49 15.3 3.25 17.33 10.85z" fill="#6daa71"/><path d="m434.5 448.89h-317c-22.091 0-40-17.909-40-40v-215c0-22.091 17.909-40 40-40h317c22.091 0 40 17.909 40 40v215c0 22.092-17.909 40-40 40z" fill="#cca385"/><path d="m429.5 183.89h-307c-8.284 0-15 6.716-15 15v205c0 8.284 6.716 15 15 15h307c8.284 0 15-6.716 15-15v-205c0-8.284-6.716-15-15-15z" fill="#cca385"/><path d="m444.5 198.89v205c0 8.28-6.72 15-15 15h-30c8.28 0 15-6.72 15-15v-205c0-8.28-6.72-15-15-15h30c8.28 0 15 6.72 15 15z" fill="#9b7861"/><path d="m103 448.89c-52.743 0-95.5-42.757-95.5-95.5 0-52.743 42.757-95.5 95.5-95.5 52.743 0 95.5 42.757 95.5 95.5 0 52.744-42.757 95.5-95.5 95.5z" fill="#ffd576"/><path d="m103 418.89c-36.175 0-65.5-29.325-65.5-65.5 0-36.175 29.325-65.5 65.5-65.5 36.175 0 65.5 29.325 65.5 65.5 0 36.175-29.325 65.5-65.5 65.5z" fill="#efba50"/><path d="m168.5 353.39c0 18.09-7.33 34.46-19.19 46.31-11.85 11.86-28.23 19.19-46.31 19.19-5.16 0-10.18-.6-15-1.73 12.06-2.82 22.84-8.98 31.31-17.46 11.86-11.85 19.19-28.22 19.19-46.31s-7.33-34.46-19.19-46.31c-8.47-8.48-19.25-14.64-31.31-17.46 4.82-1.13 9.84-1.73 15-1.73 18.08 0 34.46 7.33 46.31 19.19 11.86 11.85 19.19 28.22 19.19 46.31z" fill="#ea9c3f"/><path d="m489.5 333.89h-78c-11.046 0-20-8.954-20-20v-25c0-11.046 8.954-20 20-20h78c8.284 0 15 6.716 15 15v35c0 8.285-6.716 15-15 15z" fill="#ddd"/><path d="m504.5 283.89v35c0 8.28-6.72 15-15 15h-30c8.28 0 15-6.72 15-15v-35c0-8.28-6.72-15-15-15h30c8.28 0 15 6.72 15 15z" fill="#bfbfbf"/><path d="m489.5 261.385h-7.5v-67.5c0-20.657-13.26-38.268-31.711-44.792l-10.93-40.79c-3.042-11.351-14.468-18.496-25.998-16.269l-13.878 2.679-6.01-22.428c-1.624-6.059-5.743-11.203-11.301-14.111s-12.132-3.362-18.036-1.241l-248.042 89.063c-.348.125-.675.28-.991.448-25.082 1.255-45.103 22.053-45.103 47.441v61.921c-40.659 13.787-70 52.322-70 97.58 0 56.794 46.206 103 103 103h110c4.142 0 7.5-3.358 7.5-7.5s-3.358-7.5-7.5-7.5h-56.524c6.955-4.242 13.368-9.286 19.115-15h253.909c12.407 0 22.5-10.093 22.5-22.5v-62.5h15v67.5c0 17.92-14.58 32.5-32.5 32.5h-186.5c-4.142 0-7.5 3.358-7.5 7.5s3.358 7.5 7.5 7.5h186.5c26.191 0 47.5-21.309 47.5-47.5v-67.5h7.5c12.407 0 22.5-10.093 22.5-22.5v-35c0-12.408-10.093-22.501-22.5-22.501zm-73.296-154.622c3.846-.743 7.652 1.64 8.666 5.423l9.164 34.199h-223.076zm-46.999-35.712c1.998-.718 4.132-.57 6.012.414s3.218 2.654 3.767 4.704l5.733 21.396-193.246 37.305zm-266.205 370.334c-48.523 0-88-39.477-88-88s39.477-88 88-88 88 39.477 88 88-39.477 88-88 88zm334-37.5c0 4.136-3.364 7.5-7.5 7.5h-241.428c11.306-16.531 17.928-36.505 17.928-58 0-52.735-39.839-96.333-91-102.297v-21.703h20c4.142 0 7.5-3.358 7.5-7.5s-3.358-7.5-7.5-7.5h-20v-15.5c0-4.136 3.364-7.5 7.5-7.5h45 262c4.136 0 7.5 3.364 7.5 7.5v35c0 4.142 3.358 7.5 7.5 7.5s7.5-3.358 7.5-7.5v-35c0-12.407-10.093-22.5-22.5-22.5h-262-45c-12.407 0-22.5 10.093-22.5 22.5v51.547c-5.1.147-10.109.665-15 1.53v-58.077c0-17.92 14.58-32.5 32.5-32.5h317c17.92 0 32.5 14.58 32.5 32.5v67.5h-55.5c-15.164 0-27.5 12.336-27.5 27.5v25c0 15.164 12.336 27.5 27.5 27.5h25.5zm60-85c0 4.136-3.364 7.5-7.5 7.5h-78c-6.893 0-12.5-5.607-12.5-12.5v-25c0-6.893 5.607-12.5 12.5-12.5h78c4.136 0 7.5 3.364 7.5 7.5z"/><path d="m103 280.385c-40.252 0-73 32.748-73 73s32.748 73 73 73 73-32.748 73-73-32.748-73-73-73zm0 131c-31.981 0-58-26.019-58-58s26.019-58 58-58 58 26.019 58 58-26.019 58-58 58z"/><path d="m425.5 291.385c-5.523 0-10 4.477-10 10 0 5.523 4.477 10 10 10 5.523 0 10-4.477 10-10 0-5.523-4.477-10-10-10z"/><path d="m188 214.385h-23c-4.142 0-7.5 3.358-7.5 7.5s3.358 7.5 7.5 7.5h23c4.142 0 7.5-3.358 7.5-7.5s-3.358-7.5-7.5-7.5z"/><path d="m218 229.385h25c4.142 0 7.5-3.358 7.5-7.5s-3.358-7.5-7.5-7.5h-25c-4.142 0-7.5 3.358-7.5 7.5s3.358 7.5 7.5 7.5z"/><path d="m273 229.385h25c4.142 0 7.5-3.358 7.5-7.5s-3.358-7.5-7.5-7.5h-25c-4.142 0-7.5 3.358-7.5 7.5s3.358 7.5 7.5 7.5z"/><path d="m328 229.385h25c4.142 0 7.5-3.358 7.5-7.5s-3.358-7.5-7.5-7.5h-25c-4.142 0-7.5 3.358-7.5 7.5s3.358 7.5 7.5 7.5z"/><path d="m383 229.385h25c4.142 0 7.5-3.358 7.5-7.5s-3.358-7.5-7.5-7.5h-25c-4.142 0-7.5 3.358-7.5 7.5s3.358 7.5 7.5 7.5z"/><path d="m244 376.385h-25c-4.142 0-7.5 3.358-7.5 7.5s3.358 7.5 7.5 7.5h25c4.142 0 7.5-3.358 7.5-7.5s-3.358-7.5-7.5-7.5z"/><path d="m299 376.385h-25c-4.142 0-7.5 3.358-7.5 7.5s3.358 7.5 7.5 7.5h25c4.142 0 7.5-3.358 7.5-7.5s-3.358-7.5-7.5-7.5z"/><path d="m354 376.385h-25c-4.142 0-7.5 3.358-7.5 7.5s3.358 7.5 7.5 7.5h25c4.142 0 7.5-3.358 7.5-7.5s-3.358-7.5-7.5-7.5z"/><path d="m384 376.385c-4.142 0-7.5 3.358-7.5 7.5s3.358 7.5 7.5 7.5h25c4.142 0 7.5-3.358 7.5-7.5s-3.358-7.5-7.5-7.5z"/></svg>