<svg xmlns="http://www.w3.org/2000/svg" width="169.344" height="95.923" viewBox="0 0 169.344 95.923"><defs><style>.a,.b{fill:#093050;}.a{font-size:24px;font-family:sans-serif;font-weight:600;opacity:0.4;}</style></defs><g transform="translate(-122 -493)"><text class="a" transform="translate(207 518)"><tspan x="-63.533" y="0">Welcome to</tspan></text><g transform="translate(122 546.077)"><path class="b" d="M0,48.544A18.414,18.414,0,0,1,5.1,35.77a19,19,0,0,1,14.2-5.937,18.762,18.762,0,0,1,9.465,2.279,14.5,14.5,0,0,1,6.009,5.937l-7.923,5.619a6.435,6.435,0,0,0-1.436-2.279A6.779,6.779,0,0,0,23.5,39.957a8.3,8.3,0,0,0-2.233-.742A11.673,11.673,0,0,0,19.09,39a7.971,7.971,0,0,0-3.882.9,7.871,7.871,0,0,0-2.659,2.279,10.217,10.217,0,0,0-1.542,3.18,13.207,13.207,0,0,0-.479,3.5,12.115,12.115,0,0,0,.585,3.763,9.806,9.806,0,0,0,1.7,3.18,8.717,8.717,0,0,0,2.712,2.226,8.334,8.334,0,0,0,3.669.8,11.67,11.67,0,0,0,2.18-.212,9.056,9.056,0,0,0,2.127-.8,7.448,7.448,0,0,0,1.861-1.431,6.411,6.411,0,0,0,1.329-2.173l8.455,5.035a10.568,10.568,0,0,1-2.606,3.71,15.7,15.7,0,0,1-3.935,2.756,20.31,20.31,0,0,1-4.733,1.7A21.489,21.489,0,0,1,18.984,68a17.956,17.956,0,0,1-7.71-1.643A20.292,20.292,0,0,1,5.264,61.9a20.384,20.384,0,0,1-3.882-6.255A19.177,19.177,0,0,1,0,48.544Z" transform="translate(0 -25.151)"/><path class="b" d="M295.556,68.818V31.184h17.335A11.283,11.283,0,0,1,318,32.35a12.383,12.383,0,0,1,3.988,2.968,13.191,13.191,0,0,1,2.659,4.187,12.332,12.332,0,0,1,.957,4.718,13.523,13.523,0,0,1-1.436,6.149,12.55,12.55,0,0,1-3.988,4.612l7.976,13.834h-11.7l-6.647-11.555h-3.882V68.818Zm10.369-20.566h6.541a2.228,2.228,0,0,0,1.755-1.06,4.627,4.627,0,0,0,.851-2.968,4.154,4.154,0,0,0-.957-2.968,2.665,2.665,0,0,0-1.914-1.06h-6.275Z" transform="translate(-249.17 -26.29)"/><path class="b" d="M594.134,38.111l-2.021-2.12a17.684,17.684,0,0,1-4.786,2.014,19.574,19.574,0,0,1-4.945.636,14.745,14.745,0,0,1-5.8-1.06,13.274,13.274,0,0,1-4.148-2.756,11.681,11.681,0,0,1-2.5-3.816,11.846,11.846,0,0,1-.851-4.346,9.861,9.861,0,0,1,1.542-5.566,18.312,18.312,0,0,1,3.776-4.134,16.226,16.226,0,0,1-2.393-3.657,9.2,9.2,0,0,1-.691-3.6,9.448,9.448,0,0,1,.851-4.081,8.748,8.748,0,0,1,2.286-3.074,10.405,10.405,0,0,1,3.51-1.855A13.6,13.6,0,0,1,582.383,0a15.467,15.467,0,0,1,4.041.53,9.9,9.9,0,0,1,3.563,1.59,7.815,7.815,0,0,1,2.552,2.809,8.3,8.3,0,0,1,.957,4.134,10.015,10.015,0,0,1-1.329,5.142,16.371,16.371,0,0,1-3.563,4.187L592.965,23a17.463,17.463,0,0,0,.9-3.18,20.969,20.969,0,0,0,.319-3.763h8.136a29.23,29.23,0,0,1-.957,7.368,24.04,24.04,0,0,1-2.446,5.831l8.455,8.852ZM583.446,30.8a7.62,7.62,0,0,0,3.137-.689l-6.009-6.414a4.04,4.04,0,0,0-1.808,2.968,4.874,4.874,0,0,0,.213,1.325,4.143,4.143,0,0,0,2.287,2.385A5.1,5.1,0,0,0,583.446,30.8Zm-2.978-21.52a2.069,2.069,0,0,0,.372,1.219q.425.477,1.383,1.378a9.4,9.4,0,0,0,1.542-1.272,2.182,2.182,0,0,0,.479-1.431,1.756,1.756,0,0,0-.532-1.378,1.8,1.8,0,0,0-1.329-.477,1.847,1.847,0,0,0-1.436.583A1.978,1.978,0,0,0,580.469,9.276Z" transform="translate(-479.773)"/><path class="b" d="M906.476,59.171a8.14,8.14,0,0,1-3.988,7.368,14.257,14.257,0,0,1-4.36,1.749,24.569,24.569,0,0,1-5.212.53H874.358V31.184h21.908a7.47,7.47,0,0,1,3.563.848,8.743,8.743,0,0,1,2.712,2.226,9.282,9.282,0,0,1,1.7,3.074,9.857,9.857,0,0,1,.639,3.5,10.179,10.179,0,0,1-1.383,5.088,8.41,8.41,0,0,1-4.041,3.6,9.748,9.748,0,0,1,5.1,3.339A9.647,9.647,0,0,1,906.476,59.171Zm-10.528-2.12a3.461,3.461,0,0,0-.745-2.279,2.321,2.321,0,0,0-1.914-.954h-8.561v6.308h8.189a3,3,0,0,0,2.128-.8A2.875,2.875,0,0,0,895.948,57.051ZM884.727,39.983V45.76H891.8a3.307,3.307,0,0,0,1.914-.583,2.58,2.58,0,0,0,.9-2.332,2.733,2.733,0,0,0-.745-2.173,2.5,2.5,0,0,0-1.755-.689Z" transform="translate(-737.131 -26.29)"/></g></g></svg>